<?xml version="1.0" standalone="no"?>
<!DOCTYPE svg PUBLIC "-//W3C//DTD SVG 20010904//EN"
 "http://www.w3.org/TR/2001/REC-SVG-20010904/DTD/svg10.dtd">
<svg version="1.0" xmlns="http://www.w3.org/2000/svg"
 width="1024.000000pt" height="1024.000000pt" viewBox="0 0 1024.000000 1024.000000"
 preserveAspectRatio="xMidYMid meet">

<g transform="translate(0.000000,1024.000000) scale(0.100000,-0.100000)"
fill="#000000" stroke="none">
<path d="M5209 9011 l-29 -29 0 -255 0 -255 -87 -6 c-203 -15 -411 -50 -509
-87 -28 -11 -64 -33 -80 -50 l-29 -30 -3 -240 -3 -239 -33 0 c-18 0 -82 -9
-143 -20 -349 -63 -723 -189 -824 -278 -99 -87 -66 -164 96 -228 87 -34 133
-63 180 -111 50 -51 66 -86 72 -152 l5 -56 -73 -24 c-168 -53 -307 -137 -330
-200 -14 -35 6 -87 44 -115 18 -13 70 -39 115 -56 154 -59 242 -160 242 -275
l0 -52 -129 -42 c-146 -48 -225 -90 -258 -140 -28 -42 -29 -64 -3 -106 20 -32
54 -53 191 -113 121 -54 199 -153 199 -253 l0 -47 -112 -37 c-214 -71 -298
-131 -298 -214 0 -39 69 -99 156 -135 173 -71 252 -160 253 -286 l1 -45 -103
-33 c-146 -46 -243 -97 -278 -145 -35 -48 -36 -73 -6 -117 22 -33 52 -52 182
-112 126 -59 205 -163 205 -270 l0 -53 -100 -29 c-171 -49 -270 -104 -295
-163 -24 -56 -2 -86 125 -175 118 -83 214 -198 275 -331 65 -140 68 -161 72
-507 5 -363 -1 -415 -83 -659 -92 -277 -182 -427 -374 -623 l-125 -128 -255 0
c-285 0 -307 -4 -344 -68 -16 -29 -17 -39 -8 -71 7 -20 22 -47 34 -58 l23 -21
2502 -3 2503 -4 25 25 c54 55 48 135 -14 177 -33 22 -40 23 -289 23 l-255 0
-104 102 c-178 175 -270 313 -363 547 -49 124 -93 291 -110 416 -8 60 -11 182
-8 365 4 238 8 285 26 350 58 212 177 379 351 493 80 53 101 79 101 123 0 41
-34 82 -97 116 -52 28 -206 82 -267 94 l-38 7 4 56 c5 72 40 144 98 201 34 34
71 57 148 89 162 68 199 134 125 222 -38 44 -166 103 -317 144 l-59 16 7 56
c15 132 74 199 240 277 133 63 161 92 157 163 -3 60 -145 147 -320 195 l-83
23 5 56 c10 111 82 200 207 256 142 63 163 76 183 115 21 43 17 64 -20 109
-46 55 -149 105 -300 149 l-73 21 0 53 c0 67 44 159 96 200 20 16 86 51 147
77 121 53 139 66 157 110 35 83 -68 165 -314 251 l-88 31 5 59 c6 68 40 133
93 176 39 32 59 43 174 95 87 40 116 63 131 105 13 37 -5 76 -53 117 -114 97
-583 246 -908 289 l-85 11 -5 236 c-6 265 -4 260 -82 300 -82 42 -325 90 -525
104 l-103 8 0 254 0 255 -29 29 c-22 21 -39 29 -66 29 -27 0 -44 -8 -66 -29z
m119 -808 c32 -24 32 -24 32 -114 l0 -89 -91 0 -91 0 8 93 c3 50 8 95 11 100
8 13 78 45 88 40 6 -3 25 -17 43 -30z m-528 -74 c6 -10 10 -51 10 -92 0 -85
-2 -87 -92 -87 l-48 0 0 79 c0 77 1 81 34 116 34 36 35 36 61 19 14 -9 30 -25
35 -35z m1070 -9 c6 -10 10 -53 10 -94 l0 -76 -32 0 c-18 0 -50 3 -70 6 l-38
7 0 82 c0 81 1 84 31 109 l31 26 29 -21 c16 -11 34 -29 39 -39z m-575 -440 c8
-27 88 -102 150 -143 l50 -32 3 -163 2 -162 -225 0 -225 0 0 158 0 157 48 30
c61 38 140 112 158 147 17 33 30 36 39 8z m-591 -87 c21 -23 67 -61 102 -83
l64 -40 0 -153 0 -154 -137 -11 c-130 -12 -163 -15 -255 -27 l-38 -5 0 178 0
178 74 52 c52 35 83 66 102 98 25 42 29 45 38 29 6 -10 28 -38 50 -62z m1236
29 c18 -29 56 -68 94 -96 35 -26 67 -54 70 -62 3 -9 6 -90 6 -181 l0 -166 -37
7 c-52 9 -288 35 -343 38 l-45 3 -3 152 -3 152 71 46 c64 43 150 126 150 146
0 18 11 7 40 -39z m-1777 -142 c15 -22 48 -54 72 -71 l45 -32 0 -142 0 -141
-132 -27 c-73 -15 -136 -27 -140 -27 -5 0 -8 84 -8 188 l0 187 40 17 c25 10
48 30 61 52 11 20 24 36 27 36 4 0 20 -18 35 -40z m2370 -60 c8 0 17 -6 19
-12 2 -7 6 -95 7 -195 l3 -183 -33 7 c-103 19 -251 52 -255 56 -2 2 -1 67 2
145 l7 141 43 32 c24 18 55 50 69 71 l26 39 49 -51 c27 -27 55 -50 63 -50z
m-1195 -511 c18 -21 62 -56 97 -79 l65 -42 0 -169 0 -169 -225 0 -225 0 0 165
0 165 47 33 c68 46 130 104 155 145 l22 35 15 -24 c9 -13 31 -40 49 -60z
m-666 -3 c17 -29 53 -62 100 -95 40 -28 79 -55 86 -61 9 -9 12 -50 10 -163
l-3 -152 -135 -12 c-74 -7 -168 -16 -208 -21 -40 -4 -75 -6 -77 -3 -3 2 -5 82
-5 177 l0 173 53 34 c61 40 124 106 133 142 3 14 9 25 13 25 3 0 18 -20 33
-44z m1266 -6 c20 -35 63 -74 146 -133 l26 -18 0 -173 c0 -95 -2 -175 -5 -177
-2 -3 -53 1 -112 8 -60 7 -153 16 -208 20 l-100 8 -3 157 -2 156 57 35 c63 39
122 91 149 131 9 14 19 26 23 26 3 0 16 -18 29 -40z m-1668 -230 c6 0 10 -53
10 -154 0 -139 -2 -155 -17 -160 -10 -3 -61 -12 -113 -21 -52 -8 -107 -18
-122 -21 l-28 -6 0 194 0 193 41 23 c22 13 50 39 61 58 l20 34 69 -70 c37 -38
73 -70 79 -70z m2273 22 c15 -11 17 -37 17 -199 l0 -185 -37 7 c-21 4 -83 15
-138 25 l-100 17 -3 155 -2 155 40 27 c23 15 55 46 72 70 l30 43 52 -51 c29
-28 60 -57 69 -64z m-1172 -544 c24 -19 63 -47 87 -62 l42 -26 0 -169 0 -169
-222 1 -223 2 -3 167 -2 167 60 41 c69 47 120 96 146 139 l17 30 27 -43 c15
-23 47 -58 71 -78z m-694 28 c18 -26 64 -65 112 -97 l81 -54 -2 -155 -3 -155
-151 -11 c-83 -7 -179 -15 -212 -19 l-62 -7 0 176 0 176 54 35 c57 36 136 119
136 141 0 25 16 15 47 -30z m1265 -1 c16 -27 55 -65 97 -96 l71 -51 0 -175 0
-175 -67 8 c-38 4 -133 12 -213 18 l-145 11 -3 157 -2 156 57 36 c62 37 124
93 150 132 8 13 18 24 22 24 3 0 18 -21 33 -45z m-1782 -134 c17 -21 51 -53
76 -70 l44 -32 0 -145 c0 -79 -4 -144 -8 -144 -12 0 -212 -37 -245 -45 l-27
-7 0 190 0 190 38 19 c20 10 46 32 57 50 11 18 23 32 27 33 4 0 21 -17 38 -39z
m2296 0 c18 -21 46 -44 62 -50 27 -11 30 -18 36 -73 3 -34 6 -119 6 -191 l0
-129 -27 5 c-16 2 -64 12 -108 20 -44 8 -97 18 -118 22 l-39 6 3 142 c3 136 5
143 27 162 79 66 102 89 107 106 9 26 13 25 51 -20z m-1102 -608 c26 -29 70
-67 97 -84 l49 -31 0 -164 0 -164 -222 2 -223 3 -3 160 -2 161 47 29 c69 43
132 103 155 149 l21 41 16 -25 c9 -14 38 -48 65 -77z m-687 28 c26 -44 88 -98
149 -129 23 -12 44 -28 48 -37 3 -9 6 -83 6 -164 l0 -147 -172 -13 c-95 -7
-192 -15 -215 -18 l-43 -6 0 180 0 179 66 43 c63 41 124 109 124 138 0 24 15
14 37 -26z m1263 10 c15 -38 87 -111 133 -136 20 -10 38 -28 41 -39 3 -12 6
-94 6 -183 0 -124 -3 -163 -12 -162 -7 0 -103 8 -213 17 l-200 17 0 160 0 160
50 27 c54 29 151 119 160 149 9 27 21 23 35 -10z m-1766 -146 c21 -25 55 -57
77 -72 l39 -26 0 -151 0 -152 -111 -17 c-61 -10 -124 -21 -140 -24 l-29 -5 0
188 1 189 39 24 c21 13 47 39 57 58 9 18 20 33 23 33 3 0 23 -20 44 -45z
m2366 -55 l30 -12 0 -189 c0 -145 -3 -189 -12 -189 -7 0 -31 4 -53 9 -22 5
-79 14 -127 21 l-88 12 0 153 0 154 42 28 c23 16 56 47 73 70 l30 41 37 -43
c21 -23 51 -48 68 -55z m-1240 -479 c0 -18 102 -120 155 -156 l55 -36 0 -170
0 -169 -225 0 -225 0 0 168 0 168 75 52 c41 28 91 74 112 102 35 48 53 61 53
41z m-539 -137 c30 -23 65 -47 79 -54 14 -7 28 -18 32 -24 4 -6 8 -82 8 -168
l0 -158 -27 0 c-39 0 -287 -19 -351 -26 l-54 -7 4 183 c3 181 3 183 28 199 69
45 108 81 139 128 l34 52 27 -42 c15 -23 51 -61 81 -83z m1226 30 c21 -21 60
-54 86 -71 l47 -33 0 -181 0 -181 -47 6 c-48 6 -317 26 -361 26 l-22 0 2 167
3 168 46 25 c66 36 121 83 154 130 l28 41 13 -29 c6 -16 29 -46 51 -68z
m-1789 -109 c15 -16 42 -41 60 -53 l33 -24 -3 -151 -3 -152 -137 -20 -138 -21
0 202 0 202 35 12 c20 6 48 27 63 46 l27 35 18 -23 c10 -12 31 -36 45 -53z
m2337 -11 l25 -6 0 -205 c0 -175 -2 -204 -14 -200 -8 3 -69 14 -135 23 l-120
18 -3 90 c-2 50 -2 121 0 157 3 65 4 68 42 93 21 14 53 46 70 70 l31 45 39
-39 c22 -22 51 -42 65 -46z m-1209 -533 c23 -22 70 -54 103 -71 l61 -30 0
-115 0 -115 -205 0 -205 0 0 113 0 114 71 39 c39 21 83 53 97 70 15 18 29 33
31 33 2 1 23 -17 47 -38z m-775 -152 c152 -105 257 -252 306 -429 16 -59 18
-116 18 -580 0 -555 -7 -677 -50 -878 -47 -215 -100 -362 -165 -456 l-31 -46
-150 0 c-83 0 -149 3 -147 8 106 208 150 327 192 522 41 190 48 322 43 830 -4
516 -9 558 -77 720 -30 71 -32 83 -33 213 -1 76 0 140 2 143 9 8 19 3 92 -47z
m1559 -94 c2 -139 2 -141 -34 -233 -59 -150 -66 -227 -66 -770 0 -514 10 -671
54 -845 30 -115 87 -269 137 -367 l38 -75 -151 -3 c-102 -2 -155 1 -164 9 -28
23 -104 197 -138 316 -81 282 -98 485 -94 1099 4 460 5 482 26 552 58 190 171
335 340 434 26 15 47 26 48 25 1 -1 3 -65 4 -142z m-2081 31 c107 -66 200
-170 252 -285 37 -82 69 -237 69 -335 l0 -76 -99 0 -98 0 -7 83 c-8 105 -39
225 -119 460 -35 103 -62 187 -59 187 2 0 30 -15 61 -34z m2570 -3 c-48 -99
-164 -510 -174 -620 l-8 -73 -88 0 c-49 0 -92 -1 -96 -2 -15 -5 -14 109 1 211
32 210 133 375 295 480 81 52 94 53 70 4z m-1178 -354 l69 -52 0 -183 0 -184
-205 0 -205 0 0 185 0 184 74 55 c41 30 86 71 102 91 l28 37 34 -41 c18 -22
65 -64 103 -92z m-1071 -679 l0 -160 -100 0 -100 0 0 123 c0 67 3 139 6 160
l7 37 93 0 94 0 0 -160z m2068 -2 l3 -158 -101 0 -100 0 0 153 c0 85 3 157 7
161 4 4 48 5 98 4 l90 -3 3 -157z m-928 -110 l0 -201 -122 6 c-66 4 -159 7
-205 7 l-83 0 0 195 0 195 205 0 205 0 0 -202z m-1140 -301 c0 -141 -32 -321
-84 -474 -31 -92 -125 -273 -178 -345 l-43 -58 -169 0 -168 0 55 60 c166 179
349 558 382 790 3 25 8 57 11 73 l6 27 94 0 94 0 0 -73z m2076 -13 c36 -255
231 -652 398 -813 20 -19 36 -39 36 -43 0 -4 -74 -8 -165 -8 l-165 0 -45 58
c-88 111 -194 354 -230 527 -30 146 -45 342 -28 359 4 4 48 5 97 4 l90 -3 12
-81z m-936 -121 c0 -144 66 -573 106 -684 7 -23 14 -45 14 -50 0 -5 -146 -9
-325 -9 -179 0 -325 3 -325 8 0 4 14 63 30 131 43 175 90 513 90 652 0 18 9
19 205 19 l205 0 0 -67z"/>
</g>
</svg>
