<?xml version="1.0" standalone="no"?>
<!DOCTYPE svg PUBLIC "-//W3C//DTD SVG 20010904//EN"
 "http://www.w3.org/TR/2001/REC-SVG-20010904/DTD/svg10.dtd">
<svg version="1.0" xmlns="http://www.w3.org/2000/svg"
 width="1024.000000pt" height="1024.000000pt" viewBox="0 0 1024.000000 1024.000000"
 preserveAspectRatio="xMidYMid meet">

<g transform="translate(0.000000,1024.000000) scale(0.100000,-0.100000)"
fill="#000000" stroke="none">
<path d="M5030 8061 c-6 -11 -10 -87 -10 -175 0 -143 2 -158 20 -176 48 -48
80 -14 80 85 l0 74 34 6 c19 4 56 5 82 3 l49 -3 3 99 3 98 -28 -6 c-73 -17
-110 -18 -141 -2 -42 22 -79 20 -92 -3z"/>
<path d="M5036 7547 c-10 -7 -20 -32 -23 -55 l-6 -43 -61 3 c-58 3 -62 4 -75
36 -28 61 -91 51 -91 -15 0 -44 12 -66 72 -132 l49 -54 -3 -70 c-3 -69 -4 -71
-33 -79 -54 -14 -73 -69 -35 -103 11 -10 20 -29 20 -42 0 -19 -14 -30 -82 -62
-104 -50 -165 -93 -251 -178 -117 -116 -188 -239 -222 -387 -17 -72 -25 -219
-12 -223 4 -2 369 -3 812 -3 l805 0 0 55 c0 125 -57 302 -135 420 -89 133
-221 248 -361 316 -90 42 -105 61 -75 93 31 34 34 60 10 89 -11 15 -29 27 -39
27 -33 0 -41 24 -34 96 6 68 7 70 65 125 57 54 59 58 59 108 l0 51 -40 0 c-36
0 -41 -3 -55 -35 l-14 -36 -63 3 -63 3 -3 37 c-5 59 -69 89 -116 55z"/>
<path d="M4230 5968 c-19 -7 -36 -43 -31 -68 1 -8 14 -25 28 -37 l26 -21 -44
-11 c-143 -37 -173 -47 -226 -76 -58 -32 -103 -82 -103 -116 0 -31 55 -83 119
-114 l61 -29 0 -271 c0 -149 2 -274 4 -276 3 -3 227 51 498 118 271 67 505
123 520 123 32 0 122 -21 620 -145 209 -52 384 -95 389 -95 5 0 10 123 11 273
l3 272 75 40 c79 42 113 85 103 126 -15 56 -130 125 -258 155 -105 24 -101 21
-71 49 15 14 26 35 26 49 0 57 29 55 -888 58 -464 2 -852 0 -862 -4z m206
-382 c16 -12 19 -29 22 -121 4 -116 -7 -145 -54 -145 -45 0 -54 23 -54 136 0
91 3 107 20 124 24 24 39 25 66 6z m218 -2 c13 -12 16 -39 16 -128 0 -121 -6
-136 -51 -136 -50 0 -59 21 -59 136 0 91 3 107 20 124 24 24 53 26 74 4z m226
-4 c17 -17 20 -33 20 -122 0 -112 -11 -138 -58 -138 -51 0 -62 23 -62 135 0
88 3 104 20 123 26 27 54 28 80 2z m242 3 c15 -14 18 -32 18 -128 0 -123 -5
-135 -56 -135 -55 0 -66 27 -58 145 7 106 19 135 57 135 11 0 29 -7 39 -17z
m238 -3 c18 -18 20 -33 20 -130 0 -98 -2 -110 -19 -120 -30 -15 -59 -12 -81
10 -17 17 -19 29 -13 122 6 108 18 138 55 138 10 0 27 -9 38 -20z m230 0 c17
-17 20 -33 20 -124 0 -115 -9 -136 -57 -136 -53 0 -63 23 -63 137 0 90 3 106
20 123 11 11 29 20 40 20 11 0 29 -9 40 -20z m212 3 c15 -14 18 -32 18 -124 0
-131 -19 -162 -81 -129 -17 10 -19 22 -19 122 0 90 3 115 17 130 20 22 41 23
65 1z m-1562 -12 c14 -28 13 -224 -2 -239 -19 -19 -66 -15 -78 7 -5 11 -10 65
-10 120 0 77 4 103 16 115 21 22 61 20 74 -3z m1760 -1 c6 -12 9 -66 8 -132
l-3 -113 -38 -3 c-33 -3 -38 0 -48 25 -15 39 -8 205 10 226 19 23 58 21 71 -3z"/>
<path d="M3162 5664 c-19 -13 -22 -24 -22 -84 l0 -70 -64 -29 c-35 -15 -82
-46 -106 -67 -44 -40 -90 -122 -90 -161 0 -22 4 -23 65 -23 l65 0 0 -64 c0
-71 3 -69 -80 -81 -98 -16 -192 -76 -242 -154 -15 -25 -28 -58 -28 -73 0 -28
1 -28 60 -28 l60 0 0 -111 c0 -96 -3 -114 -20 -136 -13 -17 -20 -41 -20 -69
l0 -44 -75 0 -75 0 0 30 c0 36 -38 80 -69 80 -26 0 -61 -46 -61 -81 l0 -29
-69 0 c-68 0 -70 0 -76 29 -13 60 -53 75 -171 66 l-85 -7 3 -862 3 -861 28
-89 c61 -196 142 -331 282 -472 185 -186 404 -294 655 -323 117 -13 4022 -13
4153 0 326 33 627 212 804 477 64 95 124 226 155 338 22 78 23 85 26 935 l3
857 -103 5 c-117 5 -146 -6 -162 -62 -9 -31 -9 -31 -77 -31 l-69 0 0 30 c0 36
-39 80 -70 80 -31 0 -70 -44 -70 -80 l0 -30 -75 0 -75 0 0 33 c0 39 -23 75
-56 88 -24 9 -25 10 -22 121 l3 113 58 3 c66 3 71 15 38 80 -43 82 -157 161
-256 177 -91 14 -85 9 -85 80 l0 65 71 0 71 0 -7 28 c-22 92 -82 160 -187 213
-35 17 -66 37 -70 43 -4 6 -8 39 -8 73 0 52 -3 64 -22 77 -30 21 -44 20 -69
-5 -17 -17 -19 -28 -13 -75 8 -66 3 -73 -80 -112 -34 -16 -79 -44 -101 -63
-40 -35 -85 -118 -85 -156 0 -22 4 -23 70 -23 l71 0 -3 -67 -3 -68 -55 -8
c-132 -19 -241 -106 -264 -212 l-7 -30 73 -12 c40 -6 144 -28 231 -49 l157
-38 0 -94 c0 -82 -2 -93 -16 -88 -9 3 -26 8 -37 11 -59 12 -1374 339 -1452
360 -137 37 -304 75 -331 75 -13 0 -354 -83 -757 -184 -402 -101 -802 -200
-887 -220 -85 -21 -163 -40 -173 -43 -16 -4 -18 3 -15 88 l3 92 60 14 c196 43
381 87 388 94 14 12 -27 91 -69 132 -66 66 -105 84 -236 112 -27 5 -28 8 -28
70 l0 65 70 0 c66 0 70 1 70 23 -1 72 -81 165 -188 220 l-67 33 -3 70 c-2 56
-6 72 -23 87 -26 21 -38 21 -67 1z m103 -504 l0 -65 -40 -3 c-21 -2 -54 -1
-72 3 l-33 6 0 65 0 65 73 -3 72 -3 0 -65z m3773 3 l-3 -68 -70 0 -70 0 -3 68
-3 67 76 0 76 0 -3 -67z m-3488 -801 c11 -13 20 -40 20 -58 l0 -34 -85 0 -85
0 0 34 c0 84 100 123 150 58z m301 28 c23 0 49 -42 49 -80 l0 -41 -82 3 c-82
3 -83 3 -86 30 -2 15 2 37 8 48 13 24 68 52 88 45 8 -3 18 -5 23 -5z m361 -17
c23 -21 33 -70 18 -88 -13 -15 -122 -21 -154 -9 -39 15 -2 107 47 117 31 7 69
-2 89 -20z m343 -24 c8 -15 15 -37 15 -49 0 -19 -6 -20 -90 -20 l-90 0 0 28
c0 86 126 118 165 41z m316 21 c23 -23 30 -37 27 -61 -3 -31 -3 -31 -73 -35
-84 -6 -110 7 -100 49 9 35 59 77 92 77 14 0 37 -13 54 -30z m547 -2 c15 -15
22 -33 22 -60 l0 -38 -77 0 c-94 0 -107 7 -99 47 17 75 99 102 154 51z m335 0
c21 -24 31 -62 23 -83 -4 -11 -21 -15 -59 -15 -90 0 -117 9 -117 37 0 78 102
119 153 61z m335 -5 c16 -17 22 -35 20 -57 -3 -31 -4 -31 -63 -34 -89 -5 -105
2 -105 41 0 33 26 67 60 80 26 10 64 -3 88 -30z m311 22 c30 -15 55 -62 49
-92 -2 -14 -14 -19 -58 -21 -30 -2 -70 -1 -87 3 -28 5 -33 10 -33 33 0 46 42
89 88 91 7 1 26 -6 41 -14z m325 1 c34 -14 61 -59 54 -93 -3 -16 -14 -18 -82
-18 -62 0 -81 3 -89 16 -15 23 9 76 42 94 33 18 35 18 75 1z m-4285 -182 c19
-25 21 -40 21 -192 0 -193 -4 -202 -78 -202 -79 0 -82 8 -82 194 0 143 2 165
20 194 17 27 25 32 59 32 31 0 44 -6 60 -26z m276 1 c25 -24 25 -27 25 -198 0
-197 0 -196 -73 -199 -76 -4 -77 -1 -77 202 l0 179 26 20 c35 28 69 26 99 -4z
m4880 0 c25 -24 25 -27 25 -199 0 -199 1 -196 -84 -196 -38 0 -48 4 -62 26
-15 22 -16 45 -10 187 6 146 8 163 28 184 29 31 72 30 103 -2z m286 6 c23 -19
24 -24 27 -191 4 -202 1 -210 -79 -210 -77 0 -79 5 -79 201 0 167 0 170 25
194 29 30 74 32 106 6z m-4311 -681 c0 -647 0 -660 -20 -680 -14 -14 -33 -20
-65 -20 -32 0 -51 6 -65 20 -20 20 -20 33 -20 673 0 360 3 657 7 660 3 4 42 7
85 7 l78 0 0 -660z m330 -2 c0 -749 6 -698 -80 -698 -85 0 -78 -56 -85 678 -5
495 -3 657 6 668 8 10 34 14 85 14 l74 0 0 -662z m337 17 c1 -352 0 -650 -2
-662 -8 -38 -33 -53 -86 -53 -36 0 -54 5 -69 20 -20 20 -20 33 -20 668 0 502
3 651 12 660 9 9 38 12 88 10 l75 -3 2 -640z m331 -17 c2 -647 2 -658 -18
-678 -15 -15 -33 -20 -69 -20 -41 0 -53 4 -70 26 -20 25 -20 33 -15 667 3 353
7 648 10 655 3 9 25 12 81 10 l78 -3 3 -657z m332 2 c0 -647 0 -660 -20 -680
-14 -14 -33 -20 -68 -20 -89 0 -83 -52 -86 694 -2 361 0 658 2 661 3 3 43 5
89 5 l83 0 0 -660z m540 -2 c0 -754 7 -698 -85 -698 -93 0 -86 -54 -87 688 0
358 3 655 7 661 3 6 40 11 86 11 l79 0 0 -662z m338 0 c2 -647 2 -658 -18
-678 -15 -15 -33 -20 -69 -20 -42 0 -53 4 -70 26 -21 26 -21 34 -21 674 0 356
3 650 7 654 4 4 43 5 88 4 l80 -3 3 -657z m332 0 c0 -751 6 -698 -82 -698 -35
0 -54 6 -68 20 -20 20 -20 33 -20 680 l0 660 85 0 85 0 0 -662z m331 -3 c-2
-747 4 -695 -83 -695 -35 0 -54 6 -68 20 -20 20 -20 33 -20 673 0 360 3 657 7
661 4 4 43 5 86 4 l80 -3 -2 -660z m329 1 c0 -747 6 -696 -80 -696 -85 0 -79
-50 -80 687 -1 359 1 657 5 663 4 7 36 10 81 8 l75 -3 -1 -659z m-4335 39 l25
-24 0 -291 c0 -277 -1 -291 -20 -310 -29 -29 -84 -27 -115 5 l-25 24 0 276 c0
328 3 342 83 344 17 1 37 -9 52 -24z m280 0 l25 -24 0 -295 0 -296 -25 -16
c-17 -11 -37 -15 -61 -11 -66 11 -64 -1 -64 325 0 290 0 296 22 319 29 31 72
30 103 -2z m4868 14 c12 -7 25 -17 29 -23 4 -6 8 -145 8 -308 0 -296 0 -297
-22 -312 -33 -23 -87 -20 -115 6 -23 21 -23 22 -23 299 0 183 4 286 11 303 19
40 70 57 112 35z m298 -8 l24 -19 3 -291 3 -291 -25 -25 c-32 -32 -87 -34
-116 -5 -19 19 -20 33 -20 310 l0 291 25 24 c29 30 74 32 106 6z m-272 -1087
c-50 -60 -226 -147 -346 -170 -113 -21 -4214 -21 -4318 1 -87 18 -237 91 -296
144 l-44 40 2509 1 c2302 0 2507 -1 2495 -16z"/>
</g>
</svg>
