<?xml version="1.0" standalone="no"?>
<!DOCTYPE svg PUBLIC "-//W3C//DTD SVG 20010904//EN"
 "http://www.w3.org/TR/2001/REC-SVG-20010904/DTD/svg10.dtd">
<svg version="1.0" xmlns="http://www.w3.org/2000/svg"
 width="1024.000000pt" height="1024.000000pt" viewBox="0 0 1024.000000 1024.000000"
 preserveAspectRatio="xMidYMid meet">

<g transform="translate(0.000000,1024.000000) scale(0.100000,-0.100000)"
fill="#000000" stroke="none">
<path d="M4989 8992 c-82 -63 -659 -480 -766 -556 l-83 -57 0 -419 0 -418
-202 -132 c-112 -72 -238 -153 -280 -180 l-78 -49 0 -388 0 -388 -53 -28
c-100 -55 -322 -166 -350 -176 l-27 -11 15 30 c8 16 15 35 15 43 0 8 7 20 15
27 12 10 13 16 4 26 -9 11 -7 14 7 15 11 0 14 3 7 6 -14 5 -18 34 -5 32 18 -3
21 3 12 25 -6 17 -5 26 3 30 7 4 1 4 -11 2 -23 -4 -23 -4 -6 15 10 11 24 17
31 15 7 -3 15 0 19 6 4 6 3 9 -2 5 -5 -3 -14 6 -21 19 -8 17 -8 24 0 24 7 0 7
4 -1 12 -15 15 -16 42 -2 33 6 -4 8 -10 5 -15 -3 -4 2 -10 10 -13 11 -5 12 -1
4 20 -7 20 -6 30 8 46 10 11 12 17 6 13 -8 -4 -13 -1 -13 8 0 8 8 17 18 19 14
4 15 5 1 6 -18 1 -32 38 -18 47 14 9 10 21 -8 27 -10 3 -75 26 -145 51 l-128
46 -2 -1486 -3 -1486 -150 -38 c-82 -21 -349 -86 -593 -146 l-442 -108 0 -156
0 -156 342 -28 c189 -16 449 -38 578 -50 l235 -21 3 -46 3 -47 -53 -7 c-52 -6
-515 -70 -903 -124 l-200 -27 -3 -282 -2 -282 415 0 415 0 0 -109 0 -109 -575
-7 c-365 -5 -575 -11 -575 -17 0 -6 7 -8 15 -4 8 3 21 -2 29 -10 9 -8 30 -14
48 -14 43 2 100 -5 168 -18 49 -10 125 -19 203 -24 15 -1 27 -5 27 -9 0 -4 6
-6 13 -5 6 0 13 -3 15 -9 3 -10 -218 -32 -340 -34 -38 -1 -68 -4 -68 -8 0 -5
188 -32 418 -61 997 -127 1322 -171 2597 -352 l480 -68 95 14 c52 7 262 36
465 64 204 27 469 64 590 80 415 58 970 131 1215 159 870 102 896 107 560 110
-265 2 -755 29 -1560 88 -201 15 -405 26 -455 25 -88 -1 -247 -16 -690 -66
l-220 -25 -340 31 c-304 28 -350 30 -440 20 -210 -24 -1005 -100 -1109 -107
-61 -3 -113 -8 -118 -11 -4 -3 -8 -1 -8 3 0 15 183 73 502 159 97 26 181 50
186 53 5 3 12 169 15 370 3 200 7 365 9 366 2 2 39 6 83 9 44 4 87 9 95 11 23
6 384 45 419 45 l31 0 -3 -399 c-1 -220 2 -403 6 -408 5 -4 159 -10 343 -12
l334 -3 0 642 c0 606 1 641 18 636 15 -5 286 -36 312 -36 7 0 10 80 10 239 0
220 -1 240 -17 245 -39 12 -310 56 -345 56 -20 0 -70 -7 -110 -16 -98 -21
-831 -164 -840 -164 -5 0 -8 92 -8 205 l0 204 38 10 c20 5 237 60 482 122
l444 112 151 -33 c82 -17 201 -44 262 -58 l113 -25 2 -226 3 -225 30 -8 c29
-8 577 -109 785 -146 l105 -18 3 -202 2 -202 -22 0 c-13 0 -221 25 -463 55
-242 30 -441 55 -442 55 -2 0 -3 -274 -3 -609 l0 -609 763 -5 c419 -3 875 -10
1012 -16 239 -9 1027 -14 1090 -6 17 2 73 11 125 20 52 9 120 18 150 21 30 4
63 10 72 15 11 6 18 5 21 -4 4 -8 6 -6 6 4 1 22 -233 29 -1011 29 l-618 0 0
110 0 110 588 2 587 3 0 280 0 279 -255 37 c-140 19 -382 53 -537 75 l-283 39
0 51 0 51 93 7 c50 4 180 16 287 26 190 19 658 60 686 60 12 0 14 28 12 167
l-3 167 -240 57 c-132 31 -370 87 -530 125 -159 37 -314 75 -345 84 l-55 16
-3 1642 c-1 903 -5 1642 -9 1642 -4 0 -71 -25 -150 -56 l-143 -57 0 -313 c0
-173 -2 -314 -6 -314 -4 0 -266 120 -474 217 -41 20 -138 65 -215 101 -77 36
-155 72 -172 81 l-33 15 -2 815 -3 816 -93 60 c-139 91 -295 190 -304 193 -4
2 -7 -382 -6 -854 l3 -857 170 -79 c94 -43 176 -78 183 -78 9 0 12 -48 12
-204 l0 -205 -32 14 c-18 7 -98 43 -177 79 -80 36 -148 66 -153 66 -4 0 -9
-94 -10 -208 l-3 -209 -255 109 c-140 59 -260 108 -266 108 -7 0 -183 -84
-391 -186 -360 -177 -501 -245 -550 -265 -21 -8 -22 -6 -19 24 3 18 5 35 5 40
1 4 10 7 21 7 11 0 20 4 20 9 0 5 -10 8 -23 6 -21 -4 -23 -2 -19 31 4 31 10
38 46 54 22 10 34 19 25 19 -9 1 -20 8 -23 17 -5 13 -1 15 18 10 14 -3 28 -1
32 6 4 6 3 8 -3 5 -15 -9 -74 13 -67 24 3 6 12 5 22 -3 12 -10 14 -10 8 0 -4
6 -2 12 3 12 6 0 11 -4 11 -10 0 -21 15 -9 16 14 2 20 -2 23 -28 20 -16 -2
-34 -7 -40 -10 -6 -4 -8 -2 -4 4 3 6 21 14 39 17 40 9 91 35 83 42 -3 3 -12 0
-21 -7 -13 -11 -14 -10 -9 4 5 12 0 16 -17 17 -13 0 -18 3 -11 6 6 2 9 9 6 15
-4 5 5 2 20 -7 32 -21 43 -14 28 19 -9 20 -8 25 6 30 9 3 34 16 54 28 20 13
124 70 230 127 106 58 265 144 353 193 88 49 170 91 183 95 16 4 71 -16 175
-61 84 -37 158 -70 165 -73 9 -4 12 216 12 1081 l0 1087 -175 114 c-97 63
-177 115 -179 115 -2 0 -32 -22 -67 -48z m-1749 -2372 c-12 -23 -16 -24 -26
-8 -4 7 -3 8 4 4 7 -4 12 -1 12 8 0 9 5 16 10 16 7 0 7 -6 0 -20z m-5 -40 c-3
-5 -11 -10 -16 -10 -6 0 -7 5 -4 10 3 6 11 10 16 10 6 0 7 -4 4 -10z m-35
-194 c0 -3 -4 -8 -10 -11 -5 -3 -10 -1 -10 4 0 6 5 11 10 11 6 0 10 -2 10 -4z
m950 -116 c0 -5 -5 -10 -11 -10 -5 0 -7 5 -4 10 3 6 8 10 11 10 2 0 4 -4 4
-10z m2608 -187 l132 -56 0 -197 0 -198 -147 56 c-82 30 -154 59 -160 65 -10
7 -13 61 -13 208 l0 199 28 -11 c15 -5 87 -35 160 -66z m-2618 32 c7 -9 8 -15
2 -15 -5 0 -12 7 -16 15 -3 8 -4 15 -2 15 2 0 9 -7 16 -15z m-20 -15 c0 -5 -5
-10 -11 -10 -5 0 -7 5 -4 10 3 6 8 10 11 10 2 0 4 -4 4 -10z m1195 -228 l260
-98 3 -386 2 -387 183 -59 182 -58 3 -197 c1 -108 0 -197 -4 -197 -3 0 -61 16
-128 34 -238 68 -749 206 -762 206 -14 0 -314 -90 -654 -195 -113 -35 -224
-69 -248 -75 -50 -13 -72 -5 -45 17 10 8 12 12 6 8 -7 -3 -13 -1 -13 4 0 6 10
12 23 12 17 1 18 2 4 6 -15 4 -16 7 -5 21 11 13 11 15 -4 9 -12 -4 -15 -2 -11
9 3 7 11 14 18 14 7 0 18 7 25 15 10 12 7 14 -19 10 -18 -2 -29 0 -26 6 4 5
18 9 33 9 27 1 27 1 -5 15 -18 8 -33 17 -33 20 0 3 5 3 10 0 6 -3 13 1 16 9 7
18 45 22 41 5 -1 -6 4 -13 11 -15 7 -1 8 0 3 2 -5 3 -6 14 -3 26 4 18 2 20
-16 16 -14 -4 -27 1 -39 16 -9 11 -11 15 -3 9 34 -31 69 4 64 65 -1 25 6 28
25 10 8 -7 6 0 -4 15 -15 23 -16 30 -5 40 10 10 12 9 7 -4 -4 -13 -1 -16 15
-11 13 3 16 7 8 12 -17 10 -5 17 125 68 120 48 647 245 682 256 21 7 167 -32
316 -83 l57 -20 0 188 0 189 -67 27 c-38 15 -118 44 -179 65 l-110 37 -75 -29
c-40 -16 -245 -99 -454 -185 -209 -85 -392 -159 -407 -163 -26 -8 -27 -7 -21
23 7 36 23 52 36 34 6 -8 7 -8 4 3 -2 8 -9 15 -14 15 -6 0 -15 4 -20 8 -4 5
-3 8 2 7 23 -5 35 1 35 16 0 14 -3 14 -15 4 -9 -7 -18 -10 -22 -6 -3 3 -1 6 5
6 7 0 12 5 12 11 0 5 -4 7 -10 4 -5 -3 -10 -1 -10 5 0 7 7 9 16 6 10 -4 28 5
47 21 18 15 24 24 14 20 -10 -4 -23 -7 -28 -7 -6 0 -8 -4 -4 -9 3 -5 1 -12 -3
-15 -5 -3 -9 5 -8 17 1 13 7 21 15 19 8 -2 11 3 8 12 -7 17 16 18 40 3 9 -6
11 -3 7 8 -4 9 -13 14 -20 11 -8 -3 -14 1 -14 10 0 8 5 12 10 9 17 -10 32 5
20 20 -7 9 -8 15 -1 19 11 7 3 37 -13 48 -5 4 -18 2 -28 -3 -10 -5 -18 -7 -18
-5 0 9 77 46 83 40 3 -3 3 4 0 16 -6 22 -7 22 -20 5 -7 -11 -13 -14 -13 -9 0
22 22 33 41 21 10 -6 22 -7 26 -3 4 5 2 11 -5 13 -6 3 -9 9 -6 14 3 6 11 5 20
-2 12 -10 13 -9 9 4 -5 11 9 22 52 42 32 14 96 44 143 66 84 38 585 268 585
268 0 1 117 -43 260 -97z m-2055 -29 c0 -10 3 -84 6 -164 l6 -146 -54 -21
c-29 -11 -64 -23 -78 -27 -21 -5 -22 -4 -7 5 19 12 24 35 5 25 -7 -4 -5 0 6 9
10 8 15 20 11 27 -6 9 0 10 21 5 l29 -6 -30 17 c-27 15 -28 17 -10 24 11 4 15
8 9 8 -6 1 -11 8 -11 16 0 11 4 12 11 5 12 -12 26 -13 26 -2 0 5 -11 14 -25
20 -14 6 -25 16 -25 22 0 7 7 4 16 -5 15 -14 17 -14 29 2 7 9 10 24 7 31 -4
12 -8 11 -19 -4 -7 -10 -13 -13 -13 -7 0 6 7 16 15 23 11 9 12 16 5 25 -8 9
-4 14 12 18 22 6 22 7 4 20 -14 10 -16 16 -7 21 6 4 9 16 6 27 -5 14 -2 19 13
19 11 0 22 7 26 15 7 20 15 19 16 -2z m2970 -311 c91 -33 191 -70 223 -82 l57
-21 0 -181 c0 -140 -3 -179 -12 -175 -7 2 -124 41 -260 87 l-248 83 0 188 0
188 38 -13 c20 -8 111 -41 202 -74z m-2044 -56 c9 -10 11 -17 4 -21 -8 -5 -7
-12 2 -23 11 -13 11 -14 0 -8 -7 4 -19 3 -26 -3 -10 -9 -15 -8 -19 3 -7 19 9
31 17 14 3 -7 5 2 3 20 -4 36 -2 38 19 18z m-39 -12 c-3 -3 -12 -4 -19 -1 -8
3 -5 6 6 6 11 1 17 -2 13 -5z m2591 -113 l152 -54 0 -174 c0 -151 -2 -174 -15
-169 -8 3 -80 26 -160 52 l-145 46 0 180 c0 99 4 178 8 176 4 -1 76 -27 160
-57z m-3162 -378 c-9 -9 -437 -163 -453 -163 -3 0 0 7 7 15 7 9 10 26 6 42 -5
21 -4 24 4 13 7 -11 10 -11 10 -2 0 7 4 11 8 8 12 -7 9 38 -3 47 -12 8 14 29
27 21 10 -7 -3 29 -14 37 -11 7 1 40 13 33 5 -3 9 0 9 6 0 6 6 8 13 4 6 -4 4
1 -5 11 -16 17 -16 19 0 32 9 8 11 12 5 8 -8 -4 -11 -1 -7 9 3 8 13 12 22 9
15 -4 15 -3 2 6 -8 6 -23 8 -32 5 -13 -4 -16 -1 -12 10 6 15 12 18 30 15 4 0
10 3 13 8 8 13 85 49 231 109 l125 51 3 -165 c1 -91 1 -167 -2 -169z m2669
-178 c116 -35 307 -92 425 -127 l215 -63 3 -348 c2 -329 1 -348 -15 -343 -16
5 -136 36 -255 67 l-38 10 0 165 c0 161 0 165 -22 173 -13 4 -143 39 -290 77
l-266 69 -7 182 c-4 100 -5 190 -1 199 4 10 12 14 24 9 9 -3 112 -35 227 -70z
m-2092 -61 c-7 -3 -9 -13 -6 -22 4 -14 3 -14 -5 -2 -12 16 -7 30 11 29 9 0 9
-2 0 -5z m-884 -421 l1 -142 -37 -10 c-68 -18 -120 -24 -103 -12 8 6 11 11 6
11 -5 0 0 8 12 18 20 18 20 20 5 42 -16 22 -15 23 1 17 11 -5 15 -3 10 5 -5 7
1 9 19 6 24 -5 25 -3 15 16 -14 28 -23 35 -15 14 8 -24 -5 -23 -20 1 -10 16
-9 20 11 25 13 3 26 13 30 21 4 13 2 14 -14 5 -25 -13 -40 -13 -17 1 9 6 15
14 12 20 -4 5 1 12 9 15 26 10 19 48 -11 67 l-28 17 30 -6 c27 -7 29 -6 17 9
-12 14 -10 18 20 30 31 13 33 12 40 -7 3 -12 6 -85 7 -163z m-85 87 c-10 -4
-21 -6 -24 -3 -8 7 24 22 34 16 5 -4 1 -10 -10 -13z m-29 -140 c3 -5 1 -10 -4
-10 -6 0 -11 5 -11 10 0 6 2 10 4 10 3 0 8 -4 11 -10z m-5 -62 c0 -6 -6 -5
-15 2 -8 7 -15 14 -15 16 0 2 7 1 15 -2 8 -4 15 -11 15 -16z m770 -396 l0
-198 -182 -36 c-101 -19 -186 -33 -190 -31 -10 5 -10 217 -2 300 l7 60 66 22
c53 18 261 74 294 80 4 0 7 -88 7 -197z m2855 -302 c110 -22 202 -45 204 -51
2 -7 6 -7 10 -2 4 6 18 5 36 -3 17 -8 23 -13 13 -14 -30 0 -27 -15 3 -15 16 0
29 3 29 8 0 4 5 7 11 7 5 0 8 -4 4 -9 -3 -5 4 -26 16 -45 11 -20 17 -36 12
-36 -4 0 -1 -5 7 -10 13 -8 13 -10 -2 -10 -9 0 -20 -5 -23 -10 -4 -6 -3 -10 2
-9 19 3 34 -2 28 -10 -3 -5 3 -12 12 -14 13 -3 11 -5 -6 -6 l-24 -1 22 -19
c21 -18 21 -21 6 -44 -15 -23 -15 -25 7 -31 22 -7 22 -7 3 -16 -11 -5 -14 -9
-6 -9 10 -1 12 -10 8 -36 -4 -24 -2 -33 5 -29 6 4 9 1 6 -7 -7 -19 -65 -15
-325 21 -116 17 -223 30 -236 30 -23 0 -24 4 -31 77 -8 105 -8 333 2 333 4 0
97 -18 207 -40z m-4707 -1514 c3 -3 -11 -6 -32 -6 -20 0 -35 4 -32 9 6 9 54 7
64 -3z"/>
<path d="M4218 5503 c7 -3 16 -2 19 1 4 3 -2 6 -13 5 -11 0 -14 -3 -6 -6z"/>
<path d="M4160 5270 c-9 -6 -10 -10 -3 -10 6 0 15 5 18 10 8 12 4 12 -15 0z"/>
<path d="M4190 4766 c0 -4 7 -14 15 -22 8 -9 15 -11 15 -6 0 5 -7 15 -15 22
-8 7 -15 9 -15 6z"/>
<path d="M4135 4630 c3 -5 11 -10 16 -10 6 0 7 5 4 10 -3 6 -11 10 -16 10 -6
0 -7 -4 -4 -10z"/>
<path d="M3215 5780 c-3 -5 -1 -10 4 -10 6 0 11 5 11 10 0 6 -2 10 -4 10 -3 0
-8 -4 -11 -10z"/>
<path d="M3574 3878 c-11 -17 6 -22 22 -7 13 14 13 16 -1 16 -9 0 -18 -4 -21
-9z"/>
<path d="M3586 3773 c-6 -14 -5 -15 5 -6 7 7 10 15 7 18 -3 3 -9 -2 -12 -12z"/>
<path d="M7027 3387 c3 -5 14 -7 24 -4 24 6 24 -1 2 -20 -17 -14 -17 -14 0 -9
10 3 23 6 28 6 11 0 12 29 2 31 -31 6 -61 3 -56 -4z"/>
<path d="M7090 3280 c-9 -6 -10 -10 -3 -10 6 0 15 5 18 10 8 12 4 12 -15 0z"/>
<path d="M7101 3237 c-8 -10 -7 -14 2 -14 8 0 14 6 14 14 0 7 -1 13 -2 13 -2
0 -8 -6 -14 -13z"/>
<path d="M4240 6310 c0 -5 5 -10 11 -10 5 0 7 5 4 10 -3 6 -8 10 -11 10 -2 0
-4 -4 -4 -10z"/>
<path d="M4260 6269 c0 -5 5 -7 10 -4 6 3 10 8 10 11 0 2 -4 4 -10 4 -5 0 -10
-5 -10 -11z"/>
<path d="M4220 6200 c0 -5 5 -10 11 -10 5 0 7 5 4 10 -3 6 -8 10 -11 10 -2 0
-4 -4 -4 -10z"/>
<path d="M4200 6169 c0 -5 5 -7 10 -4 6 3 10 8 10 11 0 2 -4 4 -10 4 -5 0 -10
-5 -10 -11z"/>
<path d="M4136 6058 c5 -7 2 -9 -8 -6 -8 4 -15 1 -15 -7 0 -7 8 -10 19 -7 25
6 31 19 12 26 -10 4 -13 2 -8 -6z"/>
<path d="M4164 2336 c-17 -13 -19 -30 -22 -150 l-4 -136 47 0 c31 0 47 5 51
14 3 8 2 70 -3 137 -7 107 -11 123 -29 135 -17 12 -23 12 -40 0z"/>
<path d="M4012 2327 c-6 -7 -12 -68 -13 -142 l-1 -130 46 -3 46 -3 0 123 c0
96 -4 129 -16 146 -17 24 -46 29 -62 9z"/>
<path d="M5184 2326 c-17 -13 -19 -29 -22 -145 l-4 -131 46 0 46 0 0 129 c0
104 -3 133 -16 145 -19 20 -25 20 -50 2z"/>
</g>
</svg>
