<?xml version="1.0" standalone="no"?>
<!DOCTYPE svg PUBLIC "-//W3C//DTD SVG 20010904//EN"
 "http://www.w3.org/TR/2001/REC-SVG-20010904/DTD/svg10.dtd">
<svg version="1.0" xmlns="http://www.w3.org/2000/svg"
 width="1024.000000pt" height="1024.000000pt" viewBox="0 0 1024.000000 1024.000000"
 preserveAspectRatio="xMidYMid meet">

<g transform="translate(0.000000,1024.000000) scale(0.100000,-0.100000)"
fill="#000000" stroke="none">
<path d="M5006 8775 c-57 -80 -96 -160 -96 -200 0 -70 72 -135 148 -135 98 0
156 57 149 148 -3 45 -13 66 -71 152 -37 55 -71 100 -76 100 -5 0 -29 -29 -54
-65z m64 -60 c0 -2 -9 -19 -20 -37 -21 -35 -26 -83 -10 -93 15 -9 12 -25 -5
-32 -22 -8 -55 25 -55 54 0 23 22 75 42 101 10 11 48 17 48 7z"/>
<path d="M4141 8552 c-19 -9 -44 -29 -55 -45 -18 -24 -19 -33 -10 -77 9 -44 8
-52 -11 -76 l-22 -27 -6 30 c-19 93 -124 127 -162 52 -8 -15 -15 -33 -15 -39
0 -19 40 -50 64 -50 13 0 29 -6 35 -13 11 -14 42 -157 33 -157 -2 0 -22 16
-43 35 -50 45 -97 48 -128 9 -23 -29 -28 -83 -9 -102 7 -7 33 -12 58 -12 49 0
73 -17 100 -68 17 -34 8 -36 -40 -12 l-43 22 6 -144 c4 -120 9 -155 31 -217
29 -82 75 -167 138 -254 l42 -58 -32 -25 c-34 -27 -42 -63 -19 -83 9 -7 109
-12 298 -13 l284 -3 0 -30 0 -30 -266 -3 -267 -2 -12 -30 c-7 -17 -19 -30 -26
-30 -8 0 -14 -9 -14 -20 0 -18 7 -20 58 -20 83 0 101 -23 57 -73 -21 -24 -27
-26 -45 -15 -11 7 -20 19 -20 26 0 12 -27 26 -76 38 -20 5 -26 2 -31 -15 -3
-11 -12 -21 -19 -21 -22 0 -54 -38 -54 -64 0 -15 7 -26 20 -29 11 -3 20 -10
20 -16 0 -6 -9 -11 -20 -11 -11 0 -20 -5 -20 -11 0 -6 9 -22 20 -36 12 -16 20
-41 20 -64 l0 -39 65 0 65 0 0 76 c0 68 -2 76 -20 81 -13 3 -20 12 -18 22 3
14 39 16 342 19 187 1 344 -2 348 -6 5 -5 6 -16 2 -25 -5 -14 -21 -17 -85 -17
l-79 0 0 -105 0 -105 -358 0 c-373 0 -382 -1 -382 -42 0 -11 -15 -28 -35 -39
-19 -11 -37 -28 -40 -38 -7 -24 4 -51 21 -51 8 0 14 -7 14 -15 0 -8 -9 -15
-20 -15 -11 0 -20 -4 -20 -8 0 -5 9 -17 20 -27 14 -13 20 -31 20 -62 l0 -43
55 0 55 0 0 65 c0 49 -4 67 -15 71 -8 4 -15 12 -15 20 0 11 49 14 273 16 l272
3 0 50 c0 44 3 50 23 53 13 2 25 -3 28 -12 5 -13 23 -16 85 -16 l79 0 0 -30
c0 -28 -1 -29 -57 -32 l-58 -3 -3 -125 c-4 -151 2 -186 28 -193 44 -11 17 -44
-51 -61 -62 -16 -82 -8 -77 33 2 19 10 27 26 29 19 3 23 8 18 25 -3 12 -6 28
-6 35 0 17 -710 18 -728 0 -7 -7 -12 -23 -12 -36 0 -17 -9 -27 -34 -37 -61
-26 -87 -92 -46 -117 26 -16 26 -38 1 -38 -31 0 -33 -15 -6 -40 22 -21 25 -32
25 -92 l0 -68 70 0 70 0 0 99 c0 90 -2 99 -20 104 -11 3 -20 12 -20 21 0 14
26 16 228 17 125 0 309 2 410 4 l182 4 0 -30 c0 -28 -1 -29 -50 -29 l-50 0 0
-164 c0 -164 0 -165 25 -184 14 -11 25 -23 25 -26 0 -3 -22 -6 -50 -6 -43 0
-54 -4 -77 -30 -40 -46 -83 -35 -83 21 0 36 25 57 51 41 38 -24 50 -16 43 31
-3 23 -7 48 -10 55 -3 9 -93 12 -408 12 -222 0 -411 -3 -420 -6 -9 -3 -21 -24
-26 -45 -9 -31 -15 -39 -34 -39 -13 0 -35 -11 -50 -25 -36 -34 -37 -97 -1
-121 30 -19 25 -30 -15 -39 -38 -8 -38 -28 0 -57 28 -20 30 -26 30 -85 l0 -63
90 0 90 0 0 104 0 105 -27 3 c-17 2 -29 10 -31 21 -3 16 19 17 350 17 194 0
404 3 466 7 l112 6 0 -31 0 -32 -65 0 -65 0 2 -172 3 -173 32 -20 c49 -31 42
-45 -22 -45 -48 0 -59 -4 -79 -26 -17 -20 -28 -25 -44 -20 -51 17 -34 106 21
106 22 0 28 4 23 16 -3 9 -6 27 -6 40 l0 24 -479 0 -479 0 -7 -39 c-7 -44 -16
-54 -59 -68 -40 -13 -66 -49 -69 -98 -2 -36 1 -41 30 -55 44 -20 43 -46 -2
-54 -43 -8 -44 -17 -5 -49 27 -23 30 -32 30 -84 0 -105 -2 -103 108 -103 l95
0 -7 46 c-3 26 -6 78 -6 115 0 54 -3 69 -15 69 -14 0 -41 38 -33 46 3 2 239 5
526 7 l522 4 0 -33 0 -33 -56 -3 c-55 -3 -56 -3 -70 -43 -8 -25 -14 -83 -14
-152 0 -104 2 -113 25 -141 14 -17 25 -33 25 -36 0 -13 -76 33 -104 63 l-30
31 -542 0 c-591 0 -574 2 -574 -55 0 -19 -7 -25 -32 -30 -46 -9 -68 -28 -82
-69 -19 -55 -9 -97 25 -110 20 -7 29 -17 29 -33 0 -19 -7 -24 -40 -29 -51 -8
-54 -35 -5 -66 l35 -23 0 -118 0 -118 133 3 c72 2 131 6 130 11 -2 4 -3 79 -3
167 l0 160 -30 0 c-27 0 -30 3 -30 30 l0 30 583 0 c320 0 587 -4 594 -8 7 -4
10 -17 6 -30 -5 -20 -12 -22 -69 -22 l-64 0 0 -60 0 -60 51 0 50 0 -3 -32 c-3
-32 -5 -33 -50 -36 -27 -2 -48 -7 -48 -13 0 -5 -8 -17 -18 -27 -41 -41 -52
-67 -52 -124 l0 -58 -676 0 -675 0 -11 -30 c-6 -20 -22 -35 -43 -44 -51 -22
-69 -57 -66 -129 1 -22 8 -30 31 -38 21 -8 30 -17 30 -34 0 -19 -7 -24 -40
-29 -50 -8 -52 -26 -5 -62 l35 -26 0 -84 0 -84 115 0 115 0 0 129 0 130 -32 3
c-28 2 -34 8 -36 31 l-3 27 619 0 c595 0 620 1 636 19 11 12 14 21 7 26 -17
10 -13 60 7 78 24 22 45 21 65 -1 24 -26 21 -57 -6 -79 -36 -28 -23 -43 39
-43 53 0 54 0 54 -30 0 -29 -1 -29 -62 -32 l-63 -3 -7 -40 c-4 -22 -7 -97 -7
-167 l-1 -128 -794 0 -795 0 -3 -32 c-2 -26 -8 -33 -35 -40 -59 -15 -105 -99
-89 -163 4 -14 20 -31 40 -40 27 -13 32 -20 28 -40 -4 -21 -10 -25 -43 -25
-44 0 -53 -19 -19 -43 28 -19 70 -84 70 -107 0 -19 8 -20 134 -20 86 0 137 4
142 11 3 6 3 44 -1 84 -6 71 -8 74 -33 77 -21 2 -28 9 -30 31 l-3 27 260 0
c215 0 261 -2 261 -14 0 -7 -7 -19 -15 -26 -11 -9 -15 -35 -15 -101 l0 -89
115 0 115 0 0 85 0 85 -34 0 c-39 0 -50 11 -41 40 6 19 16 20 321 20 295 0
315 -1 312 -18 -2 -9 -18 -24 -35 -32 l-33 -15 0 -82 0 -83 94 0 95 0 3 98 c2
65 -1 104 -10 118 -6 11 -9 24 -5 27 3 4 53 7 110 7 l103 0 0 -35 0 -35 -55 0
-55 0 0 -110 0 -110 -25 0 c-67 0 -57 -129 15 -199 34 -33 39 -44 42 -91 3
-48 6 -55 28 -60 l25 -6 0 -314 0 -315 -949 -3 c-794 -2 -951 -4 -960 -16 -6
-8 -28 -19 -50 -26 -47 -15 -111 -71 -136 -120 -16 -32 -24 -75 -21 -122 1
-17 64 -18 1170 -18 965 0 1170 2 1180 13 7 10 12 169 13 528 l3 514 402 3
403 2 2 -527 3 -528 1170 0 1170 0 0 51 c-1 88 -83 190 -168 209 -16 4 -31 13
-34 21 -4 12 -148 14 -954 14 l-949 0 0 319 0 320 28 3 c25 3 27 6 30 58 3 47
8 60 37 90 42 43 55 77 55 140 l0 49 -37 3 -38 3 -5 105 -5 105 -51 3 c-43 2
-53 7 -57 23 -12 45 -2 49 119 49 90 0 114 -3 114 -14 0 -7 -7 -19 -15 -26
-13 -10 -15 -32 -13 -104 l3 -91 98 -3 97 -3 0 70 c0 38 3 76 6 85 5 12 0 16
-17 16 -34 0 -52 14 -47 36 3 18 19 19 311 22 185 1 307 -1 307 -7 0 -26 -15
-41 -46 -47 l-34 -6 0 -84 0 -85 113 3 112 3 6 85 c4 59 2 90 -6 100 -32 41
-37 40 229 40 l256 0 0 -30 c0 -27 -3 -30 -30 -30 l-30 0 0 -85 0 -85 139 0
139 0 5 28 c3 15 24 51 46 79 23 28 41 54 41 57 0 3 -15 6 -34 6 -18 0 -39 7
-46 15 -15 18 -6 45 15 45 48 0 72 88 40 150 -15 30 -61 60 -90 60 -11 0 -15
10 -15 35 l0 35 -790 0 -790 0 0 164 0 164 -31 6 c-17 3 -47 6 -65 6 -31 0
-34 3 -34 30 0 30 1 30 55 30 42 0 55 3 55 15 0 8 -9 15 -20 15 -20 0 -40 27
-40 54 0 8 11 28 24 43 l24 28 26 -24 c30 -28 34 -66 9 -93 -15 -17 -15 -18
10 -18 14 0 29 -5 32 -10 4 -6 215 -10 601 -10 l594 0 0 -30 c0 -28 -2 -30
-40 -30 l-40 0 0 -130 0 -130 54 0 c29 0 81 -3 115 -6 l61 -7 0 86 0 85 40 32
c43 34 52 60 21 60 -11 0 -26 3 -35 6 -19 7 -21 54 -3 54 43 0 63 94 29 136
-21 26 -54 44 -81 44 -15 0 -20 8 -23 33 l-3 32 -657 3 -658 2 0 58 c0 59 -15
93 -52 120 -10 7 -18 19 -18 27 0 9 -15 15 -47 17 -48 3 -48 3 -48 38 0 35 0
35 48 38 l47 3 0 54 0 54 -62 3 c-60 3 -63 4 -66 30 l-3 28 578 -3 578 -2 3
-22 c3 -17 -2 -22 -25 -25 l-28 -3 -3 -173 -2 -173 127 3 128 3 5 118 5 117
33 20 c32 20 42 47 20 54 -7 3 -26 7 -41 11 -22 4 -28 11 -25 28 2 12 14 27
27 33 32 16 41 32 41 73 0 43 -64 111 -104 111 -22 0 -26 4 -26 29 0 16 -6 34
-14 40 -10 9 -155 11 -553 9 l-539 -3 -40 -42 c-24 -25 -50 -43 -63 -43 -21 0
-21 1 6 42 37 56 45 178 17 268 l-19 59 -60 3 c-59 3 -60 3 -60 33 l0 30 118
0 c741 -1 917 -5 917 -20 0 -8 -9 -23 -20 -32 -18 -15 -20 -30 -20 -125 l0
-108 90 0 90 0 0 79 c0 78 0 79 35 105 40 31 44 46 13 46 -52 1 -66 49 -18 60
20 5 26 13 28 39 6 63 -31 114 -88 123 -19 2 -26 12 -35 45 -5 23 -12 44 -15
47 -3 3 -214 6 -468 8 -500 3 -472 6 -472 -52 0 -21 6 -29 25 -34 33 -8 48
-38 35 -71 -15 -38 -39 -43 -66 -12 -20 24 -30 27 -84 27 -47 0 -60 3 -60 15
0 8 6 15 14 15 7 0 25 9 40 21 l26 20 0 169 0 169 -62 3 c-52 2 -63 6 -66 22
-2 10 0 22 5 27 6 6 191 7 462 3 400 -6 451 -9 449 -23 -2 -8 -14 -18 -28 -21
-25 -6 -25 -7 -25 -110 l0 -105 80 0 80 0 3 60 c3 53 7 64 38 96 34 35 36 49
4 49 -10 0 -24 7 -31 16 -11 14 -10 18 5 30 10 7 23 15 29 17 17 5 12 65 -8
87 -10 11 -35 25 -55 31 -33 10 -39 17 -46 53 l-9 41 -420 0 -419 0 -8 -45
c-8 -47 3 -66 32 -54 34 15 54 9 64 -19 21 -58 -32 -89 -70 -42 -18 23 -32 29
-78 33 -31 2 -56 7 -56 9 0 3 11 18 24 34 26 30 39 122 35 244 -3 95 -3 95
-65 95 -54 0 -55 0 -52 28 l3 27 93 0 c618 -2 732 -5 732 -21 0 -9 -9 -18 -20
-21 -18 -5 -20 -14 -20 -104 l0 -99 70 0 70 0 0 70 c0 65 2 73 28 95 l27 23
-27 7 c-33 8 -38 40 -8 48 48 13 4 107 -51 107 -29 0 -32 5 -41 65 -3 20 -12
20 -396 23 l-392 2 0 125 0 125 -55 0 c-54 0 -55 0 -55 30 l0 30 71 0 c55 0
75 4 84 17 17 23 45 10 45 -21 0 -14 -4 -28 -10 -31 -5 -3 -10 -15 -10 -26 0
-18 10 -19 280 -19 273 0 280 0 280 -20 0 -11 -7 -20 -15 -20 -12 0 -15 -14
-15 -65 l0 -65 55 0 55 0 0 47 c0 34 6 53 22 70 l21 23 -21 0 c-26 0 -29 22
-6 40 26 22 13 63 -26 82 -24 12 -37 26 -40 45 l-5 28 -358 3 -357 2 0 105 0
105 -90 0 c-89 0 -90 0 -90 25 l0 25 347 -2 c327 -3 348 -4 351 -21 3 -12 -4
-20 -17 -24 -19 -5 -21 -13 -21 -79 l0 -74 65 0 65 0 0 50 c0 36 4 52 15 56 8
4 15 12 15 20 0 8 -7 14 -15 14 -8 0 -15 9 -15 20 0 11 7 20 15 20 39 0 22 75
-19 86 -13 3 -26 14 -29 25 -4 16 -9 18 -29 10 -12 -5 -35 -12 -50 -15 -19 -5
-28 -13 -28 -26 0 -28 -31 -26 -59 4 -13 13 -21 32 -19 43 3 15 14 18 71 21
71 3 79 10 48 39 -10 10 -22 28 -25 40 -7 22 -9 23 -243 25 -215 3 -237 5
-247 21 -9 15 -6 22 14 39 23 19 36 20 265 17 132 -2 246 0 253 4 22 15 13 49
-23 83 l-36 33 50 62 c58 72 113 178 137 264 16 60 33 335 20 335 -4 0 -24 -9
-46 -20 -50 -26 -52 -25 -39 8 20 51 48 72 100 72 30 0 53 6 63 16 24 23 20
71 -9 99 -35 36 -76 33 -124 -10 -21 -19 -41 -35 -44 -35 -5 0 18 125 28 153
4 9 17 17 29 17 38 0 66 28 66 65 0 39 -28 65 -71 65 -44 0 -59 -10 -81 -54
-27 -53 -26 -53 -42 -31 -9 13 -12 36 -9 75 5 53 3 58 -26 88 -86 86 -241 33
-241 -83 0 -49 25 -85 59 -85 34 0 101 -105 101 -158 0 -55 -28 -124 -67 -164
-62 -64 -91 -68 -451 -68 l-314 0 6 -31 c3 -17 6 -47 6 -65 0 -26 4 -34 18
-34 33 0 137 -57 179 -98 56 -55 91 -127 106 -217 l12 -75 115 0 c158 1 223
30 273 125 18 33 22 63 27 179 l5 138 35 29 35 30 3 -176 c3 -201 -4 -228 -77
-308 -69 -74 -120 -91 -294 -95 l-148 -4 -20 -41 c-12 -23 -32 -57 -46 -75
-14 -18 -23 -34 -22 -36 2 -1 19 -13 37 -25 43 -30 58 -59 40 -77 -11 -11 -23
-8 -74 17 -131 65 -391 64 -521 -2 -54 -27 -66 -30 -74 -18 -5 8 -9 19 -9 25
0 13 60 69 81 76 9 3 2 18 -24 48 -20 24 -42 58 -49 76 l-11 32 -146 4 c-130
4 -152 7 -201 29 -79 37 -115 71 -152 146 -32 66 -32 66 -36 249 -3 126 -1
184 6 184 6 0 24 -11 39 -24 28 -24 28 -26 33 -168 7 -167 22 -212 95 -276 58
-51 100 -62 232 -62 l110 0 5 65 c10 125 95 247 205 297 34 15 69 28 78 28 12
0 15 13 15 64 l0 65 -323 3 -323 3 -49 25 c-146 75 -157 294 -18 361 57 27 63
34 63 79 0 99 -115 161 -209 112z m1053 -1498 c3 -9 6 -51 6 -94 0 -42 3 -92
6 -109 l7 -31 108 0 c84 0 111 -3 123 -16 9 -8 16 -19 16 -23 0 -29 -31 -31
-397 -31 l-373 0 -6 25 c-4 14 -3 29 1 33 3 4 60 8 125 10 l118 4 7 96 c3 53
9 109 11 125 l6 27 118 0 c98 0 119 -3 124 -16z m-484 -29 l0 -25 -186 0
c-176 0 -187 -1 -203 -21 l-16 -20 -24 24 c-16 18 -21 32 -16 46 6 20 12 21
226 21 l219 0 0 -25z m1142 8 c5 -23 -11 -60 -29 -67 -7 -3 -21 3 -30 14 -16
19 -30 20 -195 20 l-178 0 0 25 0 25 214 0 c196 0 215 -1 218 -17z m-592 -426
c0 -35 3 -105 6 -155 l7 -91 105 -3 c110 -3 134 -13 119 -52 -6 -15 -45 -16
-439 -14 -391 3 -433 5 -436 19 -7 37 25 49 128 49 111 0 110 -1 110 95 0 28
3 87 7 133 l6 82 193 0 194 0 0 -63z m-1280 -36 c0 -28 -28 -47 -48 -34 -24
15 -27 44 -7 59 22 17 55 1 55 -25z m155 -1 c0 -38 -24 -52 -50 -30 -31 25 -9
73 30 68 16 -2 20 -11 20 -38z m175 21 c18 -34 -10 -68 -45 -55 -18 7 -20 60
-2 67 24 10 36 7 47 -12z m1550 0 c12 -23 5 -47 -17 -55 -33 -13 -57 36 -31
62 18 18 36 15 48 -7z m180 0 c18 -34 -10 -68 -44 -55 -35 13 -23 74 14 74 11
0 24 -9 30 -19z m158 7 c30 -30 -11 -85 -44 -57 -25 21 -11 69 21 69 6 0 16
-5 23 -12z m-2332 -409 c23 -25 9 -53 -29 -57 -31 -4 -44 26 -25 57 16 26 30
26 54 0z m204 2 c23 -44 4 -69 -45 -57 -18 5 -25 13 -25 29 0 45 50 65 70 28z
m206 -2 c24 -27 8 -54 -32 -54 -23 0 -30 5 -32 23 -4 25 13 52 33 52 6 0 20
-9 31 -21z m1037 -149 c4 -91 10 -171 12 -177 3 -9 35 -13 114 -13 93 0 110
-2 115 -17 16 -41 2 -42 -494 -44 -416 -1 -476 1 -484 14 -7 10 -6 20 3 31 11
13 35 16 117 16 56 0 105 4 108 9 4 5 8 58 11 118 3 59 8 136 11 171 l6 62
236 -2 237 -3 8 -165z m595 158 c17 -17 15 -55 -4 -62 -49 -19 -85 13 -58 52
17 24 44 28 62 10z m207 -1 c13 -10 16 -21 11 -40 -5 -22 -12 -27 -37 -27 -35
0 -46 21 -31 56 13 27 30 30 57 11z m199 -6 c28 -31 17 -56 -24 -56 -29 0 -36
4 -38 23 -4 25 13 52 33 52 6 0 20 -9 29 -19z m-598 -5 c19 -14 18 -15 -6 -41
-17 -18 -30 -24 -45 -20 -11 4 -36 10 -55 14 -26 4 -36 12 -38 28 -3 19 2 22
35 26 76 8 90 7 109 -7z m-382 -518 c3 -18 9 -105 13 -193 l8 -160 124 -5
c101 -4 126 -8 134 -22 8 -12 7 -21 -2 -32 -12 -15 -70 -16 -550 -14 l-536 3
0 30 0 30 126 3 126 3 7 91 c3 50 6 117 6 148 0 32 3 78 6 104 l7 46 263 0
263 0 5 -32z m-1588 -22 c7 -29 -11 -66 -32 -66 -52 0 -70 47 -33 86 26 27 55
18 65 -20z m426 27 c41 -37 5 -103 -46 -84 -33 13 -34 46 -4 78 26 27 26 28
50 6z m1854 -26 c7 -22 -21 -67 -41 -67 -17 0 -55 35 -55 50 0 6 11 22 25 36
21 21 27 23 45 12 11 -7 23 -21 26 -31z m206 26 c22 -20 23 -51 1 -75 -20 -22
-31 -23 -55 -1 -22 20 -23 42 -2 71 18 26 31 28 56 5z m-2277 -13 c38 -42 -14
-102 -56 -64 -23 21 -24 42 -2 66 21 23 36 23 58 -2z m2495 0 c11 -11 20 -25
20 -31 0 -24 -22 -49 -43 -49 -45 0 -62 46 -30 82 21 23 28 23 53 -2z m-2600
-576 c0 -12 -7 -30 -16 -38 -33 -33 -94 -9 -94 37 0 11 12 34 27 49 l27 28 28
-27 c15 -15 28 -37 28 -49z m270 -3 c0 -45 -63 -68 -92 -33 -29 33 -28 41 4
78 l32 36 28 -31 c15 -17 28 -40 28 -50z m1984 35 c20 -32 20 -45 -1 -68 -20
-22 -61 -23 -85 -1 -25 23 -23 48 9 82 31 33 48 30 77 -13z m546 -32 c0 -31
-26 -54 -59 -54 -56 0 -69 55 -24 102 l27 28 28 -27 c15 -15 28 -37 28 -49z
m-3086 36 c49 -59 -19 -125 -76 -73 -23 21 -23 38 3 74 26 37 41 37 73 -1z
m2798 3 c32 -31 35 -49 11 -75 -30 -33 -103 -12 -103 31 0 14 47 71 59 71 3 0
18 -12 33 -27z m-998 -80 c3 -54 9 -151 12 -215 l6 -118 127 0 c130 0 151 -6
151 -41 0 -9 -7 -20 -16 -23 -9 -3 -274 -6 -589 -6 -557 0 -575 1 -585 19 -7
15 -6 23 6 35 12 13 40 16 144 16 l128 0 6 138 c4 75 9 172 12 215 l6 77 293
0 293 0 6 -97z m30 -588 c3 -44 8 -164 12 -267 l6 -188 132 0 c89 0 136 -4
144 -12 15 -15 15 -45 0 -54 -6 -4 -291 -6 -632 -5 -612 2 -635 4 -636 33 0 4
7 14 16 22 12 13 41 16 149 16 l133 0 6 148 c3 81 9 201 12 267 l6 120 323 0
323 0 6 -80z m-1981 35 c29 -34 26 -64 -9 -87 -22 -14 -26 -14 -49 1 -14 9
-25 24 -25 33 0 19 38 83 50 83 4 0 19 -13 33 -30z m311 0 c35 -42 17 -90 -33
-90 -53 0 -69 54 -29 97 28 29 31 29 62 -7z m265 4 c25 -32 26 -51 4 -76 -20
-22 -51 -23 -75 -1 -23 21 -23 38 3 74 25 36 42 37 68 3z m320 0 c25 -32 27
-57 5 -78 -33 -33 -94 -12 -94 33 0 12 49 71 60 71 5 0 18 -12 29 -26z m1585
-5 c30 -36 31 -38 10 -67 -35 -50 -114 -11 -93 46 9 24 36 51 51 52 3 0 18
-14 32 -31z m311 6 c43 -42 26 -95 -30 -95 -54 0 -71 46 -34 94 25 32 33 32
64 1z m262 3 c25 -23 30 -67 11 -86 -7 -7 -24 -12 -38 -12 -52 0 -68 55 -28
97 26 28 26 28 55 1z m302 -7 c25 -35 26 -54 5 -75 -31 -32 -94 -15 -94 25 0
19 46 79 60 79 5 0 18 -13 29 -29z m-1338 -851 c3 -96 6 -176 7 -177 1 -2 64
-3 141 -3 149 0 166 -5 159 -52 l-3 -23 -672 -3 -673 -2 -6 25 c-12 49 5 55
162 55 l144 0 0 73 c0 41 3 122 7 181 l6 106 361 -2 361 -3 6 -175z m-2279
114 c8 -18 8 -31 0 -50 -10 -21 -18 -25 -50 -22 -33 3 -37 6 -40 34 -2 19 5
40 18 57 18 22 25 25 41 16 11 -5 25 -21 31 -35z m272 13 c19 -26 19 -30 5
-55 -18 -33 -54 -40 -80 -16 -24 22 -24 39 2 75 25 35 44 34 73 -4z m243 11
c42 -39 23 -98 -31 -98 -20 0 -46 28 -46 49 0 18 36 71 48 71 3 0 16 -10 29
-22z m421 -37 c4 -39 -12 -61 -44 -61 -20 0 -54 32 -54 51 0 4 12 21 26 39 24
28 28 30 48 17 12 -9 22 -27 24 -46z m2029 37 c27 -25 30 -60 7 -82 -30 -30
-84 -9 -84 33 0 18 36 71 48 71 3 0 16 -10 29 -22z m383 0 c22 -24 26 -68 8
-86 -22 -22 -64 -14 -77 14 -10 22 -8 31 10 60 24 40 31 41 59 12z m253 -16
c18 -30 18 -34 2 -58 -21 -33 -63 -30 -84 7 -13 24 -13 29 8 58 28 39 49 37
74 -7z m256 9 c12 -16 21 -35 21 -42 0 -21 -32 -49 -56 -49 -20 0 -54 32 -54
51 0 11 51 69 60 69 5 0 18 -13 29 -29z m-1278 -497 c9 -11 10 -20 2 -32 -9
-16 -68 -17 -659 -22 -357 -3 -654 -4 -661 -2 -18 5 -24 31 -13 53 10 18 29
19 664 19 584 0 655 -2 667 -16z m449 -199 c0 -6 -7 -21 -16 -33 -18 -26 -60
-29 -86 -5 -26 24 -22 50 13 86 l32 31 28 -34 c16 -19 29 -39 29 -45z m388 -9
c-2 -10 -14 -28 -29 -38 -33 -25 -75 -11 -85 27 -5 21 0 33 27 61 l34 35 28
-33 c15 -18 26 -42 25 -52z m322 10 c0 -26 -28 -56 -52 -56 -60 0 -75 48 -32
100 l27 31 28 -27 c16 -15 29 -37 29 -48z m320 -5 c0 -28 -27 -51 -59 -51 -56
0 -68 49 -24 100 l27 32 28 -31 c15 -17 28 -40 28 -50z m-4227 37 c30 -40 15
-82 -31 -86 -41 -4 -62 12 -62 46 0 30 37 74 58 70 8 -2 24 -15 35 -30z m326
10 c31 -32 35 -57 15 -79 -26 -28 -74 -22 -93 12 -14 24 -13 29 10 57 29 37
42 39 68 10z m333 -5 c33 -31 35 -53 9 -77 -28 -25 -72 -17 -90 16 -15 26 -14
29 14 58 16 16 31 30 34 30 3 0 18 -12 33 -27z m397 1 c36 -46 23 -94 -27 -94
-36 0 -62 18 -62 44 0 27 35 76 55 76 7 0 23 -12 34 -26z m294 -6 c36 -49 -10
-96 -69 -69 -31 14 -31 45 1 77 29 29 41 28 68 -8z m1525 12 c47 -44 11 -102
-52 -86 -21 5 -26 13 -26 36 0 28 29 70 48 70 5 0 18 -9 30 -20z m-404 -52 c3
-29 6 -133 6 -230 l0 -178 109 0 c85 0 113 -3 125 -15 18 -18 11 -41 -15 -55
-25 -14 -1214 -13 -1240 0 -23 13 -24 33 -3 54 12 13 38 16 120 16 l104 0 0
153 c0 85 3 188 6 230 l7 77 387 0 387 0 7 -52z"/>
<path d="M5020 6896 l0 -76 45 0 46 0 -3 73 -3 72 -42 3 -43 3 0 -75z"/>
<path d="M5000 6465 l0 -105 65 0 66 0 -3 103 -3 102 -62 3 -63 3 0 -106z"/>
<path d="M4990 6096 c-1 0 -2 -55 -3 -121 l-2 -120 78 -3 77 -3 0 123 0 123
-75 1 c-41 1 -75 1 -75 0z"/>
<path d="M4980 5440 l0 -130 85 0 85 0 0 130 0 130 -85 0 -85 0 0 -130z"/>
<path d="M4980 4865 l0 -155 85 0 86 0 -3 153 -3 152 -82 3 -83 3 0 -156z"/>
<path d="M4980 4195 l0 -195 85 0 85 0 0 195 0 195 -85 0 -85 0 0 -195z"/>
<path d="M4980 3560 l0 -100 85 0 85 0 0 100 0 100 -85 0 -85 0 0 -100z"/>
<path d="M4978 2810 l3 -150 85 0 84 0 0 150 0 150 -87 0 -88 0 3 -150z"/>
<path d="M5022 8355 c-32 -23 -72 -97 -72 -133 0 -31 8 -41 65 -87 15 -13 17
-18 6 -22 -25 -10 -52 -44 -49 -61 3 -13 17 -18 68 -20 116 -5 137 14 78 71
-22 20 -29 32 -20 35 7 2 26 15 42 29 50 42 41 101 -28 176 -29 30 -57 34 -90
12z"/>
<path d="M4413 8309 c-31 -37 -43 -60 -43 -84 0 -36 30 -80 60 -90 22 -7 27
-25 7 -25 -19 0 -57 -43 -57 -63 0 -14 11 -17 69 -17 38 0 76 3 84 6 21 8 10
40 -22 65 -25 20 -25 22 -7 33 42 24 56 46 56 86 0 32 -8 49 -42 89 -24 27
-47 50 -53 50 -5 0 -29 -22 -52 -50z"/>
<path d="M4703 8309 c-35 -40 -43 -57 -43 -89 0 -33 6 -44 35 -67 l34 -28 -30
-27 c-17 -16 -29 -36 -27 -46 3 -14 15 -17 83 -17 68 0 80 3 83 18 2 10 -10
30 -28 47 l-31 29 25 16 c36 24 49 69 31 108 -11 27 -80 109 -88 106 -1 0 -21
-23 -44 -50z"/>
<path d="M5313 8310 c-36 -40 -43 -55 -43 -89 0 -41 13 -61 56 -88 18 -11 18
-13 2 -23 -31 -19 -49 -42 -46 -59 3 -13 18 -17 72 -19 38 -2 75 -1 82 2 21 8
-3 64 -35 80 l-26 14 26 11 c51 19 73 76 47 124 -11 21 -82 97 -89 97 -2 -1
-23 -23 -46 -50z"/>
<path d="M5616 8316 c-22 -23 -44 -55 -49 -70 -13 -39 8 -83 51 -105 l36 -18
-29 -14 c-34 -17 -50 -41 -42 -63 5 -13 21 -16 82 -16 73 0 75 1 75 24 0 16
-12 34 -32 49 l-31 25 31 16 c67 34 68 84 6 160 -25 31 -48 56 -52 55 -4 -1
-25 -20 -46 -43z"/>
<path d="M4954 7742 c-59 -28 -109 -76 -136 -130 -30 -62 -32 -198 -4 -252 53
-102 69 -120 108 -120 56 0 64 6 60 45 -3 26 2 40 22 59 52 52 136 17 136 -57
0 -31 4 -35 31 -41 50 -10 53 -8 90 42 51 68 69 121 69 200 -1 105 -47 186
-137 239 -62 36 -178 43 -239 15z m165 -98 c42 -53 16 -120 -49 -130 -76 -12
-121 76 -68 133 31 33 90 32 117 -3z"/>
<path d="M4157 6873 c-4 -3 -7 -37 -7 -75 l0 -68 65 0 65 0 0 75 0 75 -58 0
c-32 0 -62 -3 -65 -7z"/>
<path d="M4350 6805 l0 -75 80 0 80 0 0 75 0 75 -80 0 -80 0 0 -75z"/>
<path d="M5620 6805 l0 -75 80 0 81 0 -3 73 -3 72 -77 3 -78 3 0 -76z"/>
<path d="M5840 6805 l0 -75 65 0 65 0 0 75 0 75 -65 0 -65 0 0 -75z"/>
<path d="M3977 6453 c-2 -4 -5 -34 -6 -65 l-2 -58 56 0 56 0 -3 63 -3 62 -47
3 c-25 2 -48 -1 -51 -5z"/>
<path d="M4140 6395 l0 -65 55 0 55 0 0 65 0 65 -55 0 -55 0 0 -65z"/>
<path d="M4320 6395 l0 -65 60 0 60 0 0 65 0 65 -60 0 -60 0 0 -65z"/>
<path d="M5690 6395 l0 -65 50 0 50 0 0 65 0 65 -50 0 -50 0 0 -65z"/>
<path d="M5860 6395 l0 -65 55 0 55 0 0 65 0 65 -55 0 -55 0 0 -65z"/>
<path d="M6040 6395 l0 -65 55 0 55 0 0 65 0 65 -55 0 -55 0 0 -65z"/>
<path d="M3874 6021 c-2 -2 -4 -46 -4 -98 l0 -93 65 0 65 0 0 94 0 94 -61 4
c-33 1 -63 1 -65 -1z"/>
<path d="M4085 6021 c-3 -2 -5 -46 -5 -98 l0 -93 65 0 65 0 0 95 c0 84 -2 95
-17 96 -10 0 -37 1 -61 3 -24 1 -45 0 -47 -3z"/>
<path d="M6134 6021 c-2 -2 -4 -46 -4 -98 l0 -93 65 0 66 0 -3 98 -3 97 -58 0
c-32 0 -60 -2 -63 -4z"/>
<path d="M4280 5925 l0 -95 60 0 60 0 0 95 0 95 -60 0 -60 0 0 -95z"/>
<path d="M5730 5925 l0 -95 60 0 60 0 0 95 0 95 -60 0 -60 0 0 -95z"/>
<path d="M5920 5925 l0 -95 70 0 70 0 0 95 0 95 -70 0 -70 0 0 -95z"/>
<path d="M3747 5493 c-4 -3 -7 -51 -7 -105 l0 -98 69 0 68 0 6 98 c2 53 3 100
0 105 -5 9 -127 10 -136 0z"/>
<path d="M3965 5490 c-3 -5 -5 -53 -4 -105 l2 -95 73 0 74 0 0 105 0 105 -69
0 c-39 0 -73 -4 -76 -10z"/>
<path d="M4189 5496 c-2 -2 -3 -50 -1 -105 l3 -101 65 0 64 0 0 105 0 105 -63
0 c-35 0 -66 -2 -68 -4z"/>
<path d="M5817 5494 c-4 -4 -7 -52 -7 -106 l0 -98 65 0 66 0 -3 103 -3 102
-55 3 c-31 2 -59 0 -63 -4z"/>
<path d="M6017 5493 c-4 -3 -7 -51 -7 -105 l0 -98 75 0 75 0 0 105 0 105 -68
0 c-38 0 -72 -3 -75 -7z"/>
<path d="M6247 5493 c-4 -3 -7 -51 -7 -105 l0 -98 69 0 68 0 6 97 c3 53 3 101
1 105 -6 10 -128 11 -137 1z"/>
<path d="M3570 4780 l0 -110 90 0 90 0 0 110 0 110 -90 0 -90 0 0 -110z"/>
<path d="M3840 4780 l0 -110 90 0 90 0 0 110 0 110 -90 0 -90 0 0 -110z"/>
<path d="M4100 4780 l0 -110 75 0 75 0 0 78 c1 48 6 86 15 102 8 14 14 28 15
33 0 4 -40 7 -90 7 l-90 0 0 -110z"/>
<path d="M5850 4881 c0 -5 7 -22 15 -37 9 -18 15 -57 15 -101 l0 -73 70 0 70
0 0 110 0 110 -85 0 c-47 0 -85 -4 -85 -9z"/>
<path d="M6110 4780 l0 -110 90 0 90 0 0 110 0 110 -90 0 -90 0 0 -110z"/>
<path d="M6374 4875 c-4 -9 -3 -58 1 -110 l7 -95 84 0 84 0 0 110 0 110 -85 0
c-68 0 -87 -3 -91 -15z"/>
<path d="M3425 4245 l0 -55 113 0 112 0 0 55 0 55 -112 0 -113 0 0 -55z"/>
<path d="M3742 4244 l3 -55 78 -2 77 -2 0 58 0 57 -80 0 -81 0 3 -56z"/>
<path d="M4000 4245 l0 -55 115 0 115 0 0 55 0 55 -115 0 -115 0 0 -55z"/>
<path d="M5900 4245 l0 -55 83 0 c45 0 99 -3 120 -6 l37 -7 0 62 0 61 -120 0
-120 0 0 -55z"/>
<path d="M6230 4245 l0 -55 80 0 80 0 0 55 0 55 -80 0 -80 0 0 -55z"/>
<path d="M6480 4243 l0 -58 103 1 102 1 3 56 3 57 -106 0 -105 0 0 -57z"/>
<path d="M3420 4040 l0 -80 121 0 c106 0 120 2 115 16 -3 9 -6 45 -6 80 l0 64
-115 0 -115 0 0 -80z"/>
<path d="M3740 4040 l0 -80 78 0 c43 0 81 2 83 4 2 2 3 38 1 80 l-4 76 -79 0
-79 0 0 -80z"/>
<path d="M3994 4106 c-3 -7 -4 -42 -2 -77 l3 -64 93 -3 92 -3 0 33 c0 18 11
51 25 73 13 22 25 43 25 48 0 4 -52 7 -115 7 -88 0 -117 -3 -121 -14z"/>
<path d="M5900 4101 c0 -10 8 -29 19 -42 10 -13 21 -41 25 -61 l7 -38 101 0
101 0 -7 38 c-3 20 -6 56 -6 80 l0 42 -120 0 c-110 0 -120 -1 -120 -19z"/>
<path d="M6230 4040 l0 -80 80 0 80 0 0 80 0 80 -80 0 -80 0 0 -80z"/>
<path d="M6480 4040 l0 -80 105 0 105 0 0 80 0 80 -105 0 -105 0 0 -80z"/>
<path d="M3150 3460 l0 -130 95 0 95 0 0 130 0 130 -95 0 -95 0 0 -130z"/>
<path d="M3430 3460 l0 -130 85 0 85 0 0 130 0 130 -85 0 -85 0 0 -130z"/>
<path d="M3690 3460 l0 -130 150 0 150 0 0 130 0 130 -150 0 -150 0 0 -130z"/>
<path d="M4087 3583 c-4 -3 -7 -62 -7 -130 l0 -123 60 0 60 0 0 130 0 130 -53
0 c-30 0 -57 -3 -60 -7z"/>
<path d="M5940 3461 l0 -131 55 0 56 0 -3 128 -3 127 -52 3 -53 3 0 -130z"/>
<path d="M6140 3460 l0 -130 140 0 140 0 0 130 0 130 -140 0 -140 0 0 -130z"/>
<path d="M6510 3460 l0 -130 80 0 80 0 0 130 0 130 -80 0 -80 0 0 -130z"/>
<path d="M6760 3460 l0 -130 85 0 85 0 0 130 0 130 -85 0 -85 0 0 -130z"/>
<path d="M2994 2897 c-3 -8 -4 -45 -2 -83 l3 -69 119 0 118 0 0 80 0 80 -116
3 c-92 2 -118 0 -122 -11z"/>
<path d="M3656 2902 c-2 -4 -3 -41 -1 -82 l4 -75 151 -3 151 -3 -3 83 -3 83
-147 3 c-80 1 -149 -1 -152 -6z"/>
<path d="M6165 2835 c-5 -46 -4 -80 2 -86 5 -5 70 -8 149 -7 l139 3 0 80 0 80
-142 3 -141 3 -7 -76z"/>
<path d="M6874 2897 c-3 -8 -4 -45 -2 -83 l3 -69 118 -3 117 -3 0 86 0 85
-115 0 c-88 0 -117 -3 -121 -13z"/>
<path d="M2567 2663 c-4 -3 -7 -19 -7 -35 0 -22 -5 -28 -21 -28 -12 0 -36 -15
-55 -34 -31 -31 -34 -40 -34 -90 0 -47 4 -61 25 -81 13 -14 29 -25 34 -25 6 0
17 -13 25 -29 l16 -29 875 -1 875 -1 0 74 c0 68 -2 75 -25 90 -14 9 -39 35
-55 58 -24 32 -30 52 -30 90 l0 48 -808 0 c-445 0 -812 -3 -815 -7z m763 -180
c0 -25 -34 -53 -66 -53 -26 0 -74 36 -74 56 0 8 17 32 37 55 l37 41 32 -39
c19 -21 33 -48 34 -60z m320 7 c0 -21 -49 -60 -75 -60 -30 0 -65 32 -65 60 0
10 14 36 32 56 l32 36 38 -41 c21 -22 38 -45 38 -51z m450 3 c0 -29 -33 -63
-63 -63 -33 0 -67 28 -67 55 0 13 14 40 31 60 l32 36 33 -32 c19 -19 34 -43
34 -56z m-1264 43 c19 -19 34 -39 34 -45 0 -21 -48 -61 -72 -61 -34 0 -68 27
-68 55 0 24 44 85 62 85 5 0 25 -15 44 -34z"/>
<path d="M5940 2620 c0 -47 -3 -53 -60 -113 l-60 -65 0 -78 c0 -61 3 -75 12
-66 9 9 216 12 871 12 849 0 859 0 864 20 3 11 21 30 40 41 42 26 67 78 57
123 -9 45 -49 93 -83 101 -24 5 -30 12 -33 38 l-3 32 -802 3 -803 2 0 -50z
m230 -131 c0 -29 -50 -61 -84 -55 -65 13 -74 55 -24 111 l31 36 39 -37 c21
-21 38 -46 38 -55z m450 2 c0 -23 -44 -61 -71 -61 -10 0 -30 11 -45 24 -26 22
-27 25 -14 55 7 17 24 41 39 52 l26 21 32 -36 c18 -20 33 -44 33 -55z m277 47
c18 -18 33 -40 33 -49 0 -21 -45 -59 -70 -59 -25 0 -70 38 -70 60 0 18 51 80
66 80 4 0 23 -14 41 -32z m457 1 c33 -39 33 -72 1 -93 -31 -20 -54 -20 -83 0
-30 21 -28 61 5 96 34 36 45 35 77 -3z"/>
<path d="M3638 2244 c-5 -4 -8 -27 -8 -51 l0 -43 175 0 175 0 0 45 0 45 -78 0
c-44 0 -119 3 -168 6 -49 4 -92 3 -96 -2z"/>
<path d="M4990 1830 l0 -421 73 3 72 3 3 418 2 417 -75 0 -75 0 0 -420z"/>
<path d="M7383 2242 c-20 -3 -23 -9 -23 -48 l0 -44 106 0 105 0 -3 47 -3 47
-80 1 c-44 0 -90 -1 -102 -3z"/>
<path d="M2542 2198 l3 -43 98 -3 97 -3 0 46 0 45 -101 0 -100 0 3 -42z"/>
<path d="M2840 2195 l0 -45 190 0 190 0 0 45 0 45 -190 0 -190 0 0 -45z"/>
<path d="M3310 2195 l0 -45 110 0 110 0 0 45 0 45 -110 0 -110 0 0 -45z"/>
<path d="M4080 2195 l0 -45 125 0 125 0 0 45 0 45 -125 0 -125 0 0 -45z"/>
<path d="M5800 2189 l0 -52 77 7 c42 3 98 6 125 6 l48 0 0 45 0 45 -125 0
-125 0 0 -51z"/>
<path d="M6150 2195 l0 -45 175 0 175 0 0 29 c0 62 4 61 -181 61 l-169 0 0
-45z"/>
<path d="M6590 2195 l0 -45 110 0 110 0 0 45 0 45 -110 0 -110 0 0 -45z"/>
<path d="M6900 2195 l0 -45 185 0 185 0 0 45 0 45 -185 0 -185 0 0 -45z"/>
<path d="M2540 1935 l0 -145 100 0 100 0 0 145 0 145 -100 0 -100 0 0 -145z"/>
<path d="M2840 1997 c0 -46 -3 -112 -6 -146 l-7 -61 197 0 197 0 -3 143 -3
142 -187 3 -188 2 0 -83z"/>
<path d="M3310 1935 l0 -145 110 0 110 0 0 145 0 145 -110 0 -110 0 0 -145z"/>
<path d="M3627 2073 c-4 -3 -7 -69 -7 -145 l0 -138 186 0 187 0 -7 38 c-3 20
-6 85 -6 145 l0 107 -173 0 c-96 0 -177 -3 -180 -7z"/>
<path d="M4080 1935 l0 -145 125 0 125 0 0 145 0 145 -125 0 -125 0 0 -145z"/>
<path d="M5800 1935 l0 -145 125 0 126 0 -3 143 -3 142 -122 3 -123 3 0 -146z"/>
<path d="M6147 2073 c-4 -3 -7 -69 -7 -145 l0 -138 175 0 175 0 0 145 0 145
-168 0 c-93 0 -172 -3 -175 -7z"/>
<path d="M6597 2073 c-4 -3 -7 -69 -7 -145 l0 -138 110 0 110 0 0 145 0 145
-103 0 c-57 0 -107 -3 -110 -7z"/>
<path d="M6900 1935 l0 -145 183 0 182 0 0 143 0 142 -182 3 -183 2 0 -145z"/>
<path d="M7360 1935 l0 -145 100 0 100 0 0 135 c0 74 1 138 3 143 1 4 -44 8
-100 10 l-103 3 0 -146z"/>
</g>
</svg>
