<?xml version="1.0" standalone="no"?>
<!DOCTYPE svg PUBLIC "-//W3C//DTD SVG 20010904//EN"
 "http://www.w3.org/TR/2001/REC-SVG-20010904/DTD/svg10.dtd">
<svg version="1.0" xmlns="http://www.w3.org/2000/svg"
 width="1024.000000pt" height="1024.000000pt" viewBox="0 0 1024.000000 1024.000000"
 preserveAspectRatio="xMidYMid meet">

<g transform="translate(0.000000,1024.000000) scale(0.100000,-0.100000)"
fill="#000000" stroke="none">
<path d="M4986 8995 c-53 -19 -95 -62 -108 -111 -11 -39 -13 -41 -78 -57 -152
-40 -351 -165 -441 -279 l-42 -53 372 -3 c205 -1 538 -1 739 0 l367 3 -64 68
c-118 123 -231 195 -399 252 -92 31 -97 35 -103 65 -10 47 -39 82 -89 108 -50
25 -97 27 -154 7z"/>
<path d="M3822 8478 c-8 -8 -12 -46 -12 -105 l0 -92 -399 -3 c-376 -3 -400 -4
-420 -22 -21 -19 -21 -24 -21 -471 l0 -453 -272 -8 -272 -9 -13 -25 c-9 -17
-13 -79 -13 -197 0 -170 0 -172 -22 -175 -23 -3 -23 -4 -26 -200 l-2 -198
2705 0 2705 0 0 200 0 200 -30 0 -30 0 0 179 c0 161 -2 181 -19 202 l-19 24
-261 0 -260 0 -3 458 -3 459 -24 19 c-22 18 -44 19 -417 19 l-394 0 0 86 c0
130 8 124 -179 124 -187 0 -191 -2 -191 -93 l0 -57 -880 0 -880 0 0 56 c0 96
3 94 -178 94 -110 0 -162 -4 -170 -12z m1398 -399 c30 -14 78 -45 107 -67 l52
-42 221 0 220 0 0 -210 0 -210 -770 0 -770 0 2 212 3 212 230 -3 230 -2 30 31
c74 78 165 111 295 107 77 -2 105 -8 150 -28z m-1218 -145 c95 -66 122 -193
63 -290 -62 -101 -199 -134 -294 -71 -142 94 -129 307 24 379 61 29 152 21
207 -18z m2340 0 c142 -98 105 -333 -61 -383 -81 -24 -151 -2 -213 67 -77 85
-76 196 3 286 45 51 84 66 166 63 51 -2 71 -9 105 -33z m1086 -941 l3 -73
-2376 0 -2375 0 0 75 0 75 2373 -2 2372 -3 3 -72z"/>
<path d="M1939 6351 l-24 -20 35 -38 c19 -20 71 -76 116 -123 133 -140 216
-233 236 -265 17 -28 18 -70 18 -761 0 -641 -2 -733 -15 -738 -13 -4 -15 -34
-15 -176 l0 -170 -58 0 c-32 0 -63 -5 -70 -12 -7 -7 -12 -37 -12 -67 0 -55 0
-56 69 -126 l70 -70 3 -722 3 -722 -43 -3 -43 -3 -2 -350 -2 -350 -245 -5
c-135 -3 -252 -9 -261 -13 -19 -10 -39 -49 -39 -78 0 -29 31 -78 55 -87 11 -4
706 -6 1545 -4 l1525 3 23 25 c31 35 30 97 -3 129 -24 25 -25 25 -230 25
l-205 0 0 1204 0 1204 80 91 80 91 -45 55 c-41 50 -45 61 -45 108 0 107 46
222 135 335 85 109 196 184 322 216 78 20 231 21 307 1 236 -62 438 -293 462
-530 6 -60 6 -61 -41 -124 l-47 -63 24 -27 c13 -14 50 -54 81 -89 l57 -63 -2
-1202 -3 -1202 -173 -5 -174 -5 -24 -28 c-31 -37 -32 -86 -1 -119 l23 -25
1105 -6 c607 -3 1283 -3 1502 0 l398 6 20 25 c25 32 25 92 0 123 -19 24 -21
24 -268 29 l-248 5 -2 350 -2 350 -41 3 -40 3 0 719 0 718 73 78 c68 73 72 80
71 124 -1 76 -5 80 -79 80 l-65 0 0 175 c0 164 -1 175 -19 175 -18 0 -18 21
-14 733 5 729 5 732 26 763 12 17 103 115 202 218 99 102 181 193 183 201 2 9
-2 22 -8 30 -11 13 -415 15 -3115 15 -3048 0 -3103 0 -3126 -19z m1026 -216
l0 -80 -97 -3 -98 -3 0 86 0 86 98 -3 97 -3 0 -80z m535 0 l0 -85 -95 0 -95 0
0 85 0 85 95 0 95 0 0 -85z m690 0 l0 -86 -92 3 -93 3 -3 69 c-2 38 -1 75 2
83 4 9 29 13 96 13 l90 0 0 -85z m670 0 l0 -85 -95 0 -95 0 0 85 0 85 95 0 95
0 0 -85z m540 0 l0 -85 -95 0 -95 0 0 85 0 85 95 0 95 0 0 -85z m680 0 l0 -85
-95 0 -95 0 0 85 0 85 95 0 95 0 0 -85z m730 0 l0 -85 -100 0 -100 0 0 85 0
85 100 0 100 0 0 -85z m540 0 l0 -85 -100 0 -100 0 0 33 c0 17 3 56 6 85 l7
52 93 0 94 0 0 -85z m-3650 -1066 l0 -830 25 -37 c19 -28 25 -50 25 -89 l0
-53 -80 0 -80 0 -2 318 -3 317 -449 3 c-323 1 -453 -1 -462 -9 -11 -9 -14 -72
-14 -320 l0 -309 -80 0 -80 0 0 51 c0 35 7 63 21 85 20 34 21 40 19 869 l-1
835 581 0 580 0 0 -831z m2490 91 l0 -740 -195 0 -195 0 0 86 0 86 56 -4 56
-5 -7 66 c-33 323 -237 590 -549 715 -122 50 -184 59 -339 54 -110 -4 -146
-10 -216 -33 -96 -33 -217 -102 -299 -172 -164 -140 -279 -362 -294 -565 l-5
-58 49 0 48 0 0 -85 0 -85 -190 0 -190 0 0 740 0 740 1135 0 1135 0 0 -740z
m1376 -94 c-8 -833 -8 -833 13 -874 21 -41 27 -86 15 -116 -5 -13 -22 -16 -80
-16 l-74 0 -2 318 -3 317 -460 0 -460 0 0 -318 0 -317 -77 0 -78 0 0 53 c0 42
5 58 21 73 44 40 45 53 38 359 -4 160 -7 530 -8 823 l-1 532 581 0 582 0 -7
-834z m-4186 -791 l0 -215 -255 0 -255 0 0 215 0 215 255 0 255 0 0 -215z
m3850 0 l0 -215 -255 0 -255 0 0 215 0 215 255 0 255 0 0 -215z m-3127 -162
c4 -58 7 -639 7 -1290 l0 -1183 -75 0 -75 0 0 1084 0 1084 23 29 c50 61 59 84
61 152 l1 66 -42 3 -43 3 0 80 0 79 68 0 69 0 6 -107z m2047 27 l0 -80 -40 0
-40 0 0 -68 c0 -63 3 -74 40 -131 l40 -62 0 -1079 0 -1080 -70 0 -70 0 0 1290
0 1290 70 0 70 0 0 -80z m-3490 -1125 l0 -675 -75 0 -75 0 0 675 0 675 75 0
75 0 0 -675z m720 0 l0 -675 -255 0 -255 0 0 675 0 675 255 0 255 0 0 -675z
m368 -2 l2 -673 -80 0 -80 0 0 668 c0 368 3 672 7 676 4 4 39 5 78 4 l70 -3 3
-672z m2762 2 l0 -675 -75 0 -75 0 0 675 0 675 75 0 75 0 0 -675z m720 0 l0
-675 -255 0 -255 0 0 668 c0 368 3 672 7 675 3 4 118 7 255 7 l248 0 0 -675z
m360 0 l0 -675 -75 0 -75 0 0 675 0 675 75 0 75 0 0 -675z m-4930 -1130 l0
-245 -75 0 -75 0 0 245 0 245 75 0 75 0 0 -245z m720 155 l0 -90 -255 0 -255
0 0 90 0 90 255 0 255 0 0 -90z m370 -155 l0 -245 -80 0 -80 0 0 238 c0 131 3
242 7 245 3 4 39 7 80 7 l73 0 0 -245z m2760 0 l0 -245 -75 0 -75 0 0 245 0
245 75 0 75 0 0 -245z m720 155 l0 -90 -256 0 -257 0 7 38 c3 20 6 61 6 90 l0
52 250 0 250 0 0 -90z m360 -155 l0 -245 -75 0 -75 0 0 245 0 245 75 0 75 0 0
-245z"/>
<path d="M3020 5701 c-130 -40 -212 -148 -213 -281 -2 -200 201 -351 388 -290
157 51 240 219 188 381 -24 76 -109 161 -183 183 -56 17 -137 20 -180 7z"/>
<path d="M2680 4958 c-27 -30 -25 -62 6 -87 26 -20 37 -21 440 -21 l413 0 20
26 c26 33 27 58 1 84 -19 19 -33 20 -440 20 -418 0 -419 0 -440 -22z"/>
<path d="M4050 5266 c0 -266 3 -499 7 -517 6 -32 7 -30 19 33 15 80 95 273
143 343 173 254 428 408 739 446 487 59 970 -292 1077 -782 12 -58 13 -14 14
449 l1 512 -1000 0 -1000 0 0 -484z"/>
<path d="M6920 5701 c-195 -60 -277 -280 -165 -447 110 -167 330 -184 464 -38
57 62 81 123 81 204 0 114 -95 243 -203 275 -53 16 -135 18 -177 6z"/>
<path d="M6562 4964 c-15 -10 -22 -25 -22 -49 0 -66 -4 -65 456 -65 l413 0 20
26 c28 36 26 58 -5 83 -26 20 -37 21 -433 21 -352 0 -410 -2 -429 -16z"/>
<path d="M7907 1270 l-829 -5 -19 -24 c-10 -13 -19 -32 -19 -43 0 -27 26 -74
45 -82 9 -3 394 -6 856 -6 l840 0 24 25 c46 45 24 117 -40 133 -16 4 -403 5
-858 2z"/>
<path d="M1282 1250 c-31 -29 -30 -83 3 -115 l24 -25 850 0 c467 0 857 3 866
6 17 7 45 54 45 78 0 8 -12 28 -26 45 l-26 31 -857 0 c-849 0 -857 0 -879 -20z"/>
<path d="M3592 1247 c-30 -32 -29 -81 3 -112 22 -23 31 -25 124 -25 55 0 107
3 116 6 25 10 47 62 40 95 -11 49 -37 59 -155 59 -98 0 -108 -2 -128 -23z"/>
<path d="M4308 1256 c-23 -17 -39 -61 -31 -83 3 -10 15 -28 26 -40 18 -20 30
-23 93 -23 68 0 74 2 98 31 33 39 33 73 0 104 -23 22 -36 25 -98 25 -42 -1
-78 -6 -88 -14z"/>
<path d="M4962 1263 c-21 -8 -44 -62 -36 -86 3 -12 16 -32 27 -44 18 -20 30
-23 102 -23 72 0 84 3 102 23 33 34 34 86 3 117 -17 17 -33 20 -102 19 -46 0
-89 -3 -96 -6z"/>
<path d="M5606 1249 c-35 -28 -36 -80 -1 -114 22 -23 31 -25 124 -25 116 0
127 3 146 41 21 40 19 66 -10 94 -22 23 -31 25 -128 25 -90 0 -108 -3 -131
-21z"/>
<path d="M6296 1249 c-35 -28 -36 -80 -1 -114 22 -22 32 -25 105 -25 93 0 112
7 130 50 10 24 10 36 0 60 -18 43 -37 50 -128 50 -65 0 -84 -4 -106 -21z"/>
</g>
</svg>
