<?xml version="1.0" standalone="no"?>
<!DOCTYPE svg PUBLIC "-//W3C//DTD SVG 20010904//EN"
 "http://www.w3.org/TR/2001/REC-SVG-20010904/DTD/svg10.dtd">
<svg version="1.0" xmlns="http://www.w3.org/2000/svg"
 width="1024.000000pt" height="1024.000000pt" viewBox="0 0 1024.000000 1024.000000"
 preserveAspectRatio="xMidYMid meet">

<g transform="translate(0.000000,1024.000000) scale(0.100000,-0.100000)"
fill="#000000" stroke="none">
<path d="M3033 9159 c-10 -34 -23 -52 -58 -77 -67 -49 -74 -114 -15 -148 16
-10 26 -22 23 -27 -3 -4 -35 -28 -72 -51 -100 -65 -186 -149 -218 -214 -28
-56 -28 -60 -31 -274 l-3 -218 391 0 392 0 -4 198 c-4 174 -7 204 -27 255 -30
76 -111 163 -224 239 l-88 59 35 40 c20 21 36 48 36 60 0 12 -23 44 -52 74
-31 32 -57 69 -63 91 l-10 37 -12 -44z"/>
<path d="M7277 9171 c-5 -22 -25 -51 -62 -86 -69 -67 -74 -100 -20 -150 l35
-32 -72 -48 c-111 -72 -152 -109 -192 -169 -56 -85 -67 -144 -64 -352 l3 -179
388 -3 388 -2 -3 202 -3 203 -32 68 c-38 80 -97 141 -217 222 l-85 58 34 39
c51 56 45 83 -32 152 -26 24 -44 50 -50 74 l-9 37 -7 -34z"/>
<path d="M3770 7944 l0 -127 -35 -38 c-43 -48 -44 -72 -6 -110 l30 -29 -52
-34 c-69 -44 -125 -102 -148 -151 -15 -33 -19 -66 -19 -193 l0 -152 278 2 277
3 -2 140 c-2 158 -10 190 -70 256 -20 23 -66 61 -101 86 l-63 46 25 26 c33 34
34 75 3 104 -41 38 -47 61 -47 181 l0 116 -35 0 -35 0 0 -126z"/>
<path d="M6490 7945 l0 -125 -35 -31 c-19 -18 -37 -40 -40 -50 -7 -21 18 -74
40 -86 11 -7 -4 -22 -62 -63 -93 -66 -137 -122 -152 -190 -12 -56 -15 -209 -5
-259 l7 -31 268 0 269 0 0 160 c0 209 -11 232 -157 331 -26 18 -50 34 -52 36
-3 2 5 13 16 26 45 49 47 63 8 105 l-35 39 0 132 0 131 -35 0 -35 0 0 -125z"/>
<path d="M2560 7819 l0 -191 50 -55 50 -55 0 -314 0 -314 140 0 140 0 0 108 0
109 50 45 50 45 52 -48 53 -49 3 -104 c3 -84 7 -105 19 -108 9 -2 64 -2 124 0
l109 3 0 311 0 310 50 56 50 56 0 193 0 193 -470 0 -470 0 0 -191z m240 -8 c0
-41 -11 -51 -56 -51 -22 0 -24 4 -24 45 l0 45 40 0 c40 0 40 0 40 -39z m238
-3 c-3 -43 -3 -43 -43 -43 -40 0 -40 0 -43 43 l-3 42 46 0 46 0 -3 -42z m240
0 c-3 -43 -3 -43 -45 -46 l-43 -3 0 45 0 46 46 0 45 0 -3 -42z m-63 -295 c0
-52 0 -52 -22 -37 -13 8 -23 10 -23 4 0 -5 5 -10 10 -10 6 0 10 -4 10 -8 0 -7
-152 -9 -347 -4 l-63 2 0 55 0 55 217 -2 218 -3 0 -52z m35 32 c0 -8 -2 -15
-4 -15 -2 0 -6 7 -10 15 -3 8 -1 15 4 15 6 0 10 -7 10 -15z m40 11 c0 -3 -4
-8 -10 -11 -5 -3 -10 -1 -10 4 0 6 5 11 10 11 6 0 10 -2 10 -4z m-43 -76 c-1
-12 -5 -16 -10 -11 -5 5 -6 14 -3 20 11 16 15 13 13 -9z"/>
<path d="M3190 7550 c0 -5 5 -10 10 -10 6 0 10 5 10 10 0 6 -4 10 -10 10 -5 0
-10 -4 -10 -10z"/>
<path d="M3190 7500 c0 -5 5 -10 10 -10 6 0 10 5 10 10 0 6 -4 10 -10 10 -5 0
-10 -4 -10 -10z"/>
<path d="M3125 7480 c3 -5 8 -10 11 -10 2 0 4 5 4 10 0 6 -5 10 -11 10 -5 0
-7 -4 -4 -10z"/>
<path d="M6820 7819 l0 -191 56 -63 55 -64 -1 -83 c-1 -46 -1 -183 -1 -305 l1
-223 125 0 125 0 0 106 0 106 53 51 53 52 52 -51 52 -50 0 -107 0 -107 145 0
145 0 0 317 0 316 41 55 42 55 1 188 1 189 -472 0 -473 0 0 -191z m290 -9 c0
-22 -3 -41 -7 -41 -5 -1 -22 -2 -40 -3 -29 -2 -31 0 -35 36 -2 22 -2 41 1 44
2 2 22 4 43 4 38 0 38 0 38 -40z m240 0 c0 -34 -4 -41 -24 -46 -47 -11 -61 -2
-64 44 l-3 42 45 0 46 0 0 -40z m240 0 l0 -40 -45 0 -45 0 0 40 0 40 45 0 45
0 0 -40z m-126 -251 c-3 -5 -8 -7 -12 -5 -4 2 -14 -3 -22 -12 -13 -14 -12 -15
2 -9 9 3 21 0 27 -7 15 -18 1 -28 -18 -14 -12 10 -12 8 2 -8 40 -48 31 -49
-228 -49 l-190 0 -3 58 -3 58 226 -1 c139 -1 223 -5 219 -11z m53 5 c-3 -3
-12 -4 -19 -1 -8 3 -5 6 6 6 11 1 17 -2 13 -5z m-19 -34 c7 -11 10 -20 6 -20
-7 0 -34 27 -34 34 0 13 16 5 28 -14z m-3 -44 c8 -7 11 -16 8 -19 -5 -6 -33
17 -33 27 0 10 11 7 25 -8z"/>
<path d="M6180 6846 l0 -148 55 -60 55 -59 2 -212 3 -212 223 -2 c122 -1 222
0 222 3 0 3 -31 40 -70 82 l-70 76 0 141 c0 78 3 190 7 249 l6 107 56 45 c44
35 62 44 84 40 27 -5 27 -5 27 48 l0 53 -300 -1 -300 -1 0 -149z m268 -38 c-3
-40 -6 -43 -34 -46 -31 -3 -31 -2 -32 42 l-1 46 35 0 35 0 -3 -42z"/>
<path d="M3549 6973 c-1 -10 -3 -33 -5 -52 -4 -34 -4 -34 32 -28 33 6 42 1 90
-40 l54 -45 0 -248 0 -248 -65 -72 c-36 -40 -65 -77 -65 -81 0 -6 96 -8 223
-7 l222 3 3 212 2 212 55 58 55 58 0 95 c0 52 3 119 6 148 l7 52 -307 0 c-284
0 -306 -1 -307 -17z m411 -134 c0 -6 -4 -8 -9 -4 -5 3 -12 1 -15 -4 -3 -5 1
-11 8 -14 8 -3 14 -15 13 -25 -1 -16 -9 -20 -37 -20 -33 -1 -36 2 -38 29 -1
17 0 33 2 37 7 11 76 12 76 1z"/>
<path d="M3920 6806 c0 -2 7 -6 15 -10 8 -3 15 -1 15 4 0 6 -7 10 -15 10 -8 0
-15 -2 -15 -4z"/>
<path d="M5151 6910 c-19 -26 -22 -43 -21 -103 1 -40 1 -77 1 -83 -1 -6 -14
-28 -31 -49 -42 -53 -42 -104 1 -137 l30 -24 -40 -41 c-30 -30 -41 -49 -41
-71 0 -47 -10 -62 -39 -62 -74 -1 -186 -83 -228 -168 -27 -56 -28 -62 -31
-249 l-4 -193 -329 0 -329 0 0 150 0 150 -247 -2 -248 -3 0 -95 0 -95 173 -3
172 -2 0 -50 0 -50 -245 0 -245 0 0 253 0 253 65 64 65 64 0 193 0 193 -550 0
-550 0 0 -189 0 -189 80 -72 c51 -46 85 -70 95 -66 8 3 15 1 15 -4 0 -6 -5
-10 -11 -10 -8 0 -9 -98 -5 -342 3 -189 5 -344 6 -345 0 -2 63 -3 140 -3 l140
0 0 135 0 134 44 31 c25 16 48 40 51 51 7 21 7 21 19 -2 6 -13 29 -35 51 -50
l40 -27 5 -139 5 -138 1760 -1 c968 0 1874 1 2013 3 l252 4 0 130 0 130 32 30
c18 16 36 29 40 29 4 0 14 12 22 28 11 19 15 22 16 9 0 -9 22 -33 50 -53 l49
-35 3 -137 c3 -134 3 -136 26 -135 12 0 76 1 142 2 l120 1 0 343 0 342 80 80
80 80 0 187 0 188 -545 0 -545 0 0 -191 0 -191 59 -67 59 -67 8 -252 7 -252
-252 0 -252 0 3 48 3 47 167 3 167 2 3 96 c2 53 1 97 -2 98 -3 2 -113 3 -245
2 l-240 -1 -3 -149 -3 -148 -312 4 -312 4 -5 199 c-5 180 -7 204 -27 240 -44
82 -163 165 -238 165 l-35 0 0 50 c0 45 -3 51 -40 81 l-40 33 35 36 c44 45 45
76 2 132 -33 43 -34 45 -29 128 4 83 3 86 -25 113 l-29 27 -23 -30z m-2371
-380 l0 -60 -50 0 -50 0 0 60 0 60 50 0 50 0 0 -60z m300 5 l0 -55 -55 0 -55
0 0 48 c0 27 3 52 7 55 3 4 28 7 55 7 l48 0 0 -55z m300 0 l0 -55 -50 0 -50 0
0 55 0 55 50 0 50 0 0 -55z m3670 0 l0 -55 -50 0 -50 0 0 55 0 55 50 0 50 0 0
-55z m298 -1 l-3 -57 -50 0 -50 0 -3 57 -3 56 56 0 56 0 -3 -56z m292 1 l0
-55 -50 0 -50 0 0 55 0 55 50 0 50 0 0 -55z m-4370 -296 c0 -5 -5 -9 -12 -9
-9 0 -9 -3 0 -12 16 -16 15 -21 -7 -46 -20 -24 -37 -30 -25 -9 5 7 0 6 -11 -3
-15 -12 -58 -15 -254 -14 -130 0 -248 2 -263 4 -29 3 -29 20 -1 20 9 0 13 3 9
8 -4 4 -13 7 -18 7 -6 0 -13 6 -16 14 -3 9 1 11 17 6 21 -6 30 8 11 20 -35 21
11 25 280 25 175 -1 290 -5 290 -11z m4191 -2 c0 -9 2 -8 6 1 6 14 33 16 33 2
0 -5 -4 -10 -10 -10 -5 0 -10 -5 -10 -12 0 -6 11 -1 24 12 24 21 26 22 43 5
16 -17 16 -17 -5 -11 -12 4 -22 3 -22 -2 0 -6 5 -12 12 -14 7 -3 3 -14 -12
-31 -25 -28 -50 -36 -50 -14 0 9 -2 9 -8 0 -6 -9 -71 -13 -230 -17 -123 -2
-232 -2 -243 1 -15 4 -19 14 -19 54 l0 50 245 -1 c182 -1 245 -4 246 -13z
m-4167 -50 c-3 -9 -10 -17 -15 -17 -13 0 -11 17 4 24 10 5 10 7 0 12 -7 3 -13
11 -13 17 0 7 6 5 15 -4 9 -9 13 -23 9 -32z m4261 -12 c-14 -15 -29 -25 -32
-22 -3 3 8 17 23 31 37 32 44 25 9 -9z m-2555 -252 l0 -93 -50 0 -50 0 0 92
c0 86 2 94 27 120 l26 27 24 -27 c20 -24 23 -37 23 -119z m230 -1 l0 -93 -47
3 -48 3 -3 89 c-3 86 -2 90 25 118 l28 29 22 -28 c20 -24 23 -40 23 -121z
m230 -2 l0 -90 -50 0 -50 0 0 90 c0 78 3 95 22 121 l23 30 27 -30 c26 -29 28
-37 28 -121z"/>
<path d="M7493 6195 c-21 -24 -14 -40 7 -17 11 12 20 24 20 27 0 10 -15 4 -27
-10z"/>
<path d="M3932 5402 c-30 -25 -32 -31 -32 -92 l0 -65 75 3 75 4 0 56 c0 31 -4
62 -8 67 -7 11 -67 55 -74 55 -1 0 -18 -13 -36 -28z"/>
<path d="M4538 5401 c-36 -25 -37 -28 -38 -87 0 -33 2 -63 4 -65 2 -2 36 -3
75 -1 l71 4 0 62 c0 62 -1 64 -37 88 l-38 25 -37 -26z"/>
<path d="M4836 5397 l-37 -32 7 -63 7 -63 66 3 66 3 3 67 c3 69 0 74 -64 111
-6 4 -28 -8 -48 -26z"/>
<path d="M5137 5399 c-35 -29 -37 -34 -37 -89 l0 -58 48 -4 c26 -1 59 -2 75 0
26 3 27 5 27 65 0 60 -1 63 -39 89 l-38 27 -36 -30z"/>
<path d="M5736 5399 c-34 -29 -36 -34 -36 -90 l0 -59 75 0 75 0 0 64 c0 63 -1
64 -39 89 l-38 25 -37 -29z"/>
<path d="M6047 5402 l-38 -25 3 -66 3 -66 70 0 70 0 3 49 c4 69 -3 88 -40 112
l-33 21 -38 -25z"/>
<path d="M6353 5404 c-31 -24 -33 -29 -33 -90 l0 -64 70 0 70 0 0 68 c0 66 -1
67 -35 90 -19 12 -36 22 -37 22 -2 0 -18 -12 -35 -26z"/>
<path d="M4233 5399 c-32 -20 -33 -24 -33 -84 0 -35 4 -65 10 -67 5 -1 39 -1
75 0 l65 4 0 63 c0 62 -1 63 -36 84 -43 26 -41 26 -81 0z"/>
<path d="M5428 5397 c-25 -20 -28 -29 -28 -85 l0 -62 75 0 75 0 0 59 c0 56 -2
62 -33 85 -41 31 -54 32 -89 3z"/>
<path d="M2367 5358 c-3 -13 -6 -302 -6 -644 l-1 -621 44 -54 c24 -30 72 -94
105 -143 l61 -90 0 -1038 0 -1038 -225 0 -225 0 0 -90 0 -90 1250 0 1249 0 4
568 c2 420 6 577 15 605 25 73 94 159 179 222 162 121 352 255 361 255 4 0 21
-14 37 -30 16 -17 106 -82 201 -145 192 -128 260 -193 295 -283 22 -56 23 -67
26 -537 2 -264 3 -519 3 -567 l0 -88 1240 0 1240 0 0 90 0 90 -230 0 -230 0 0
1044 0 1043 72 99 c39 55 86 117 105 140 l33 41 0 642 0 641 -670 0 -670 0 0
-115 0 -115 579 0 578 0 8 -406 c4 -243 3 -410 -2 -415 -5 -5 -244 -8 -579 -7
l-569 3 -3 400 c-2 220 -4 401 -6 402 -1 2 -655 4 -1452 5 l-1449 3 -3 123 -3
122 -678 0 -679 0 -5 -22z m1288 -623 l0 -410 -555 0 -555 0 0 60 0 60 113 3
112 3 0 114 0 115 -115 0 -116 0 3 63 3 62 113 3 112 3 0 109 0 109 -112 3
-113 3 -3 58 -3 57 558 -2 558 -3 0 -410z m2885 198 c-1 -14 -27 -43 -38 -43
-6 0 -12 6 -15 13 -2 6 -8 9 -12 4 -5 -4 0 -14 11 -21 12 -9 23 -11 28 -5 14
13 29 11 20 -2 -4 -8 1 -9 17 -4 23 7 23 7 4 -8 -11 -8 -24 -13 -30 -10 -5 3
-4 0 3 -8 12 -13 18 -38 5 -26 -3 4 -12 2 -18 -3 -8 -7 -18 -4 -30 10 -10 11
-23 20 -29 20 -7 0 -7 -3 1 -8 23 -14 2 -63 -40 -91 -22 -14 -53 -38 -68 -53
l-29 -26 0 -136 0 -136 135 0 c117 0 135 -2 135 -16 0 -10 -6 -14 -15 -10 -15
5 -42 -30 -31 -42 3 -3 6 1 6 8 0 11 3 11 12 2 8 -8 8 -15 -1 -26 -8 -10 -9
-16 -1 -21 5 -3 10 -1 10 4 0 6 5 11 12 11 6 0 3 -9 -8 -21 -11 -12 -20 -16
-22 -9 -3 7 -8 8 -16 1 -12 -10 -340 -12 -2227 -11 l-466 0 1 65 1 65 98 0 99
0 -4 139 c-3 132 -4 141 -27 165 -14 14 -29 26 -35 26 -6 0 -25 12 -43 28 -33
28 -51 87 -30 96 7 3 6 5 -3 5 -26 -2 -60 13 -54 23 3 5 15 6 27 3 17 -5 19
-4 7 4 -8 5 -11 13 -7 17 4 5 -3 14 -15 21 -19 10 233 12 1330 13 743 0 1352
-3 1352 -7z m50 -33 c0 -5 -5 -10 -11 -10 -5 0 -7 5 -4 10 3 6 8 10 11 10 2 0
4 -4 4 -10z m-2714 -74 c-3 -11 -6 -29 -6 -40 0 -15 -2 -16 -15 -6 -13 11 -13
15 -3 22 10 6 10 10 -2 18 -13 8 -12 10 5 11 11 0 14 3 8 6 -7 2 -13 9 -13 14
0 4 7 6 16 2 10 -4 14 -13 10 -27z m2649 -36 c-19 -7 -19 -7 0 -18 11 -6 17
-13 14 -17 -3 -3 -17 4 -30 15 -20 16 -21 21 -10 29 8 5 21 7 29 3 13 -4 12
-7 -3 -12z m95 -411 c0 -5 -4 -9 -10 -9 -5 0 -10 7 -10 16 0 8 5 12 10 9 6 -3
10 -10 10 -16z m-10 -99 c0 -5 -4 -10 -10 -10 -5 0 -10 5 -10 10 0 6 5 10 10
10 6 0 10 -4 10 -10z m-2694 -249 c10 8 14 8 14 0 0 -6 -5 -11 -11 -11 -5 0
-8 -4 -4 -9 3 -5 1 -12 -5 -16 -5 -3 -10 -2 -10 4 0 5 -2 15 -3 23 -2 7 -2 9
1 5 2 -4 10 -3 18 4z m286 -10 c7 11 11 11 15 2 7 -18 23 -16 23 2 0 8 5 15
10 15 6 0 10 -7 10 -15 0 -8 5 -15 10 -15 6 0 10 8 10 17 0 15 2 14 15 -3 13
-17 14 -17 15 -1 0 9 5 17 11 17 6 0 8 -9 4 -22 -7 -23 -7 -23 16 1 17 19 24
21 28 10 8 -18 41 -21 34 -3 -8 21 7 17 26 -8 12 -15 20 -18 25 -10 4 7 1 12
-9 12 -9 0 -13 5 -10 11 5 7 14 4 28 -8 15 -14 19 -14 15 -3 -5 13 14 15 133
15 106 0 139 -3 139 -12 0 -7 5 -13 11 -13 5 0 8 4 4 9 -3 5 -1 12 5 16 5 3
10 -1 10 -9 0 -9 5 -16 10 -16 6 0 9 5 8 12 -2 6 9 13 25 14 18 2 27 -2 27
-12 0 -8 5 -14 10 -14 6 0 9 3 9 8 -4 21 3 24 16 6 9 -10 14 -13 13 -5 -4 19
35 23 49 4 11 -14 13 -14 28 1 21 21 35 20 35 -1 0 -16 2 -16 11 -3 8 11 12
12 16 3 2 -7 9 -13 14 -13 6 0 7 5 4 10 -3 6 -2 10 4 10 5 0 12 -6 14 -12 4
-10 8 -9 16 2 10 13 12 13 21 0 6 -10 10 -11 10 -2 0 6 11 12 25 12 14 0 25
-6 25 -12 0 -9 4 -8 11 2 9 12 12 13 16 1 5 -11 7 -11 15 0 8 12 10 12 15 0 5
-11 7 -11 15 0 7 11 11 11 15 2 2 -7 9 -13 14 -13 6 0 7 5 4 10 -4 6 8 10 30
10 22 0 34 -4 30 -10 -3 -5 -1 -10 4 -10 6 0 11 4 11 9 0 18 47 18 59 0 12
-21 41 -15 41 8 0 8 5 11 10 8 6 -4 8 -11 5 -16 -4 -5 -1 -9 4 -9 6 0 11 4 11
9 0 5 13 9 29 9 22 -1 28 -5 23 -17 -3 -9 4 -5 15 8 l20 24 21 -21 c12 -12 25
-22 29 -22 4 0 2 5 -5 12 -19 19 -14 24 26 22 65 -3 64 -2 52 -24 -6 -12 -7
-20 -1 -20 5 0 12 6 15 13 5 9 7 9 12 -2 5 -11 8 -11 15 0 8 12 11 11 19 -1 9
-13 11 -13 20 0 9 13 11 13 21 0 7 -11 12 -12 15 -3 3 7 13 9 22 6 15 -6 15
-5 3 10 -11 14 -11 17 0 17 8 0 20 -9 27 -21 7 -12 16 -18 19 -15 3 3 0 12 -7
21 -10 12 -9 15 6 16 11 1 26 2 34 3 8 1 23 -2 34 -7 12 -6 21 -5 26 3 5 8 9
7 13 -4 4 -9 3 -15 -1 -13 -4 1 -8 -1 -9 -5 -6 -18 13 -9 23 11 13 26 23 28
35 9 7 -11 11 -10 19 2 9 13 10 13 10 0 0 -9 -6 -22 -12 -29 -11 -10 -10 -11
5 -6 9 4 17 14 17 22 0 9 6 13 15 9 8 -3 15 0 15 6 0 7 4 7 13 1 6 -5 24 -8
40 -7 15 2 27 -1 27 -7 0 -5 -6 -9 -12 -10 -10 0 -10 -2 -1 -6 10 -3 13 -249
13 -1139 l0 -1135 -72 3 -73 3 2 675 c1 371 -2 706 -7 743 -22 160 -115 276
-321 397 -335 198 -385 229 -444 280 -35 30 -70 67 -77 83 -16 34 -20 34 -36
-3 -8 -16 -49 -58 -92 -92 -72 -58 -150 -107 -435 -273 -166 -97 -263 -212
-294 -346 -7 -27 -11 -313 -11 -756 l0 -713 -69 0 -70 0 -3 863 c-3 864 1
1469 9 1433 4 -15 7 -16 15 -5z m2173 9 c3 -5 1 -10 -4 -10 -6 0 -11 5 -11 10
0 6 2 10 4 10 3 0 8 -4 11 -10z m-2375 -10 c0 -5 -4 -10 -10 -10 -5 0 -10 5
-10 10 0 6 5 10 10 10 6 0 10 -4 10 -10z m1740 6 c0 -11 -19 -15 -25 -6 -3 5
1 10 9 10 9 0 16 -2 16 -4z m30 -6 c0 -5 -4 -10 -10 -10 -5 0 -10 5 -10 10 0
6 5 10 10 10 6 0 10 -4 10 -10z m40 0 c0 -5 -4 -10 -9 -10 -6 0 -13 5 -16 10
-3 6 1 10 9 10 9 0 16 -4 16 -10z m-1845 -23 c6 -5 3 -7 -7 -4 -25 9 -29 -3
-8 -26 11 -11 23 -17 27 -13 4 4 1 11 -7 16 -12 8 -11 10 6 10 19 0 23 -7 27
-47 2 -27 5 -533 6 -1125 l1 -1078 -70 0 -70 0 0 138 0 137 -40 25 c-22 14
-40 30 -40 37 0 7 -4 13 -10 13 -5 0 -10 -7 -10 -15 0 -8 -18 -24 -40 -35 -33
-17 -40 -26 -40 -50 0 -32 -9 -37 -28 -18 -10 10 -15 10 -22 -2 -5 -8 -11 -12
-15 -9 -3 3 4 14 15 24 11 10 20 13 20 7 0 -7 4 -12 9 -12 5 0 8 11 7 25 -1
26 -12 33 -18 13 -3 -7 -5 1 -5 19 0 27 2 29 14 17 25 -25 34 -15 11 11 -13
15 -28 23 -37 20 -11 -4 -10 0 4 15 18 19 18 20 -3 39 -12 10 -22 22 -22 26 0
5 11 -2 25 -15 14 -13 28 -21 31 -17 4 4 -8 20 -26 37 -18 16 -29 30 -24 30 4
0 16 -7 26 -17 10 -9 21 -13 25 -10 3 4 -4 15 -15 26 -25 21 -30 40 -5 20 13
-11 17 -11 20 -1 3 6 12 12 21 12 14 1 12 5 -7 21 -13 11 -21 23 -17 26 4 4
11 1 16 -7 7 -12 27 -14 86 -12 42 1 81 5 87 9 6 4 8 41 4 106 l-6 99 -42 39
c-47 43 -49 44 -49 27 0 -7 -18 -24 -40 -37 -22 -14 -41 -31 -42 -40 -3 -12
-6 -12 -21 3 -10 11 -15 26 -12 36 3 10 -2 26 -12 36 -17 17 -17 17 0 11 11
-4 17 -2 17 8 0 8 -8 19 -17 24 -10 6 -13 11 -7 11 5 0 20 -9 33 -21 12 -12
25 -18 28 -15 3 3 -11 22 -31 41 -23 21 -32 35 -22 35 8 0 18 -4 21 -10 3 -5
12 -10 18 -10 7 0 6 4 -3 10 -8 5 -11 10 -6 10 5 0 -1 9 -14 20 -13 11 -20 23
-16 27 4 4 10 3 14 -2 4 -6 18 -16 32 -24 24 -14 24 -13 10 5 -8 10 -30 34
-50 53 -29 28 -31 32 -12 27 23 -8 31 7 11 20 -8 4 -7 9 2 14 10 7 10 11 0 24
-9 11 -10 16 -2 16 6 0 11 -4 11 -10 0 -5 7 -10 15 -10 8 0 15 -4 15 -10 0 -5
-7 -10 -15 -10 -8 0 -15 -4 -15 -10 0 -5 7 -10 15 -10 8 0 15 -7 15 -15 0 -9
-6 -12 -15 -9 -8 4 -15 1 -15 -5 0 -6 7 -11 15 -11 8 0 15 -7 15 -15 0 -12 17
-15 90 -15 l90 0 0 189 0 188 -40 27 c-22 14 -40 31 -40 36 0 15 -20 12 -20
-2 -1 -7 -17 -24 -37 -36 -33 -21 -38 -22 -49 -8 -6 9 -17 16 -23 16 -7 0 -9
5 -6 11 4 6 14 8 22 5 8 -3 11 -1 8 5 -4 5 -1 16 5 24 7 9 8 15 2 15 -14 0
-22 36 -10 48 6 6 6 12 -1 16 -6 4 -11 0 -11 -9 0 -9 -5 -13 -10 -10 -8 5 -8
11 0 20 8 9 8 15 0 20 -7 4 -7 12 1 26 7 15 16 18 32 13 20 -6 20 -6 3 11 -15
15 -19 16 -26 4 -5 -7 -12 -10 -16 -6 -4 4 2 16 14 27 17 16 22 17 22 6 0 -20
9 -21 95 -18 l75 4 0 73 c0 63 -3 74 -19 80 -10 3 -26 14 -36 25 -18 20 -18
20 -51 -5 -18 -14 -37 -25 -43 -25 -6 0 -11 -4 -11 -10 0 -5 -4 -10 -10 -10
-15 0 -12 30 3 31 10 0 10 2 0 6 -7 2 -13 11 -13 19 0 8 6 14 13 15 10 0 10 2
0 6 -20 8 -15 26 5 18 13 -5 12 -1 -5 14 -26 24 -41 28 -23 6 8 -9 9 -15 2
-15 -18 0 -24 20 -11 36 7 8 20 12 31 8 19 -6 18 -4 -2 16 -15 15 -18 25 -11
34 7 9 7 16 -1 24 -9 9 -9 12 0 12 7 0 12 -4 12 -10 0 -6 37 -10 90 -10 l90 0
0 156 c0 88 -4 164 -10 175 -9 15 -7 19 5 19 10 0 13 5 9 13 -4 6 2 4 13 -6
14 -12 19 -26 16 -40 -5 -22 -5 -22 10 -2 8 11 13 23 11 27 -7 11 17 51 24 41
4 -4 12 -12 17 -16z m2459 8 c-7 -18 12 -20 20 -2 3 6 3 1 0 -12 -4 -16 -3
-21 5 -17 6 4 19 -1 29 -10 16 -17 16 -18 -1 -11 -12 5 -17 3 -15 -5 7 -19 24
-20 42 -2 31 31 26 7 -5 -26 -19 -19 -27 -35 -21 -39 6 -4 11 -44 11 -96 0
-50 0 -105 0 -122 l1 -33 83 0 c70 0 85 3 100 20 21 25 21 28 1 32 -13 2 -12
7 6 28 22 25 22 25 15 2 -4 -13 -2 -29 5 -37 9 -11 9 -15 1 -15 -6 0 -11 -7
-11 -15 0 -8 7 -15 16 -15 14 0 14 -3 4 -15 -10 -11 -10 -18 -1 -29 9 -11 9
-15 -1 -18 -10 -4 -10 -9 2 -23 14 -17 13 -18 -2 -12 -9 3 -22 -1 -29 -9 -10
-12 -9 -13 6 -8 14 6 16 3 10 -14 -4 -14 -2 -22 5 -22 6 0 9 4 5 9 -3 5 -1 12
5 16 16 10 12 -18 -6 -43 -9 -13 -13 -26 -10 -29 3 -4 6 -1 6 5 0 7 4 12 8 12
14 0 10 -64 -5 -78 -17 -17 -16 -27 3 -47 13 -12 14 -19 4 -30 -9 -11 -9 -15
-1 -15 6 0 11 -7 11 -15 0 -8 -5 -15 -11 -15 -5 0 -7 -5 -4 -10 10 -17 14
-140 4 -140 -5 0 -9 5 -9 12 0 6 -3 8 -7 5 -3 -4 1 -15 10 -25 15 -17 17 -58
3 -80 -4 -7 -1 -12 9 -12 15 0 15 -1 1 -16 -20 -19 -20 -25 -1 -18 24 10 17
-12 -7 -24 -22 -10 -22 -11 -3 -12 20 -1 20 -1 1 -15 -18 -14 -12 -20 16 -16
4 0 5 -6 2 -14 -4 -8 -11 -15 -18 -15 -7 0 -7 -3 1 -8 7 -5 15 -23 17 -41 3
-26 0 -31 -12 -26 -13 5 -13 3 -1 -12 8 -10 19 -22 24 -26 6 -5 2 -6 -9 -3
-14 5 -17 2 -12 -10 4 -9 1 -23 -6 -32 -11 -13 -9 -14 12 -8 17 5 21 4 11 -2
-7 -5 -15 -28 -16 -51 -2 -32 1 -41 14 -41 13 -1 13 -2 -3 -11 -15 -9 -16 -13
-5 -20 10 -6 8 -9 -9 -9 -21 0 -22 -1 -8 -16 10 -10 15 -28 13 -49 -3 -27 -1
-32 12 -29 9 3 6 -1 -6 -7 -26 -14 -31 -34 -7 -25 14 5 15 4 4 -9 -10 -12 -10
-15 1 -15 11 0 11 -2 1 -8 -18 -12 -23 -82 -5 -75 11 4 11 0 3 -21 -6 -17 -6
-26 0 -26 6 0 3 -11 -5 -24 -14 -22 -14 -25 0 -40 9 -9 12 -16 7 -16 -6 0 -9
-46 -8 -111 1 -60 -1 -112 -6 -115 -4 -3 -3 -14 2 -24 9 -17 8 -19 -7 -13 -17
6 -17 5 -1 -13 18 -20 15 -64 -4 -64 -6 0 -7 8 -3 18 5 13 4 14 -6 5 -15 -15
7 -47 25 -36 6 4 5 -1 -2 -9 -8 -10 -20 -14 -30 -10 -15 5 -15 4 1 -12 18 -19
22 -32 10 -39 -5 -2 -3 -3 4 -1 6 1 19 -7 30 -19 l18 -22 -24 20 -24 20 7 -25
c6 -20 5 -22 -4 -10 -9 11 -13 12 -17 3 -12 -31 -19 -7 -18 72 0 65 4 88 15
95 13 8 12 10 -4 10 -14 0 -17 5 -13 21 8 30 -8 66 -33 74 -12 4 -30 21 -41
38 -15 26 -19 28 -19 12 0 -12 -17 -32 -40 -48 l-40 -28 0 -135 0 -134 -70 0
-70 0 0 1136 c0 1017 2 1135 15 1124 13 -11 14 -10 9 4 -3 9 -2 16 4 16 6 0
12 -6 15 -12 3 -9 7 -7 12 5 9 21 27 23 19 2z m-3180 -52 c-5 -15 -3 -15 11 2
14 17 17 18 25 5 14 -21 12 -36 -4 -49 -11 -9 -15 -9 -19 1 -4 11 -7 11 -18 0
-12 -11 -12 -13 1 -10 10 2 14 -3 12 -14 -2 -10 3 -18 9 -18 7 0 10 3 6 6 -3
3 8 18 24 31 16 14 33 23 36 19 3 -3 -2 -8 -11 -12 -9 -3 -16 -11 -16 -16 0
-6 7 -7 16 -4 9 3 12 2 9 -5 -4 -5 -15 -7 -25 -4 -11 3 -20 0 -23 -9 -5 -13
-51 -15 -329 -13 l-323 2 0 53 -1 52 313 0 c293 0 312 -1 307 -17z m76 7 c0
-5 -5 -10 -11 -10 -5 0 -7 5 -4 10 3 6 8 10 11 10 2 0 4 -4 4 -10z m4275 -9
c0 -8 -7 -16 -15 -18 -13 -4 -13 -3 0 6 8 5 11 13 7 18 -5 4 -17 -3 -27 -17
-11 -14 -15 -26 -11 -28 4 -1 6 -13 4 -25 -6 -31 -42 -34 -44 -4 -2 22 -2 22
-6 -1 l-4 -22 -300 0 c-254 1 -299 3 -299 16 0 7 7 14 15 14 8 0 15 5 15 11 0
5 -5 7 -10 4 -6 -3 -17 1 -26 9 -14 15 -14 16 0 16 9 0 16 5 16 10 0 6 -3 9
-7 9 -20 -3 -26 2 -13 11 10 7 139 10 360 8 290 -3 345 -5 345 -17z m-895
-181 c0 -5 -2 -10 -4 -10 -3 0 -8 5 -11 10 -3 6 -1 10 4 10 6 0 11 -4 11 -10z
m-3036 -25 c-4 -8 -11 -15 -16 -15 -6 0 -5 6 2 15 7 8 14 15 16 15 2 0 1 -7
-2 -15z m3013 -7 c-3 -8 -6 -5 -6 6 -1 11 2 17 5 13 3 -3 4 -12 1 -19z m-3487
-1048 l0 -960 -125 0 -125 0 0 960 0 960 125 0 125 0 0 -960z m4200 0 l0 -960
-125 0 -125 0 0 960 0 960 125 0 125 0 0 -960z m-3720 936 c0 -3 -4 -8 -10
-11 -5 -3 -10 -1 -10 4 0 6 5 11 10 11 6 0 10 -2 10 -4z m-30 -26 c0 -5 -5
-10 -11 -10 -5 0 -7 5 -4 10 3 6 8 10 11 10 2 0 4 -4 4 -10z m30 -20 c0 -5 -4
-10 -10 -10 -5 0 -10 5 -10 10 0 6 5 10 10 10 6 0 10 -4 10 -10z m0 -85 c0 -8
-4 -15 -10 -15 -5 0 -10 7 -10 15 0 8 5 15 10 15 6 0 10 -7 10 -15z m0 -45 c0
-5 -4 -10 -9 -10 -6 0 -13 5 -16 10 -3 6 1 10 9 10 9 0 16 -4 16 -10z m-35
-10 c3 -5 1 -10 -4 -10 -6 0 -11 5 -11 10 0 6 2 10 4 10 3 0 8 -4 11 -10z m35
-25 c0 -8 -4 -15 -10 -15 -5 0 -10 7 -10 15 0 8 5 15 10 15 6 0 10 -7 10 -15z
m30 -13 c0 -11 -41 -44 -48 -38 -3 3 3 15 13 26 18 20 35 26 35 12z m3024 -47
c-7 -16 -24 -21 -24 -6 0 8 7 13 27 20 1 1 0 -6 -3 -14z m-3087 -17 c-3 -8 -6
-5 -6 6 -1 11 2 17 5 13 3 -3 4 -12 1 -19z m63 12 c0 -5 -4 -10 -10 -10 -5 0
-10 5 -10 10 0 6 5 10 10 10 6 0 10 -4 10 -10z m-30 -26 c0 -8 -4 -12 -10 -9
-5 3 -10 10 -10 16 0 5 5 9 10 9 6 0 10 -7 10 -16z m0 -164 c0 -5 -5 -10 -11
-10 -5 0 -7 5 -4 10 3 6 8 10 11 10 2 0 4 -4 4 -10z m10 -30 c0 -5 -7 -10 -16
-10 -8 0 -12 5 -9 10 3 6 10 10 16 10 5 0 9 -4 9 -10z m-35 -60 c3 -5 1 -10
-4 -10 -6 0 -11 5 -11 10 0 6 2 10 4 10 3 0 8 -4 11 -10z m39 -26 c7 -18 0
-34 -16 -34 -7 0 -6 6 2 15 9 10 9 15 1 15 -6 0 -11 5 -11 10 0 16 17 12 24
-6z m3 -71 c-3 -3 -11 -2 -17 2 -9 6 -9 10 1 16 14 8 27 -7 16 -18z m-7 -13
c13 -9 13 -11 0 -20 -13 -9 -13 -11 0 -20 13 -9 13 -11 0 -20 -13 -9 -13 -11
0 -19 8 -6 11 -13 8 -17 -4 -3 -15 2 -25 12 -13 12 -14 19 -5 22 19 6 14 22
-8 22 -11 0 -20 5 -20 10 0 6 9 10 20 10 27 0 25 18 -2 23 -20 4 -20 4 -3 5
11 1 27 -3 35 -8z m-33 -96 c-3 -3 -12 -4 -19 -1 -8 3 -5 6 6 6 11 1 17 -2 13
-5z m43 -49 c0 -8 -4 -15 -10 -15 -5 0 -10 7 -10 15 0 8 5 15 10 15 6 0 10 -7
10 -15z m-40 -353 c0 -5 10 -19 22 -32 15 -16 18 -25 10 -28 -16 -5 -15 -29 1
-35 9 -4 8 -8 -3 -16 -12 -9 -13 -13 -2 -20 17 -10 17 -18 -2 -37 -13 -12 -18
-13 -30 -2 -12 11 -11 17 7 42 14 20 17 31 9 34 -7 2 -12 10 -12 18 0 8 -5 14
-10 14 -6 0 -5 9 2 21 10 17 10 23 1 26 -15 6 -17 23 -3 23 6 0 10 -4 10 -8z
m21 -225 c-1 -12 -15 -9 -19 4 -3 6 1 10 8 8 6 -3 11 -8 11 -12z m-31 -207 c0
-5 -4 -10 -10 -10 -5 0 -10 5 -10 10 0 6 5 10 10 10 6 0 10 -4 10 -10z m0
-110 c0 -5 -2 -10 -4 -10 -3 0 -8 5 -11 10 -3 6 -1 10 4 10 6 0 11 -4 11 -10z
m50 6 c0 -3 -4 -8 -10 -11 -5 -3 -10 -1 -10 4 0 6 5 11 10 11 6 0 10 -2 10 -4z
m0 -39 c0 -7 -9 -18 -20 -25 -12 -7 -20 -8 -20 -2 0 5 5 10 10 10 6 0 10 7 10
15 0 8 5 15 10 15 6 0 10 -6 10 -13z m-50 -7 c0 -5 -2 -10 -4 -10 -3 0 -8 5
-11 10 -3 6 -1 10 4 10 6 0 11 -4 11 -10z m50 -40 c0 -5 -4 -10 -10 -10 -5 0
-10 5 -10 10 0 6 5 10 10 10 6 0 10 -4 10 -10z m-25 -20 c3 -5 1 -10 -4 -10
-6 0 -11 5 -11 10 0 6 2 10 4 10 3 0 8 -4 11 -10z m-20 -19 c3 -5 1 -12 -5
-16 -5 -3 -10 1 -10 9 0 18 6 21 15 7z m45 -10 c0 -5 -6 -12 -12 -14 -10 -4
-9 -8 2 -16 8 -5 11 -13 7 -18 -5 -4 -12 -1 -18 7 -8 13 -10 13 -18 0 -6 -8
-13 -11 -16 -8 -4 4 4 18 16 32 25 26 39 32 39 17z"/>
<path d="M2935 5021 c-3 -5 -5 -55 -4 -110 l1 -101 109 0 109 0 0 110 0 110
-104 0 c-58 0 -107 -4 -111 -9z"/>
<path d="M3310 4920 l0 -110 105 0 105 0 0 110 0 110 -105 0 -105 0 0 -110z"/>
<path d="M2936 4664 c-3 -9 -6 -60 -6 -115 l0 -99 110 0 110 0 0 115 0 115
-104 0 c-85 0 -105 -3 -110 -16z"/>
<path d="M3310 4565 l0 -115 104 0 105 0 0 115 1 115 -105 0 -105 0 0 -115z"/>
<path d="M6495 4920 c3 -5 8 -10 11 -10 2 0 4 5 4 10 0 6 -5 10 -11 10 -5 0
-7 -4 -4 -10z"/>
<path d="M4391 4827 c-2 -33 -39 -74 -95 -105 -76 -43 -86 -81 -69 -254 l6
-68 163 0 164 0 0 119 c0 66 -4 131 -10 145 -5 14 -34 41 -63 60 -54 35 -80
65 -90 101 -4 18 -5 18 -6 2z"/>
<path d="M4905 4796 c-14 -28 -35 -49 -70 -69 -27 -16 -55 -36 -62 -45 -8 -12
-12 -59 -13 -149 l0 -133 159 0 158 0 7 61 c17 165 3 221 -65 261 -52 31 -78
57 -87 90 -7 24 -8 23 -27 -16z"/>
<path d="M5946 4797 c-10 -22 -32 -47 -49 -56 -16 -9 -45 -29 -63 -45 l-34
-28 0 -134 0 -134 165 0 165 0 0 131 0 131 -34 32 c-19 17 -51 44 -72 61 -20
16 -42 41 -48 56 l-11 26 -19 -40z"/>
<path d="M5429 4801 c-9 -24 -29 -44 -79 -76 -78 -50 -77 -45 -72 -212 l3
-113 165 0 164 0 0 116 c0 140 -10 165 -83 214 -29 20 -60 50 -69 70 l-18 34
-11 -33z"/>
<path d="M4920 4020 c0 -5 5 -10 11 -10 5 0 7 5 4 10 -3 6 -8 10 -11 10 -2 0
-4 -4 -4 -10z"/>
<path d="M5630 4025 c0 -5 4 -16 9 -24 8 -12 12 -12 25 2 9 9 12 18 7 21 -5 4
-12 0 -14 -6 -4 -10 -8 -9 -16 2 -6 8 -11 11 -11 5z"/>
<path d="M5921 4018 c-1 -10 6 -18 14 -18 8 0 15 5 15 11 0 5 -4 8 -9 5 -5 -4
-12 0 -14 6 -3 8 -6 6 -6 -4z"/>
<path d="M4351 4004 c0 -11 3 -14 6 -6 3 7 2 16 -1 19 -3 4 -6 -2 -5 -13z"/>
<path d="M5140 4010 c0 -5 5 -10 11 -10 5 0 7 5 4 10 -3 6 -8 10 -11 10 -2 0
-4 -4 -4 -10z"/>
<path d="M5298 4013 c7 -3 16 -2 19 1 4 3 -2 6 -13 5 -11 0 -14 -3 -6 -6z"/>
<path d="M5375 4010 c3 -5 8 -10 11 -10 2 0 4 5 4 10 0 6 -5 10 -11 10 -5 0
-7 -4 -4 -10z"/>
<path d="M5495 4010 c3 -5 8 -10 11 -10 2 0 4 5 4 10 0 6 -5 10 -11 10 -5 0
-7 -4 -4 -10z"/>
<path d="M5565 4010 c-3 -5 -1 -10 4 -10 6 0 11 5 11 10 0 6 -2 10 -4 10 -3 0
-8 -4 -11 -10z"/>
<path d="M6010 4010 c0 -5 5 -10 10 -10 6 0 10 5 10 10 0 6 -4 10 -10 10 -5 0
-10 -4 -10 -10z"/>
<path d="M6090 4010 c-12 -8 -10 -10 8 -10 13 0 20 4 17 10 -7 12 -6 12 -25 0z"/>
<path d="M4380 3989 c0 -5 5 -7 10 -4 6 3 10 8 10 11 0 2 -4 4 -10 4 -5 0 -10
-5 -10 -11z"/>
<path d="M4420 3990 c0 -5 5 -10 11 -10 5 0 7 5 4 10 -3 6 -8 10 -11 10 -2 0
-4 -4 -4 -10z"/>
<path d="M4830 3990 c0 -5 5 -10 10 -10 6 0 10 5 10 10 0 6 -4 10 -10 10 -5 0
-10 -4 -10 -10z"/>
<path d="M4940 3990 c0 -5 5 -10 10 -10 6 0 10 5 10 10 0 6 -4 10 -10 10 -5 0
-10 -4 -10 -10z"/>
<path d="M5010 3990 c0 -5 5 -10 10 -10 6 0 10 5 10 10 0 6 -4 10 -10 10 -5 0
-10 -4 -10 -10z"/>
<path d="M5210 3989 c0 -5 5 -7 10 -4 6 3 10 8 10 11 0 2 -4 4 -10 4 -5 0 -10
-5 -10 -11z"/>
<path d="M5240 3990 c0 -5 5 -10 10 -10 6 0 10 5 10 10 0 6 -4 10 -10 10 -5 0
-10 -4 -10 -10z"/>
<path d="M5315 3990 c-3 -5 -1 -10 4 -10 6 0 11 5 11 10 0 6 -2 10 -4 10 -3 0
-8 -4 -11 -10z"/>
<path d="M5480 3990 c0 -5 5 -10 11 -10 5 0 7 5 4 10 -3 6 -8 10 -11 10 -2 0
-4 -4 -4 -10z"/>
<path d="M5098 3983 c7 -3 16 -2 19 1 4 3 -2 6 -13 5 -11 0 -14 -3 -6 -6z"/>
<path d="M5910 3980 c0 -5 5 -10 11 -10 5 0 7 5 4 10 -3 6 -8 10 -11 10 -2 0
-4 -4 -4 -10z"/>
<path d="M4358 3854 c-35 -18 -48 -43 -48 -89 0 -108 102 -155 176 -81 50 50
50 105 -1 154 -39 36 -81 42 -127 16z"/>
<path d="M5879 3856 c-15 -9 -34 -32 -44 -52 -14 -31 -15 -43 -6 -75 37 -124
211 -96 211 35 0 76 -94 129 -161 92z"/>
<path d="M3876 3971 c-4 -7 -5 -15 -2 -18 9 -9 19 4 14 18 -4 11 -6 11 -12 0z"/>
<path d="M3670 3234 c0 -8 5 -12 10 -9 6 4 8 11 5 16 -9 14 -15 11 -15 -7z"/>
<path d="M3695 3220 c-3 -5 -1 -10 4 -10 6 0 11 5 11 10 0 6 -2 10 -4 10 -3 0
-8 -4 -11 -10z"/>
<path d="M3695 3180 c-3 -5 -1 -10 4 -10 6 0 11 5 11 10 0 6 -2 10 -4 10 -3 0
-8 -4 -11 -10z"/>
<path d="M3660 2520 c0 -5 5 -10 10 -10 6 0 10 5 10 10 0 6 -4 10 -10 10 -5 0
-10 -4 -10 -10z"/>
<path d="M3665 2480 c4 -6 11 -8 16 -5 14 9 11 15 -7 15 -8 0 -12 -5 -9 -10z"/>
<path d="M3690 2189 c0 -5 5 -7 10 -4 6 3 10 8 10 11 0 2 -4 4 -10 4 -5 0 -10
-5 -10 -11z"/>
<path d="M3690 2149 c0 -5 5 -7 10 -4 6 3 10 8 10 11 0 2 -4 4 -10 4 -5 0 -10
-5 -10 -11z"/>
<path d="M3690 2109 c0 -5 5 -7 10 -4 6 3 10 8 10 11 0 2 -4 4 -10 4 -5 0 -10
-5 -10 -11z"/>
<path d="M3660 2090 c0 -5 5 -10 10 -10 6 0 10 5 10 10 0 6 -4 10 -10 10 -5 0
-10 -4 -10 -10z"/>
<path d="M6675 3581 c3 -5 -3 -12 -12 -14 -15 -4 -15 -5 -2 -6 9 0 22 6 29 14
10 12 9 15 -4 15 -10 0 -15 -4 -11 -9z"/>
<path d="M6532 3451 c-41 -35 -42 -37 -42 -98 l0 -63 85 0 c90 0 91 0 85 54
-1 10 4 23 12 27 10 7 10 9 1 9 -16 0 -17 27 -2 32 5 2 -9 15 -31 28 -23 14
-47 30 -54 36 -9 9 -22 3 -54 -25z"/>
<path d="M6560 3106 c0 -7 -19 -26 -41 -41 -41 -26 -41 -28 -35 -72 3 -25 6
-108 6 -184 l0 -139 80 0 c66 0 81 3 88 18 4 9 7 71 5 137 -1 66 -3 143 -3
171 0 48 -2 51 -40 73 -22 12 -40 29 -40 37 0 8 -4 14 -10 14 -5 0 -10 -6 -10
-14z"/>
<path d="M6690 2836 c0 -2 7 -7 16 -10 8 -3 12 -2 9 4 -6 10 -25 14 -25 6z"/>
<path d="M6533 2494 l-43 -41 0 -102 0 -102 88 3 87 3 0 103 0 103 -42 27
c-23 15 -44 31 -45 37 -2 6 -22 -8 -45 -31z"/>
<path d="M6680 2200 c-9 -6 -10 -10 -3 -10 6 0 15 5 18 10 8 12 4 12 -15 0z"/>
<path d="M3265 3940 c-3 -5 -1 -10 4 -10 6 0 11 5 11 10 0 6 -2 10 -4 10 -3 0
-8 -4 -11 -10z"/>
<path d="M7531 3942 c-17 -31 -13 -40 5 -14 9 13 14 26 11 29 -3 2 -10 -4 -16
-15z"/>
<path d="M7520 3890 c0 -5 5 -10 10 -10 6 0 10 5 10 10 0 6 -4 10 -10 10 -5 0
-10 -4 -10 -10z"/>
<path d="M3650 2410 c0 -5 5 -10 10 -10 6 0 10 5 10 10 0 6 -4 10 -10 10 -5 0
-10 -4 -10 -10z"/>
<path d="M3650 2310 c0 -5 5 -10 10 -10 6 0 10 5 10 10 0 6 -4 10 -10 10 -5 0
-10 -4 -10 -10z"/>
<path d="M6780 4920 l0 -110 98 0 c54 0 101 2 103 4 2 2 3 52 1 110 l-3 106
-100 0 -99 0 0 -110z"/>
<path d="M7140 4920 l0 -110 105 0 105 0 0 110 0 110 -105 0 -105 0 0 -110z"/>
<path d="M7509 4945 c-1 -47 -2 -95 -2 -107 -1 -22 2 -23 96 -26 l97 -3 0 111
0 110 -95 0 -95 0 -1 -85z"/>
<path d="M6780 4565 l0 -116 103 3 c56 2 101 6 100 11 -2 4 -3 54 -3 112 l0
105 -100 0 -100 0 0 -115z"/>
<path d="M7140 4565 l0 -115 105 0 105 0 0 115 0 115 -105 0 -105 0 0 -115z"/>
<path d="M7510 4565 l0 -115 95 0 95 0 0 115 0 115 -95 0 -95 0 0 -115z"/>
<path d="M2120 1305 l0 -85 3050 0 3050 0 0 85 0 85 -3050 0 -3050 0 0 -85z"/>
</g>
</svg>
