<?xml version="1.0" standalone="no"?>
<!DOCTYPE svg PUBLIC "-//W3C//DTD SVG 20010904//EN"
 "http://www.w3.org/TR/2001/REC-SVG-20010904/DTD/svg10.dtd">
<svg version="1.0" xmlns="http://www.w3.org/2000/svg"
 width="1024.000000pt" height="1024.000000pt" viewBox="0 0 1024.000000 1024.000000"
 preserveAspectRatio="xMidYMid meet">

<g transform="translate(0.000000,1024.000000) scale(0.100000,-0.100000)"
fill="#000000" stroke="none">
<path d="M5093 8648 c-28 -31 -37 -66 -22 -84 10 -12 8 -19 -10 -37 -28 -31
-27 -61 5 -84 l26 -19 -23 -26 c-15 -16 -44 -30 -79 -37 -201 -45 -330 -142
-410 -306 -32 -65 -54 -161 -48 -207 5 -31 -3 -36 -22 -14 -6 8 -33 23 -58 32
-70 26 -76 33 -52 59 26 28 25 60 -2 80 -16 12 -19 19 -10 22 24 9 12 67 -18
83 -26 14 -48 3 -66 -32 -14 -27 -14 -32 0 -47 15 -16 14 -19 -4 -36 -26 -23
-25 -43 1 -71 l21 -22 -24 -15 c-12 -8 -45 -26 -71 -41 -53 -30 -101 -95 -119
-161 l-11 -40 -76 38 c-42 20 -103 42 -136 49 -33 6 -68 18 -78 26 -15 14 -16
17 -2 32 19 21 19 54 0 70 -11 9 -12 16 -3 30 15 23 -13 70 -41 70 -26 0 -57
-49 -44 -69 7 -12 5 -23 -10 -43 l-21 -28 22 -23 c21 -22 21 -24 5 -39 -10 -8
-51 -23 -92 -33 -237 -57 -407 -238 -419 -447 -3 -59 -8 -78 -18 -74 -46 18
-88 17 -153 -3 -137 -42 -241 -174 -263 -334 l-11 -75 -59 -11 c-78 -13 -140
-45 -204 -104 -93 -85 -129 -197 -122 -380 2 -58 1 -104 -3 -102 -3 3 -29 20
-57 39 -28 19 -68 39 -89 46 -86 26 -93 31 -80 50 8 15 8 25 -3 44 -7 14 -11
29 -7 32 10 10 -12 44 -28 44 -17 0 -39 -36 -30 -50 3 -5 0 -18 -7 -30 -10
-16 -10 -24 -1 -39 16 -25 4 -34 -61 -50 -126 -31 -239 -127 -300 -253 -57
-120 -61 -156 -61 -528 0 -184 -1 -1166 -3 -2182 l-2 -1848 -110 0 -111 0 3
-82 3 -83 3683 -3 3682 -2 0 85 0 85 -105 0 -105 0 0 1131 0 1131 -27 29 c-16
16 -38 29 -50 29 -47 0 -51 -24 -57 -345 -3 -165 -5 -308 -6 -318 0 -16 -19
-17 -287 -15 l-288 3 -5 325 c-3 179 -8 330 -12 336 -14 21 -47 22 -72 3 -32
-25 -44 -24 -39 4 5 29 -61 77 -80 58 -9 -9 -13 -107 -15 -371 l-3 -360 -174
0 -175 0 -2 361 c-3 326 -5 363 -20 372 -12 8 -24 7 -45 -3 -15 -8 -31 -16
-35 -18 -5 -2 -8 9 -8 25 0 30 33 93 50 93 5 0 10 8 10 19 0 35 30 90 62 115
18 13 59 32 91 41 46 13 57 20 53 33 -3 9 1 35 9 57 12 33 20 40 16 13 0 -4 6
-19 14 -35 13 -25 13 -28 -2 -34 -16 -5 -16 -7 2 -16 11 -6 36 -13 55 -17 74
-13 124 -61 141 -135 5 -22 20 -57 34 -77 14 -20 25 -48 25 -61 0 -24 1 -23
34 11 34 36 71 47 93 25 7 -7 13 0 18 27 19 104 82 165 199 195 41 10 47 15
42 32 -5 22 14 97 26 97 8 0 10 -15 10 -77 0 -33 4 -43 17 -43 26 0 117 -36
151 -60 36 -26 67 -82 76 -139 4 -23 8 -41 9 -41 2 0 15 6 29 14 15 8 36 11
47 9 23 -6 55 -49 64 -86 4 -15 11 -30 16 -33 5 -3 9 322 9 774 l0 778 -28 27
c-15 15 -37 27 -49 27 -46 0 -48 -11 -51 -382 l-3 -348 -294 0 -294 0 -3 370
c-3 306 -5 372 -17 379 -19 12 -40 4 -73 -27 -28 -26 -28 -26 -28 -3 0 32 36
98 61 112 12 6 34 8 50 5 26 -5 29 -3 29 20 0 83 90 159 222 188 25 6 27 9 16
26 -10 16 -10 24 0 40 6 11 12 27 12 35 0 8 4 15 10 15 5 0 7 -7 4 -15 -4 -8
-1 -22 6 -30 7 -8 10 -25 6 -38 -5 -21 0 -25 70 -45 98 -29 156 -80 181 -158
13 -43 20 -53 32 -48 39 18 75 9 95 -22 12 -18 27 -40 33 -50 10 -15 12 38 10
266 -2 271 -3 288 -25 342 -55 136 -155 230 -285 269 -87 26 -92 30 -75 58 11
19 11 24 -2 34 -8 7 -14 21 -12 33 4 25 -20 47 -42 38 -9 -3 -16 -17 -16 -30
0 -13 -5 -33 -12 -44 -10 -15 -9 -22 6 -38 20 -23 21 -23 -69 -51 -38 -13 -89
-33 -111 -47 l-42 -24 -4 143 c-3 128 -6 148 -30 199 -53 114 -164 203 -269
215 l-49 6 0 57 c0 204 -156 373 -346 375 l-71 0 -7 65 c-8 95 -31 160 -78
230 -71 106 -206 190 -355 221 -72 15 -92 36 -68 73 17 26 12 51 -12 60 -12 5
-13 9 -3 21 16 20 5 62 -21 76 -17 9 -25 7 -45 -12 -28 -26 -31 -54 -6 -64 15
-6 13 -9 -10 -21 -33 -17 -36 -47 -7 -67 34 -25 10 -49 -73 -76 -83 -27 -149
-59 -195 -96 l-31 -26 -7 43 c-9 57 -50 146 -83 181 -15 16 -53 42 -84 58 -61
31 -67 39 -43 59 24 20 18 58 -11 73 -23 12 -24 15 -10 26 33 28 13 81 -29 81
-41 0 -75 -67 -44 -85 7 -5 3 -14 -10 -26 -26 -25 -26 -40 -1 -72 11 -14 20
-28 20 -31 0 -3 -20 -11 -44 -17 -25 -6 -60 -22 -78 -36 l-33 -24 -7 69 c-17
164 -110 305 -263 397 -64 38 -198 85 -244 85 -16 0 -37 10 -51 25 l-23 25 21
23 c27 29 28 61 2 87 -16 16 -18 25 -10 40 16 29 12 49 -15 75 -30 31 -46 31
-72 3z m74 -675 c3 -14 1 -23 -6 -23 -28 0 -7 -20 27 -25 202 -31 306 -94 342
-207 19 -60 19 -60 43 -43 35 25 66 18 107 -23 35 -35 82 -143 68 -157 -3 -3
-23 5 -43 20 -51 34 -98 34 -113 0 -9 -19 -12 -198 -12 -651 l0 -624 -447 2
-448 3 -5 645 c-3 355 -6 646 -8 648 -1 1 -19 2 -40 2 -28 0 -52 -9 -81 -30
l-42 -31 7 38 c13 74 57 144 106 169 25 13 32 13 59 -1 17 -9 32 -15 33 -13 1
2 10 24 20 50 20 53 94 129 151 153 40 16 125 39 188 50 32 5 36 9 27 21 -10
11 -8 25 11 67 l24 54 13 -36 c8 -20 16 -46 19 -58z m-1407 -509 c0 -9 9 -31
20 -49 18 -30 19 -35 5 -48 -20 -21 -19 -27 7 -27 38 0 151 -32 198 -55 25
-13 59 -38 77 -57 35 -36 72 -111 73 -145 0 -28 14 -37 30 -18 17 21 73 19 92
-2 32 -36 79 -153 62 -153 -3 0 -17 9 -31 20 -29 22 -82 27 -101 8 -9 -9 -12
-116 -12 -418 l0 -407 -410 -7 c-226 -3 -415 -4 -420 -1 -6 4 -10 165 -10 410
0 222 -3 410 -6 419 -10 25 -68 20 -102 -9 -17 -14 -33 -22 -35 -17 -9 13 29
112 53 137 32 34 54 39 89 20 l30 -15 12 42 c37 139 132 214 307 243 44 7 50
13 31 32 -9 9 -8 18 5 37 9 14 16 37 16 51 0 14 5 25 10 25 6 0 10 -7 10 -16z
m2845 -58 c17 -25 17 -27 0 -46 -20 -23 -26 -20 85 -44 143 -31 218 -95 255
-215 17 -56 20 -60 35 -46 25 22 73 19 98 -7 36 -39 78 -148 57 -148 -3 0 -18
9 -33 19 -40 28 -78 34 -96 15 -14 -13 -16 -65 -16 -420 l0 -404 -420 0 -420
0 0 399 c0 220 -3 406 -6 415 -10 26 -68 20 -103 -10 l-31 -26 0 24 c0 37 52
131 81 147 22 12 30 12 58 -2 23 -12 33 -13 35 -4 12 43 39 107 56 134 31 52
114 100 215 125 50 12 92 23 93 25 2 1 -1 10 -6 19 -8 14 -5 28 9 56 11 21 19
41 18 45 -4 23 4 24 11 2 4 -14 15 -38 25 -53z m-1468 -1418 c-2 -7 4 -27 14
-45 17 -28 18 -33 4 -46 -31 -32 -23 -37 85 -53 150 -22 248 -98 281 -219 11
-40 28 -44 54 -15 25 27 57 25 95 -6 35 -30 70 -92 70 -124 0 -21 -1 -21 -31
4 -53 45 -90 34 -114 -33 -12 -36 -15 -107 -15 -412 l0 -369 -450 0 -450 0 -1
368 c-1 399 -5 435 -51 462 -26 14 -29 13 -72 -17 l-45 -32 6 32 c19 106 119
181 168 127 10 -11 22 -20 26 -20 4 0 15 22 23 48 39 116 123 177 285 207 47
8 86 17 89 19 2 2 -3 15 -12 28 -14 21 -14 27 -1 44 8 10 15 29 15 42 0 13 6
22 16 22 9 0 14 -6 11 -12z m1441 -106 c-2 -11 4 -31 12 -46 11 -22 12 -31 1
-48 -7 -11 -11 -21 -9 -23 2 -1 37 -9 78 -18 156 -31 234 -90 271 -205 l22
-69 38 21 c35 19 41 20 66 6 29 -16 97 -135 87 -152 -3 -5 -21 5 -41 22 -41
36 -58 36 -87 -3 -20 -27 -21 -41 -24 -363 l-3 -334 -424 0 -424 0 2 339 c2
321 1 340 -17 360 -24 26 -58 27 -81 1 -50 -55 -50 7 0 81 29 44 65 57 109 41
36 -14 39 -11 56 51 16 59 83 137 144 166 24 12 76 28 115 35 40 8 75 16 77
19 3 3 1 15 -6 26 -8 17 -8 26 5 43 8 13 15 33 15 45 0 13 5 23 11 23 5 0 9
-8 7 -18z m-2818 -14 c0 -13 7 -31 15 -42 11 -14 11 -22 2 -37 -14 -22 2 -39
38 -39 48 0 144 -33 192 -66 40 -28 60 -51 83 -97 16 -33 30 -70 30 -83 0 -32
12 -36 46 -13 16 10 34 19 41 19 35 0 113 -107 113 -156 0 -12 -7 -10 -31 10
-39 33 -62 33 -88 0 -20 -26 -21 -38 -21 -360 l0 -334 -422 2 -423 3 3 320 c3
294 2 323 -15 355 -23 44 -51 49 -92 14 -18 -14 -34 -25 -36 -22 -10 10 20 89
47 122 33 40 78 49 109 20 24 -22 36 -12 43 40 18 117 129 200 309 231 39 6
45 13 25 33 -9 9 -9 18 0 37 7 14 12 35 12 45 0 11 5 20 10 20 6 0 10 -10 10
-22z m-1635 -78 c-3 -5 0 -20 6 -34 9 -19 9 -29 0 -40 -14 -17 -8 -22 45 -30
94 -16 180 -94 199 -181 13 -58 13 -58 41 -36 37 29 57 26 92 -13 30 -35 59
-102 48 -113 -3 -4 -19 6 -34 20 -34 32 -53 34 -78 6 -18 -20 -19 -45 -24
-363 l-5 -341 -305 1 -305 0 -5 352 c-4 299 -7 354 -20 362 -24 16 -39 12 -66
-17 -31 -34 -38 -26 -24 28 19 68 93 125 115 89 12 -19 20 -10 38 41 27 76 83
124 176 153 49 15 75 28 73 36 -5 20 21 99 30 94 5 -3 6 -9 3 -14z m5354 -191
c-15 -9 -17 -8 59 -28 60 -17 109 -63 126 -121 8 -26 26 -59 40 -73 18 -18 26
-37 26 -62 l0 -36 -30 22 c-24 18 -32 20 -45 9 -13 -11 -15 -56 -15 -331 l0
-319 -175 0 -175 0 0 314 c0 173 -3 321 -6 330 -9 23 -54 20 -81 -6 -13 -12
-26 -18 -29 -15 -10 10 24 92 46 112 11 10 22 33 26 52 10 53 60 99 131 120
66 19 61 13 79 105 l7 33 14 -49 c12 -40 12 -50 2 -57z m-4613 75 c-4 -9 -1
-23 5 -30 6 -8 8 -25 5 -39 -5 -21 -3 -25 16 -25 37 0 124 -46 145 -76 11 -16
23 -42 27 -59 4 -16 14 -37 21 -45 20 -22 58 -110 51 -118 -3 -3 -17 5 -30 17
-15 14 -33 21 -48 19 l-23 -3 -3 -337 -2 -338 -175 0 -175 0 0 335 c0 368 1
364 -58 334 -15 -7 -30 -15 -34 -17 -5 -2 -8 7 -8 20 0 24 44 98 58 98 4 0 13
20 20 44 14 53 65 101 124 116 70 18 74 20 60 29 -11 6 -11 16 0 49 7 23 17
42 22 42 4 0 5 -7 2 -16z m2274 -1209 c0 -9 7 -27 16 -41 15 -21 15 -28 4 -50
-18 -32 -9 -39 76 -53 81 -14 154 -45 203 -87 35 -29 91 -134 91 -170 0 -32 8
-34 49 -11 34 19 41 19 70 7 18 -7 43 -27 56 -44 22 -29 57 -117 50 -125 -2
-1 -19 9 -38 23 -65 50 -103 26 -117 -75 -5 -35 -10 -216 -10 -401 l0 -338
-435 -2 c-239 -1 -445 -2 -457 -2 l-23 -1 -5 385 c-6 386 -10 431 -43 452 -24
15 -57 7 -90 -22 -43 -37 -48 -37 -38 -2 30 100 80 162 133 162 21 0 43 -8 57
-21 19 -18 25 -19 32 -8 5 8 9 22 9 33 0 32 61 135 96 161 51 39 135 75 206
87 82 15 93 23 72 55 -14 23 -14 26 0 42 9 10 16 27 16 39 0 12 5 22 10 22 6
0 10 -7 10 -15z m1430 -63 c0 -10 7 -28 17 -41 13 -19 14 -28 5 -42 -19 -30
-14 -36 36 -44 139 -20 225 -67 271 -147 17 -29 34 -68 37 -85 7 -38 11 -39
44 -13 54 42 97 16 142 -89 28 -64 21 -78 -18 -36 -45 49 -87 22 -99 -65 -6
-46 -12 -281 -14 -577 l-1 -163 -425 0 -425 0 0 350 c0 351 -7 435 -37 465
-20 21 -35 19 -77 -10 l-38 -26 7 33 c23 104 109 164 164 114 22 -20 23 -19
45 49 33 101 114 161 259 191 83 18 96 26 73 49 -14 15 -15 19 -1 38 8 12 15
32 15 44 0 13 5 23 10 23 6 0 10 -8 10 -18z m-2810 -9 c1 -10 7 -29 14 -42 12
-21 12 -28 -1 -48 -17 -25 -25 -21 86 -43 142 -28 235 -109 256 -223 4 -20 9
-37 12 -37 3 0 18 11 35 25 16 14 37 25 47 25 27 0 88 -71 105 -123 21 -62 20
-64 -6 -40 -33 29 -64 44 -82 37 -8 -3 -23 -22 -33 -42 -16 -34 -18 -73 -21
-419 l-3 -383 -418 0 -419 0 -5 138 c-3 75 -6 234 -6 352 0 218 -6 301 -23
333 -13 26 -58 21 -91 -10 l-29 -28 6 25 c19 67 40 112 63 130 30 23 70 25 97
5 28 -21 34 -19 41 18 25 115 123 195 270 218 70 12 81 20 64 47 -10 17 -10
24 4 46 9 14 17 32 17 41 0 21 20 19 20 -2z m-1628 -220 c8 -17 8 -26 -2 -38
-17 -20 -14 -23 56 -41 104 -27 161 -79 185 -169 17 -69 16 -67 43 -50 41 27
68 16 98 -40 15 -27 28 -59 28 -69 0 -18 -1 -18 -23 2 -29 28 -59 28 -83 1
-18 -20 -19 -43 -22 -350 l-3 -329 -300 0 -299 0 0 314 c0 384 -7 413 -88 366
-19 -12 -37 -19 -39 -16 -8 8 7 43 37 85 24 32 37 41 59 41 17 0 33 -4 36 -10
12 -19 23 -10 30 27 20 108 100 180 228 207 26 6 37 29 18 41 -6 3 -4 17 5 33
7 15 14 34 15 42 1 8 3 6 6 -5 2 -11 9 -30 15 -42z m746 -30 c-3 -22 4 -27 56
-43 86 -27 136 -84 136 -154 0 -14 6 -29 14 -33 19 -11 58 -91 51 -104 -4 -5
-17 -1 -32 11 -31 24 -59 26 -67 4 -3 -9 -6 -180 -6 -380 l0 -364 -175 0 -175
0 -2 377 c-3 358 -4 378 -21 381 -11 2 -30 -6 -43 -19 -13 -12 -27 -20 -30
-16 -12 12 8 80 30 102 13 13 26 40 29 61 4 21 15 50 25 64 21 30 115 80 150
80 20 0 23 4 19 22 -3 12 -1 38 6 59 l11 38 13 -31 c7 -17 12 -42 11 -55z
m2357 -1458 c116 -35 172 -64 226 -117 52 -50 85 -112 99 -187 6 -31 10 -234
10 -482 l0 -429 -441 0 -440 0 3 463 3 462 32 67 c54 114 125 169 289 222 43
15 86 30 94 36 8 5 19 5 25 1 5 -5 50 -21 100 -36z m1329 -121 c120 -61 154
-88 177 -138 17 -38 19 -73 19 -498 l0 -458 -290 0 -291 0 3 458 c4 564 -9
521 184 627 55 30 101 55 103 55 3 0 46 -21 95 -46z m929 -2 c91 -51 143 -101
157 -151 6 -22 10 -217 10 -489 l0 -452 -252 2 -253 3 3 450 c2 496 3 503 65
562 32 32 177 125 187 120 3 -1 40 -22 83 -45z m879 -70 c16 -13 39 -43 51
-66 22 -40 22 -49 25 -499 l3 -457 -288 2 -288 3 0 435 c0 391 2 440 18 481
24 64 70 106 178 165 l94 51 89 -45 c48 -25 101 -56 118 -70z m-6169 62 c51
-25 106 -59 124 -76 61 -59 63 -74 63 -565 l0 -443 -285 0 -286 0 3 458 c3
509 0 482 75 553 32 31 182 117 206 119 4 0 49 -21 100 -46z m794 0 c43 -25
93 -60 111 -77 59 -57 62 -81 62 -569 l0 -438 -257 2 -258 3 0 450 c0 438 1
451 21 496 12 26 38 59 58 75 43 35 156 102 173 103 7 1 47 -20 90 -45z m955
1 c114 -56 162 -103 178 -178 7 -35 10 -191 8 -477 l-3 -425 -287 -3 -288 -2
0 441 c0 479 2 495 54 555 29 32 204 133 233 134 7 0 55 -20 105 -45z"/>
<path d="M5090 7199 c-19 -10 -43 -18 -52 -19 -16 0 -18 -12 -18 -111 l0 -112
61 7 c34 3 84 6 110 6 l49 0 0 100 c0 87 -2 101 -17 107 -10 3 -34 13 -53 21
-19 9 -37 17 -40 18 -3 1 -21 -7 -40 -17z"/>
<path d="M5300 7072 c0 -54 2 -101 4 -103 2 -2 38 -3 80 -1 73 3 76 4 76 28 0
51 -58 122 -130 159 l-30 16 0 -99z"/>
<path d="M4902 7143 c-57 -28 -90 -69 -98 -119 -3 -25 -4 -48 0 -51 3 -4 39
-6 79 -6 l72 1 3 96 c3 106 2 108 -56 79z"/>
<path d="M5020 6765 l0 -145 110 0 110 0 0 144 0 144 -110 1 -110 2 0 -146z"/>
<path d="M5304 6901 c-2 -2 -4 -67 -4 -143 l0 -139 83 3 82 3 3 80 c2 44 1
107 -3 140 l-6 60 -75 0 c-42 0 -77 -2 -80 -4z"/>
<path d="M4800 6760 l0 -140 80 0 80 0 0 140 0 140 -80 0 -80 0 0 -140z"/>
<path d="M4800 6465 c0 -52 -1 -98 -2 -102 -2 -5 34 -9 80 -11 l83 -3 -3 103
-3 103 -77 3 -78 3 0 -96z"/>
<path d="M5020 6455 l0 -105 110 0 111 0 -3 103 -3 102 -107 3 -108 3 0 -106z"/>
<path d="M5300 6455 l0 -106 83 3 82 3 1 90 c0 50 -2 96 -4 103 -3 8 -29 12
-83 12 l-79 0 0 -105z"/>
<path d="M3713 6740 l-43 -19 0 -121 0 -120 95 0 95 0 0 123 0 124 -41 12
c-23 7 -46 14 -53 16 -6 2 -30 -5 -53 -15z"/>
<path d="M3500 6722 c-30 -30 -30 -32 -30 -136 l0 -106 70 0 70 0 0 33 c0 19
3 67 6 108 7 83 -6 112 -58 125 -22 5 -33 0 -58 -24z"/>
<path d="M3953 6735 c-40 -17 -45 -35 -41 -155 l3 -95 73 -3 72 -3 0 109 c0
90 -3 113 -17 130 -25 28 -52 33 -90 17z"/>
<path d="M3470 6315 l0 -105 70 0 70 0 0 105 0 105 -70 0 -70 0 0 -105z"/>
<path d="M3670 6315 l0 -105 95 0 95 0 0 105 0 105 -95 0 -95 0 0 -105z"/>
<path d="M3917 6413 c-4 -3 -7 -51 -7 -105 l0 -98 75 0 75 0 0 105 0 105 -68
0 c-38 0 -72 -3 -75 -7z"/>
<path d="M6519 6741 l-44 -17 -3 -122 -3 -122 96 0 96 0 -3 121 -3 121 -46 17
c-43 17 -49 17 -90 2z"/>
<path d="M6292 6717 c-20 -21 -22 -34 -22 -130 l0 -107 70 0 70 0 0 120 c0
120 0 121 -26 130 -41 16 -69 12 -92 -13z"/>
<path d="M6730 6720 c-18 -18 -20 -33 -20 -130 l0 -110 75 0 75 0 0 108 c0
100 -2 110 -23 130 -30 28 -80 29 -107 2z"/>
<path d="M6270 6315 l0 -105 70 0 70 0 0 105 0 105 -70 0 -70 0 0 -105z"/>
<path d="M6470 6315 l0 -105 95 0 95 0 0 105 0 105 -95 0 -95 0 0 -105z"/>
<path d="M6717 6413 c-4 -3 -7 -51 -7 -105 l0 -98 53 0 c28 0 62 -3 75 -6 22
-6 22 -6 22 105 l0 111 -68 0 c-38 0 -72 -3 -75 -7z"/>
<path d="M5073 5568 l-53 -21 0 -99 0 -99 108 3 107 3 3 92 3 93 -57 25 c-31
14 -57 25 -58 24 0 0 -25 -10 -53 -21z"/>
<path d="M4900 5506 c-41 -23 -61 -43 -77 -76 -39 -75 -35 -80 57 -80 l80 0 0
95 c0 52 -1 95 -2 94 -2 0 -28 -15 -58 -33z"/>
<path d="M5300 5441 l0 -91 73 0 c41 0 76 3 80 6 7 8 -12 63 -34 95 -10 14
-40 37 -68 53 l-51 27 0 -90z"/>
<path d="M5020 5176 l0 -126 110 0 110 0 0 119 c0 86 -3 120 -12 124 -7 2 -57
5 -110 6 l-98 2 0 -125z"/>
<path d="M4800 5170 l0 -120 80 0 80 0 0 120 0 120 -80 0 -80 0 0 -120z"/>
<path d="M5300 5170 l0 -120 80 0 80 0 0 120 0 120 -80 0 -80 0 0 -120z"/>
<path d="M4800 4890 l0 -100 80 0 80 0 0 100 0 100 -80 0 -80 0 0 -100z"/>
<path d="M5020 4890 l0 -100 110 0 110 0 0 100 0 100 -110 0 -110 0 0 -100z"/>
<path d="M5300 4890 l0 -100 80 0 80 0 0 100 0 100 -80 0 -80 0 0 -100z"/>
<path d="M6518 5476 l-48 -20 0 -73 0 -73 95 0 95 0 0 73 0 73 -47 20 c-48 20
-48 20 -95 0z"/>
<path d="M6366 5410 c-37 -28 -76 -75 -76 -93 0 -4 28 -7 63 -5 l62 3 3 63 c2
34 -1 62 -5 62 -4 0 -26 -14 -47 -30z"/>
<path d="M6720 5376 l0 -66 59 0 c33 0 62 4 66 10 7 12 -54 80 -94 103 l-31
18 0 -65z"/>
<path d="M6270 5149 l0 -111 65 4 c35 2 66 6 69 9 3 2 6 49 7 104 l2 100 -72
3 -71 3 0 -112z"/>
<path d="M6472 5153 l3 -108 93 -3 92 -3 0 111 0 110 -95 0 -96 0 3 -107z"/>
<path d="M6720 5155 l0 -105 75 0 75 0 0 105 0 105 -75 0 -75 0 0 -105z"/>
<path d="M6270 4890 l0 -100 70 0 70 0 0 100 0 100 -70 0 -70 0 0 -100z"/>
<path d="M6470 4890 l0 -100 95 0 95 0 0 100 0 100 -95 0 -95 0 0 -100z"/>
<path d="M6720 4890 l0 -100 75 0 75 0 0 100 0 100 -75 0 -75 0 0 -100z"/>
<path d="M3707 5474 l-47 -24 0 -70 0 -70 95 0 95 0 0 70 0 70 -48 24 -47 24
-48 -24z"/>
<path d="M3536 5387 c-31 -29 -56 -58 -56 -65 0 -8 20 -12 60 -12 l60 0 0 49
c0 27 3 56 6 65 11 30 -14 16 -70 -37z"/>
<path d="M3910 5380 l0 -60 66 0 65 0 -21 30 c-12 16 -41 44 -66 60 l-44 31 0
-61z"/>
<path d="M3460 5155 l0 -105 75 0 76 0 -3 103 -3 102 -72 3 -73 3 0 -106z"/>
<path d="M3662 5153 l3 -108 93 -3 92 -3 0 111 0 110 -95 0 -96 0 3 -107z"/>
<path d="M3908 5253 c-2 -5 -2 -54 0 -110 l4 -103 74 0 74 0 0 110 0 110 -74
0 c-41 0 -76 -3 -78 -7z"/>
<path d="M3456 4974 c-3 -9 -6 -54 -6 -100 l0 -84 75 0 75 0 0 100 0 100 -69
0 c-54 0 -70 -4 -75 -16z"/>
<path d="M3660 4890 l0 -100 95 0 95 0 0 100 0 100 -95 0 -95 0 0 -100z"/>
<path d="M3910 4890 l0 -100 75 0 75 0 0 100 0 100 -75 0 -75 0 0 -100z"/>
<path d="M2090 5257 c-14 -6 -28 -16 -32 -22 -9 -12 -10 -116 -2 -167 l7 -38
83 0 84 0 0 59 c0 32 -3 79 -6 103 -6 39 -11 48 -41 62 -39 19 -58 19 -93 3z"/>
<path d="M1947 5236 c-42 -18 -47 -32 -47 -123 l0 -83 50 0 51 0 -3 107 c-2
60 -7 107 -13 109 -5 1 -23 -3 -38 -10z"/>
<path d="M2282 5128 c3 -95 4 -103 23 -103 18 0 20 8 23 74 3 78 -11 131 -35
131 -11 0 -13 -19 -11 -102z"/>
<path d="M1900 4882 c0 -49 2 -91 4 -93 3 -2 25 -3 50 -1 l46 4 0 89 0 89 -50
0 -50 0 0 -88z"/>
<path d="M2058 4875 l3 -96 82 3 82 3 3 93 3 92 -88 0 -88 0 3 -95z"/>
<path d="M2280 4875 c0 -88 1 -95 20 -95 19 0 20 7 20 95 0 88 -1 95 -20 95
-19 0 -20 -7 -20 -95z"/>
<path d="M5080 4041 l-45 -17 -3 -97 -3 -97 101 0 100 0 0 95 0 95 -33 14
c-57 23 -71 24 -117 7z"/>
<path d="M4918 3975 c-53 -39 -73 -66 -82 -110 l-7 -30 76 3 75 4 0 84 c0 46
-3 84 -7 84 -5 0 -29 -16 -55 -35z"/>
<path d="M5289 4003 c-1 -4 -1 -44 -1 -88 l1 -80 73 0 73 0 -2 30 c-1 16 -11
41 -21 55 -21 27 -121 95 -123 83z"/>
<path d="M4760 3836 c-12 -26 -22 -72 -23 -104 -2 -52 0 -57 20 -60 21 -3 22
0 25 100 2 57 2 105 1 107 -2 2 -12 -17 -23 -43z"/>
<path d="M5480 3778 l0 -108 26 0 c27 0 27 0 22 68 -3 41 -13 83 -26 107 l-21
40 -1 -107z"/>
<path d="M4830 3735 l0 -55 75 0 75 0 0 55 0 55 -75 0 -75 0 0 -55z"/>
<path d="M5032 3733 l3 -58 95 4 c52 2 96 4 97 5 1 0 3 24 4 51 l3 50 -102 3
-103 3 3 -58z"/>
<path d="M5284 3777 c-3 -8 -4 -34 -2 -58 l3 -44 75 0 75 0 0 55 0 55 -73 3
c-55 2 -74 0 -78 -11z"/>
<path d="M4737 3624 c-4 -4 -7 -31 -7 -61 0 -49 2 -53 24 -53 19 0 26 7 30 28
12 53 -21 112 -47 86z"/>
<path d="M4837 3624 c-4 -4 -7 -31 -7 -61 l0 -53 75 0 76 0 -3 58 -3 57 -65 3
c-36 2 -69 0 -73 -4z"/>
<path d="M5030 3570 l0 -60 100 0 100 0 0 60 0 60 -100 0 -100 0 0 -60z"/>
<path d="M5287 3624 c-4 -4 -7 -31 -7 -61 l0 -53 80 0 81 0 -3 58 -3 57 -70 3
c-39 1 -74 0 -78 -4z"/>
<path d="M5480 3565 c0 -52 1 -55 25 -55 24 0 25 3 25 55 0 52 -1 55 -25 55
-24 0 -25 -3 -25 -55z"/>
<path d="M4730 3368 c0 -100 7 -122 36 -116 17 3 19 15 22 106 l3 102 -31 0
-30 0 0 -92z"/>
<path d="M4830 3355 l0 -105 75 0 75 0 0 105 0 105 -75 0 -75 0 0 -105z"/>
<path d="M5030 3355 l0 -105 100 0 100 0 0 105 0 105 -100 0 -100 0 0 -105z"/>
<path d="M5280 3355 l0 -105 80 0 80 0 0 105 0 105 -80 0 -80 0 0 -105z"/>
<path d="M5480 3355 l0 -105 25 0 25 0 0 105 0 105 -25 0 -25 0 0 -105z"/>
<path d="M6498 3993 l-38 -16 0 -103 0 -104 100 0 100 0 0 104 0 104 -47 16
c-55 19 -66 19 -115 -1z"/>
<path d="M6358 3935 c-57 -42 -74 -67 -82 -122 l-6 -43 70 0 70 0 0 100 c0 55
-1 100 -2 100 -2 0 -24 -16 -50 -35z"/>
<path d="M6710 3871 l0 -101 70 0 70 0 0 50 c0 49 -1 51 -61 98 -33 26 -65 49
-70 50 -5 2 -9 -41 -9 -97z"/>
<path d="M6202 3787 c-12 -34 -22 -86 -22 -114 0 -45 3 -53 19 -53 17 0 19 10
23 113 2 61 4 113 3 114 -1 2 -11 -25 -23 -60z"/>
<path d="M6903 3735 c2 -103 3 -110 22 -110 18 0 20 6 19 66 -1 43 -9 81 -22
110 l-21 44 2 -110z"/>
<path d="M6277 3723 c-4 -3 -7 -28 -7 -55 l0 -48 70 0 70 0 0 55 0 55 -63 0
c-35 0 -67 -3 -70 -7z"/>
<path d="M6460 3675 l0 -55 100 0 100 0 0 55 0 55 -100 0 -100 0 0 -55z"/>
<path d="M6710 3675 l0 -55 70 0 70 0 0 55 0 55 -70 0 -70 0 0 -55z"/>
<path d="M6180 3521 c0 -55 2 -61 20 -61 19 0 21 5 18 57 -2 46 -7 59 -20 61
-16 3 -18 -5 -18 -57z"/>
<path d="M6270 3520 l0 -60 70 0 70 0 0 60 0 60 -70 0 -70 0 0 -60z"/>
<path d="M6460 3520 l0 -60 100 0 100 0 0 60 0 60 -100 0 -100 0 0 -60z"/>
<path d="M6710 3520 l0 -60 70 0 70 0 0 60 0 60 -70 0 -70 0 0 -60z"/>
<path d="M6900 3520 c0 -57 1 -60 25 -60 24 0 25 3 25 60 0 57 -1 60 -25 60
-24 0 -25 -3 -25 -60z"/>
<path d="M6180 3325 c0 -78 2 -85 20 -85 18 0 20 7 20 85 0 78 -2 85 -20 85
-18 0 -20 -7 -20 -85z"/>
<path d="M6277 3403 c-4 -3 -7 -42 -7 -85 l0 -78 70 0 70 0 0 85 0 85 -63 0
c-35 0 -67 -3 -70 -7z"/>
<path d="M6460 3325 l0 -85 100 0 100 0 0 85 0 85 -100 0 -100 0 0 -85z"/>
<path d="M6710 3325 l0 -85 70 0 70 0 0 85 0 85 -70 0 -70 0 0 -85z"/>
<path d="M6900 3325 c0 -84 0 -85 25 -85 25 0 25 1 25 85 0 84 0 85 -25 85
-25 0 -25 -1 -25 -85z"/>
<path d="M3703 3990 l-43 -19 0 -101 0 -100 100 0 100 0 0 96 0 95 -55 25
c-31 13 -57 24 -58 23 -1 0 -21 -9 -44 -19z"/>
<path d="M3538 3919 c-44 -30 -59 -48 -68 -77 -19 -71 -19 -72 65 -72 l75 0 0
95 c0 52 -3 95 -7 94 -5 0 -34 -18 -65 -40z"/>
<path d="M3910 3866 l0 -96 66 0 67 0 -6 45 c-5 51 -17 67 -82 114 l-45 32 0
-95z"/>
<path d="M3381 3775 c-12 -31 -21 -78 -21 -105 0 -42 3 -50 18 -50 17 0 20 12
25 102 4 56 5 104 3 106 -2 2 -13 -22 -25 -53z"/>
<path d="M4091 3728 c-1 -104 0 -108 20 -108 21 0 21 3 15 63 -3 35 -12 83
-20 108 -14 44 -14 44 -15 -63z"/>
<path d="M3461 3716 c-7 -8 -11 -32 -9 -53 l3 -38 78 -3 78 -3 -3 53 -3 53
-66 3 c-49 2 -69 -1 -78 -12z"/>
<path d="M3660 3670 l0 -50 100 0 100 0 0 50 0 50 -100 0 -100 0 0 -50z"/>
<path d="M3910 3670 l0 -50 65 0 65 0 0 50 0 50 -65 0 -65 0 0 -50z"/>
<path d="M3366 3573 c-3 -4 -6 -33 -6 -65 0 -51 2 -58 20 -58 18 0 20 7 20 59
0 41 -4 60 -14 64 -8 3 -17 3 -20 0z"/>
<path d="M3450 3510 l0 -60 80 0 80 0 0 60 0 60 -80 0 -80 0 0 -60z"/>
<path d="M3660 3510 l0 -60 100 0 100 0 0 60 0 60 -100 0 -100 0 0 -60z"/>
<path d="M3904 3533 c3 -21 6 -48 6 -60 0 -22 4 -23 65 -23 l65 0 0 60 0 60
-71 0 -72 0 7 -37z"/>
<path d="M4090 3510 c0 -53 2 -60 20 -60 18 0 20 7 20 60 0 53 -2 60 -20 60
-18 0 -20 -7 -20 -60z"/>
<path d="M3360 3315 c0 -78 2 -85 20 -85 18 0 20 7 20 85 0 78 -2 85 -20 85
-18 0 -20 -7 -20 -85z"/>
<path d="M3450 3315 l0 -85 80 0 80 0 0 85 0 85 -80 0 -80 0 0 -85z"/>
<path d="M3662 3313 l3 -88 95 0 95 0 3 88 3 87 -101 0 -101 0 3 -87z"/>
<path d="M3903 3384 c-7 -18 2 -142 11 -151 4 -4 32 -7 64 -7 l57 -1 3 88 3
87 -66 0 c-50 0 -67 -4 -72 -16z"/>
<path d="M4090 3315 c0 -78 2 -85 20 -85 18 0 20 7 20 85 0 78 -2 85 -20 85
-18 0 -20 -7 -20 -85z"/>
<path d="M2088 3777 c-16 -6 -28 -17 -29 -24 0 -7 -1 -39 -1 -70 l-1 -58 82
-3 81 -3 0 68 0 68 -40 18 c-45 19 -53 19 -92 4z"/>
<path d="M1950 3714 c-29 -26 -40 -44 -40 -65 0 -28 2 -29 45 -29 l45 0 0 65
c0 36 -2 65 -5 65 -3 0 -23 -16 -45 -36z"/>
<path d="M2280 3674 c0 -52 1 -55 23 -52 28 4 35 47 11 82 -25 39 -34 31 -34
-30z"/>
<path d="M1910 3517 c0 -35 2 -66 4 -68 3 -3 23 -3 45 -1 l41 4 0 64 0 64 -45
0 -45 0 0 -63z"/>
<path d="M2050 3515 l0 -65 88 0 88 0 -1 65 0 65 -87 0 -88 0 0 -65z"/>
<path d="M2280 3515 c0 -63 1 -65 25 -65 24 0 25 2 25 65 0 63 -1 65 -25 65
-24 0 -25 -2 -25 -65z"/>
<path d="M2287 3404 c-4 -4 -7 -47 -7 -96 0 -88 0 -88 25 -88 l26 0 -3 92 c-2
74 -6 93 -18 96 -9 1 -19 0 -23 -4z"/>
<path d="M1910 3310 l0 -90 45 0 45 0 0 90 0 90 -45 0 -45 0 0 -90z"/>
<path d="M2052 3313 l3 -88 79 -3 c44 -2 83 1 87 5 4 4 5 45 2 91 l-6 82 -84
0 -84 0 3 -87z"/>
<path d="M8069 5260 l-44 -18 -3 -106 -3 -106 86 0 85 0 0 105 0 105 -39 18
c-36 18 -40 18 -82 2z"/>
<path d="M8240 5141 l0 -111 50 0 50 0 0 89 c0 83 -2 90 -24 104 -13 9 -36 19
-50 23 l-26 6 0 -111z"/>
<path d="M7932 5210 c-7 -11 -12 -53 -12 -100 0 -73 2 -80 20 -80 19 0 20 7
20 100 0 55 -3 100 -8 100 -4 0 -13 -9 -20 -20z"/>
<path d="M7920 4875 c0 -88 1 -95 20 -95 19 0 20 7 20 95 0 88 -1 95 -20 95
-19 0 -20 -7 -20 -95z"/>
<path d="M8020 4875 l0 -96 83 3 82 3 3 93 3 92 -86 0 -85 0 0 -95z"/>
<path d="M8240 4874 l0 -95 53 3 52 3 3 93 3 92 -56 0 -55 0 0 -96z"/>
<path d="M8068 3777 l-48 -19 0 -64 0 -64 85 0 85 0 0 65 0 65 -37 18 c-37 19
-39 19 -85 -1z"/>
<path d="M8242 3693 l3 -67 50 3 c28 1 52 5 55 7 15 15 -77 124 -105 124 -3 0
-5 -30 -3 -67z"/>
<path d="M7932 3700 c-20 -32 -15 -70 8 -70 17 0 20 7 20 45 0 49 -8 56 -28
25z"/>
<path d="M7920 3515 c0 -58 2 -65 20 -65 18 0 20 7 20 65 0 58 -2 65 -20 65
-18 0 -20 -7 -20 -65z"/>
<path d="M8020 3515 l0 -65 85 0 85 0 0 65 0 65 -85 0 -85 0 0 -65z"/>
<path d="M8240 3514 l0 -65 53 3 52 3 3 63 3 62 -56 0 -55 0 0 -66z"/>
<path d="M7920 3325 c0 -78 2 -85 20 -85 18 0 20 7 20 85 0 78 -2 85 -20 85
-18 0 -20 -7 -20 -85z"/>
<path d="M8020 3320 l0 -90 85 0 85 0 0 90 0 90 -85 0 -85 0 0 -90z"/>
<path d="M8242 3323 l3 -88 50 0 50 0 0 85 0 85 -53 3 -53 3 3 -88z"/>
</g>
</svg>
