<?xml version="1.0" standalone="no"?>
<!DOCTYPE svg PUBLIC "-//W3C//DTD SVG 20010904//EN"
 "http://www.w3.org/TR/2001/REC-SVG-20010904/DTD/svg10.dtd">
<svg version="1.0" xmlns="http://www.w3.org/2000/svg"
 width="1024.000000pt" height="1024.000000pt" viewBox="0 0 1024.000000 1024.000000"
 preserveAspectRatio="xMidYMid meet">

<g transform="translate(0.000000,1024.000000) scale(0.100000,-0.100000)"
fill="#000000" stroke="none">
<path d="M5097 8999 c-32 -19 -59 -88 -59 -151 0 -51 -2 -58 -16 -52 -81 35
-133 48 -149 38 -26 -16 -27 -40 -7 -92 34 -91 128 -163 190 -148 22 6 24 3
24 -26 0 -25 -6 -36 -22 -43 -18 -8 -23 -18 -23 -50 0 -34 3 -40 23 -43 18 -3
22 -10 22 -38 0 -26 -5 -37 -22 -44 -55 -23 -78 -59 -78 -122 0 -33 7 -52 30
-79 l29 -36 -31 -29 c-34 -32 -58 -81 -58 -117 0 -18 -13 -32 -50 -55 -57 -35
-71 -68 -50 -116 8 -17 16 -75 18 -128 l3 -97 -38 -20 c-46 -23 -88 -66 -102
-104 -6 -16 -11 -68 -11 -116 l0 -88 -42 -19 c-65 -29 -204 -125 -287 -198
-266 -236 -422 -538 -438 -848 l-6 -118 -42 -24 c-57 -34 -112 -97 -143 -165
-22 -48 -27 -73 -30 -177 -5 -142 5 -181 54 -222 l34 -28 0 -404 c0 -223 0
-418 0 -433 0 -16 -4 -26 -10 -22 -5 3 -10 15 -10 27 0 35 -62 139 -97 163
-33 22 -34 24 -36 102 -2 66 -7 89 -35 145 -41 84 -139 179 -204 198 -34 10
-49 22 -65 49 l-21 36 24 28 c35 41 32 81 -10 123 -56 56 -135 44 -171 -26
-21 -40 -19 -64 9 -97 l23 -28 -23 -37 c-14 -21 -30 -38 -38 -38 -7 0 -40 -18
-74 -40 -111 -71 -197 -224 -191 -341 2 -41 -1 -49 -38 -87 -92 -95 -96 -266
-7 -288 25 -6 26 -9 20 -52 -3 -25 -6 -51 -6 -58 0 -11 -21 -14 -91 -14 -87 0
-92 -1 -120 -29 -50 -50 -30 -141 31 -141 20 0 20 -7 20 -290 l0 -290 -415 0
-415 0 0 129 0 130 32 3 c43 4 73 44 59 80 -5 14 -49 60 -98 102 -105 91 -131
96 -191 42 l-37 -34 -5 -1249 -5 -1248 -140 -3 c-154 -3 -171 -9 -205 -65 -37
-59 -21 -124 39 -164 l34 -23 3766 0 c3545 0 3768 1 3791 17 62 43 81 97 57
156 -26 62 -53 71 -211 77 l-141 5 -5 1241 -5 1241 -27 35 c-35 46 -76 61
-113 42 -34 -18 -144 -118 -167 -153 -10 -14 -18 -34 -18 -43 0 -26 36 -58 65
-58 l25 0 0 -130 0 -130 -415 0 -415 0 2 288 3 287 22 3 c29 4 63 47 63 79 0
15 -14 39 -34 59 -34 34 -35 34 -125 34 l-91 0 0 58 c0 49 3 59 22 67 38 17
61 60 60 110 0 58 -41 143 -86 183 -31 27 -34 33 -38 109 -3 61 -12 95 -35
144 -35 76 -113 158 -181 193 -26 13 -60 38 -75 55 l-28 32 26 31 c22 26 26
39 21 67 -13 84 -122 122 -179 63 -39 -40 -45 -86 -17 -123 34 -47 15 -81 -69
-124 -64 -32 -139 -100 -175 -158 -33 -53 -57 -140 -55 -197 2 -54 1 -56 -49
-105 -41 -41 -54 -63 -68 -113 -10 -34 -21 -62 -26 -62 -4 0 -8 196 -8 435 l0
435 25 10 c14 5 34 24 45 42 19 30 20 47 18 178 -3 130 -6 150 -28 195 -25 52
-125 159 -158 169 -17 6 -20 20 -26 109 -28 436 -309 857 -703 1056 l-63 31 0
94 c0 84 -3 97 -26 131 -30 44 -58 69 -96 86 -28 11 -28 12 -28 113 0 74 4
107 15 122 8 10 15 29 15 41 0 28 -42 77 -79 93 -21 8 -32 21 -37 43 -9 46
-32 87 -67 124 -26 27 -28 33 -14 39 25 9 57 67 57 103 0 46 -23 84 -69 114
-33 22 -41 33 -41 57 0 25 4 30 25 30 23 0 25 4 25 44 0 39 -3 45 -22 48 -18
2 -24 10 -26 38 l-3 35 45 1 c91 2 176 93 179 191 l2 48 -46 -1 c-25 -1 -65
-11 -89 -23 -24 -12 -45 -21 -46 -21 -1 0 1 19 3 43 6 51 -27 139 -61 162 -24
17 -26 18 -49 4z m90 -1260 c47 -29 63 -66 63 -144 l0 -65 -40 0 -40 0 0 43
c0 47 -13 67 -45 67 -32 0 -45 -20 -45 -67 l0 -43 -45 0 -45 0 0 68 c0 79 23
125 73 147 46 20 84 18 124 -6z m91 -346 c19 -14 28 -31 30 -56 l3 -36 -38 7
c-51 9 -225 9 -290 -1 l-53 -8 0 33 c0 44 10 57 56 74 28 10 71 13 152 11 94
-3 117 -7 140 -24z m-34 -224 c137 -17 139 -29 4 -27 -101 1 -121 -1 -138 -17
-11 -10 -20 -26 -20 -35 0 -35 27 -42 158 -46 154 -4 289 -26 357 -59 50 -24
141 -106 100 -90 -81 32 -334 65 -497 65 -115 0 -138 -9 -138 -53 0 -49 9 -52
182 -58 90 -3 208 -14 263 -23 120 -22 278 -62 320 -81 34 -17 100 -113 68
-100 -40 16 -215 57 -323 76 -76 14 -180 23 -306 26 l-192 6 -18 -28 c-16 -25
-16 -30 -3 -54 14 -25 19 -26 109 -28 296 -7 501 -44 739 -132 69 -26 76 -31
88 -66 7 -21 12 -40 10 -42 -2 -2 -33 6 -68 18 -93 30 -277 68 -409 85 -216
27 -766 13 -883 -22 -26 -8 -50 -50 -42 -74 11 -35 34 -38 145 -22 156 22 627
22 781 -1 119 -18 395 -91 473 -126 40 -17 44 -23 47 -59 l4 -39 -53 18 c-169
58 -572 109 -861 109 -280 0 -669 -52 -874 -117 -44 -13 -81 -22 -84 -20 -2 3
-1 25 4 49 7 40 12 45 63 70 30 15 79 33 107 39 103 24 141 70 93 114 -20 18
-23 17 -121 -9 -56 -15 -103 -25 -105 -23 -7 7 17 77 31 91 8 8 52 28 97 45
101 38 107 41 130 72 20 26 16 54 -7 63 -12 4 -109 -15 -148 -30 -16 -6 -16
-3 3 29 49 83 90 103 300 146 98 20 130 40 130 82 0 37 -31 40 -145 14 -60
-14 -110 -23 -112 -21 -2 2 29 34 69 71 125 116 259 182 426 210 100 17 137
17 246 4z m171 -1119 c291 -20 592 -85 765 -166 97 -46 110 -58 110 -106 0
-21 -1 -38 -3 -38 -2 0 -32 11 -68 25 -132 53 -419 114 -684 147 -136 17 -688
17 -825 0 -215 -26 -486 -87 -655 -146 l-96 -33 3 51 3 51 60 32 c148 80 501
162 792 182 160 12 428 12 598 1z m-464 -520 c15 -22 18 -64 23 -372 l6 -346
-66 -64 c-36 -34 -69 -64 -75 -66 -13 -5 -12 789 1 825 22 57 78 69 111 23z
m439 8 c19 -21 20 -33 20 -436 0 -246 -4 -412 -9 -410 -5 2 -37 29 -70 61
l-61 58 0 348 c0 337 1 349 21 375 26 33 70 35 99 4z m-874 -26 c32 -21 34
-53 34 -447 l0 -396 -67 3 -68 3 0 401 c0 381 1 403 19 423 19 21 61 28 82 13z
m1291 -14 l23 -21 0 -404 0 -403 -65 0 -65 0 0 403 c0 348 2 406 16 425 20 28
61 29 91 0z m-1649 -95 c20 -17 21 -31 24 -328 l3 -310 -65 0 -65 0 0 303 0
304 28 24 c33 29 48 30 75 7z m1985 5 c46 -24 46 -28 47 -345 l0 -303 -65 0
-65 0 0 314 c0 314 0 315 22 330 27 19 33 19 61 4z m-2814 -324 c99 -29 171
-127 162 -221 -1 -10 -28 -13 -101 -13 -95 0 -101 -1 -109 -22 -4 -13 -5 -36
0 -52 5 -15 7 -33 6 -40 -1 -7 38 -13 126 -16 l129 -5 34 -37 c64 -70 73 -68
-297 -68 l-330 0 6 23 c11 33 55 77 89 85 l30 8 -3 106 c-2 84 1 113 14 140
31 61 77 98 145 119 37 11 41 10 99 -7z m3683 0 c81 -27 157 -125 158 -201 l0
-32 -87 -3 -88 -3 0 -60 0 -60 100 -5 c55 -3 110 -11 122 -17 23 -14 63 -65
63 -82 0 -7 -108 -10 -330 -11 -247 0 -330 2 -330 11 0 25 54 81 94 99 l42 18
-8 73 c-9 90 -3 131 29 187 26 46 53 67 111 88 49 17 69 17 124 -2z m-1849
-42 c12 -11 17 -30 17 -74 l0 -58 -38 6 c-28 4 -41 2 -51 -10 -24 -28 -31 -17
-31 48 0 59 2 66 31 90 31 26 39 26 72 -2z m118 -504 l60 -48 419 0 418 0 4
-62 c2 -35 1 -66 -2 -71 -3 -4 -481 -6 -1061 -5 l-1054 3 -3 68 -3 67 416 0
c296 0 423 3 438 12 12 6 64 46 116 89 l94 79 49 -43 c27 -23 76 -63 109 -89z
m-1664 -111 c1 -2 3 -111 3 -242 l1 -240 -60 -3 -61 -3 0 245 c0 224 1 245 18
250 15 4 93 -1 99 -7z m-517 -242 l0 -246 -62 3 -63 3 -3 230 c-1 126 0 235 2
242 4 9 26 13 66 13 l60 0 0 -245z m3640 0 l0 -245 -60 0 -60 0 0 245 0 245
60 0 60 0 0 -245z m530 0 l0 -245 -65 0 -65 0 0 245 0 245 65 0 65 0 0 -245z
m-1090 -115 l0 -70 -1055 0 -1055 0 0 70 0 70 1055 0 1055 0 0 -70z m8 -1162
l2 -918 -90 0 -90 0 0 495 c0 523 -2 542 -45 559 -46 17 -91 4 -109 -33 -12
-22 -13 -114 -9 -524 l5 -498 -88 3 -89 3 -5 625 c-5 609 -6 626 -26 682 -63
164 -211 301 -383 352 -231 68 -526 -67 -630 -289 -51 -108 -52 -120 -54 -766
l-2 -604 -87 -3 -88 -3 0 501 c0 340 -3 508 -11 521 -15 30 -67 49 -98 38 -51
-20 -50 -8 -51 -552 l0 -508 -87 3 -88 3 -3 905 c-1 498 0 911 3 918 3 10 221
12 1062 10 l1058 -3 3 -917z m-2358 757 l0 -65 -445 0 -445 0 0 65 0 65 445 0
445 0 0 -65z m3477 3 l-5 -63 -446 -3 -446 -2 0 65 0 65 451 0 450 0 -4 -62z
m-4599 -330 l3 -68 -421 0 -420 0 0 70 0 70 418 -2 417 -3 3 -67z m5662 2 l0
-70 -415 0 -415 0 0 70 0 70 415 0 415 0 0 -70z m-1792 -13 c12 -6 32 -25 42
-43 18 -28 20 -50 20 -218 l0 -186 -116 0 -115 0 3 194 c3 192 3 195 28 221
46 50 83 58 138 32z m-3208 -13 c56 -47 60 -66 60 -259 l0 -175 -140 0 -140 0
1 138 c1 210 8 248 52 288 31 29 44 34 86 34 39 0 56 -6 81 -26z m408 1 c48
-40 53 -64 50 -259 l-3 -180 -110 0 -110 -1 0 198 0 199 37 34 c47 43 93 46
136 9z m3258 -6 c50 -46 54 -66 54 -252 l0 -174 -37 -7 c-21 -3 -82 -6 -135
-6 l-98 0 0 185 c0 207 6 230 63 266 43 27 117 21 153 -12z m-4490 -210 c18
-20 19 -40 19 -315 l0 -294 68 0 67 0 0 -65 0 -65 -415 0 -415 0 0 65 0 65 78
0 78 0 -1 308 0 307 68 3 69 3 -2 -293 c-1 -161 -1 -301 -1 -310 1 -16 14 -18
136 -18 l135 0 0 289 c0 277 1 289 21 315 25 32 68 35 95 5z m5244 1 c20 -20
21 -31 19 -313 l-1 -292 138 -3 139 -3 -4 311 -3 310 72 0 72 0 -3 -307 -4
-308 78 -3 77 -3 0 -64 0 -65 -415 0 -415 0 0 65 0 65 69 0 69 0 -2 294 c-1
276 0 295 18 315 24 27 70 27 96 1z m-3960 -510 l0 -70 -442 2 -443 3 -3 68
-3 67 446 0 445 0 0 -70z m3470 0 l0 -70 -439 0 c-495 0 -451 -8 -451 86 l0
54 445 0 445 0 0 -70z m-3505 -306 c24 -22 25 -27 25 -154 l0 -130 -95 0 -95
0 0 124 c0 119 1 126 25 155 39 45 94 47 140 5z m2765 21 c49 -25 60 -60 60
-190 l0 -115 -100 0 -100 0 0 115 c0 129 11 164 58 189 35 19 46 19 82 1z
m-3179 -18 c65 -44 79 -77 79 -193 l0 -104 -40 0 -40 0 0 44 c0 33 -7 52 -26
75 -56 66 -134 21 -134 -78 l0 -41 -40 0 -40 0 0 105 c0 122 10 151 67 190 50
34 126 35 174 2z m3639 8 c16 -8 41 -32 55 -52 23 -35 25 -47 25 -145 l0 -108
-35 0 c-34 0 -34 1 -41 52 -12 88 -77 126 -131 76 -18 -17 -23 -32 -23 -75 l0
-53 -46 0 -46 0 4 109 c3 121 13 144 78 189 39 26 116 30 160 7z m-4862 -231
l-3 -89 -65 0 -65 0 -3 92 -3 92 63 3 c35 2 67 0 71 -3 4 -3 7 -46 5 -95z
m412 1 l0 -96 -62 3 -63 3 -3 93 -3 92 66 0 65 0 0 -95z m5230 0 l0 -96 -62 3
-63 3 -3 93 -3 92 66 0 65 0 0 -95z m420 0 l0 -96 -67 3 c-47 2 -68 7 -67 16
1 6 2 48 3 92 l1 80 65 0 65 0 0 -95z m-1060 -415 c48 -38 93 -76 100 -85 11
-13 -222 -15 -2141 -15 -1299 0 -2149 3 -2144 9 6 5 52 43 104 85 l94 76 1950
0 1949 0 88 -70z"/>
<path d="M4695 6723 c-32 -8 -55 -34 -55 -63 0 -48 29 -60 102 -40 63 18 75
74 22 98 -26 12 -35 13 -69 5z"/>
<path d="M3225 4770 c-16 -7 -17 -9 -3 -9 9 -1 20 4 23 9 7 11 7 11 -20 0z"/>
<path d="M5903 3402 c-31 -5 -73 -58 -73 -92 0 -17 11 -40 29 -59 37 -39 78
-41 120 -5 71 59 16 171 -76 156z"/>
<path d="M4255 3375 c-58 -57 -16 -155 66 -155 12 0 36 15 55 34 43 43 44 77
5 117 -38 38 -91 40 -126 4z"/>
<path d="M2067 2563 c-4 -3 -7 -11 -7 -17 0 -6 5 -5 12 2 6 6 9 14 7 17 -3 3
-9 2 -12 -2z"/>
</g>
</svg>
