<?xml version="1.0" standalone="no"?>
<!DOCTYPE svg PUBLIC "-//W3C//DTD SVG 20010904//EN"
 "http://www.w3.org/TR/2001/REC-SVG-20010904/DTD/svg10.dtd">
<svg version="1.0" xmlns="http://www.w3.org/2000/svg"
 width="1024.000000pt" height="1024.000000pt" viewBox="0 0 1024.000000 1024.000000"
 preserveAspectRatio="xMidYMid meet">

<g transform="translate(0.000000,1024.000000) scale(0.100000,-0.100000)"
fill="#000000" stroke="none">
<path d="M2488 8173 c-19 -22 -38 -58 -38 -72 0 -15 50 -71 65 -71 21 0 75 56
75 78 0 27 -47 82 -69 82 -10 0 -25 -8 -33 -17z"/>
<path d="M7842 8168 c-32 -36 -37 -70 -12 -101 27 -34 68 -36 98 -4 30 32 28
63 -7 98 -35 35 -51 36 -79 7z"/>
<path d="M2473 8005 c-25 -10 -33 -20 -33 -39 0 -14 5 -28 10 -31 14 -8 13
-35 -1 -35 -23 0 -149 -92 -180 -131 -17 -22 -40 -62 -50 -89 -21 -55 -25
-150 -8 -167 5 -5 9 -32 7 -59 -3 -48 -4 -49 -38 -52 -75 -7 -81 -50 -15 -110
54 -51 65 -70 65 -116 0 -33 -2 -36 -29 -36 -31 0 -81 -47 -81 -76 0 -8 34
-54 75 -102 l75 -87 0 -95 c0 -52 -4 -144 -10 -205 -5 -60 -12 -162 -15 -225
-3 -63 -15 -250 -25 -415 -11 -165 -20 -303 -20 -307 0 -5 -23 -8 -52 -8 -43
0 -57 -5 -80 -27 -15 -15 -28 -36 -28 -48 0 -12 24 -49 55 -82 l55 -61 0 -160
c0 -170 -1 -172 -50 -172 -21 0 -70 -54 -70 -77 0 -8 29 -48 65 -89 36 -41 72
-85 80 -98 14 -22 15 -73 5 -493 -6 -257 -15 -543 -20 -635 -6 -91 -10 -283
-10 -427 l0 -261 -148 0 c-117 0 -152 -3 -170 -16 -22 -15 -22 -18 -22 -273 0
-245 1 -258 20 -279 l21 -22 1438 0 1438 0 27 21 c17 14 26 30 26 50 l0 29
422 -2 422 -3 7 -33 c13 -66 -98 -61 1480 -62 l1436 0 19 21 c18 20 19 39 19
281 0 245 -1 260 -19 274 -15 11 -56 14 -167 14 l-147 0 -5 348 c-3 191 -10
475 -16 632 -5 157 -13 406 -16 553 l-6 268 75 89 c57 66 76 96 76 117 0 38
-35 71 -80 75 l-35 3 -3 160 -2 160 55 62 c86 96 71 153 -43 163 l-56 5 -3 65
c-6 117 -41 688 -48 775 -11 137 -18 374 -11 398 3 14 35 59 71 100 43 49 65
83 65 99 0 33 -43 78 -73 78 -20 0 -26 6 -29 29 -6 44 8 71 62 123 28 25 50
53 50 62 0 26 -38 56 -71 56 l-31 0 7 58 c14 121 10 194 -13 239 -30 57 -97
121 -171 163 -51 29 -60 39 -55 55 14 47 9 60 -28 78 -32 16 -44 17 -72 7 -41
-13 -52 -37 -35 -74 7 -14 10 -28 8 -29 -2 -2 -31 -19 -64 -37 -85 -48 -148
-114 -174 -183 -22 -60 -29 -167 -11 -167 6 0 10 -26 10 -59 l0 -60 -42 -3
c-36 -2 -44 -7 -52 -29 -8 -23 -3 -32 48 -83 51 -52 56 -61 56 -101 0 -43 -1
-45 -30 -45 -34 0 -80 -43 -80 -76 0 -11 14 -33 31 -50 17 -16 54 -58 81 -92
l51 -64 -11 -206 c-7 -114 -16 -301 -22 -417 -5 -115 -14 -262 -20 -325 -5
-63 -12 -154 -16 -202 l-6 -88 -58 0 c-53 0 -61 -3 -84 -31 -14 -17 -26 -35
-26 -40 0 -17 22 -52 62 -100 l38 -45 0 -168 0 -167 -66 3 -66 3 -3 80 c-1 56
-9 96 -23 129 -26 57 -133 168 -214 219 -32 20 -58 39 -58 41 0 3 4 15 9 28
13 35 -3 64 -59 104 -44 32 -65 64 -41 64 15 0 61 52 61 70 0 9 -11 34 -25 54
-20 29 -24 45 -19 71 7 37 -18 85 -43 85 -36 0 -67 -72 -42 -97 7 -7 3 -21
-15 -48 -40 -58 -34 -92 21 -129 l35 -24 -44 -30 c-74 -52 -91 -76 -85 -121 5
-38 4 -40 -47 -71 -28 -18 -77 -59 -108 -92 -74 -76 -98 -138 -98 -253 l0 -85
-50 0 -50 0 -2 443 c-1 243 0 582 1 752 l3 310 47 55 c25 30 51 61 58 68 7 7
13 22 13 32 0 24 -38 61 -59 58 -12 -2 -17 8 -19 40 -3 39 1 47 33 78 43 40
45 75 5 84 -22 5 -25 11 -26 56 -1 28 -9 64 -17 81 -15 29 -64 76 -103 99 -17
10 -17 15 -6 34 16 26 1 50 -29 50 -23 0 -25 13 -4 30 29 24 28 50 -1 81 l-28
29 -23 -22 c-29 -27 -29 -52 -2 -86 21 -27 21 -27 1 -30 -33 -5 -48 -30 -33
-54 10 -17 9 -22 -6 -34 -10 -7 -23 -14 -28 -14 -6 0 -27 -17 -47 -37 -37 -38
-59 -101 -55 -153 1 -17 -4 -25 -18 -28 -53 -11 -59 -48 -14 -86 26 -22 31
-34 32 -74 2 -44 0 -47 -25 -50 -18 -2 -29 -11 -36 -30 -9 -25 -3 -34 64 -107
l74 -80 0 -215 0 -215 -30 -17 c-40 -23 -49 -62 -21 -92 17 -18 21 -35 21 -89
l0 -67 -54 0 -53 0 -5 73 c-11 167 -142 310 -429 471 -57 31 -68 42 -73 69 -8
44 -55 87 -143 132 l-72 36 20 39 c31 60 20 92 -54 148 -33 26 -72 57 -86 69
l-26 22 43 41 c52 50 57 94 17 146 -21 27 -25 41 -20 68 6 27 2 42 -19 73
l-26 38 39 7 c97 17 171 91 171 171 0 33 -3 37 -25 37 -14 0 -29 -8 -35 -20
-17 -31 -68 -53 -111 -47 -51 7 -85 34 -104 84 -15 40 -15 45 3 85 10 24 29
52 41 62 29 26 28 56 -3 56 -65 0 -145 -63 -169 -135 -36 -105 29 -235 139
-281 l35 -14 -26 -43 c-20 -36 -23 -49 -15 -75 7 -26 5 -36 -9 -50 -27 -25
-41 -57 -41 -92 0 -23 10 -40 43 -71 l42 -39 -38 -33 c-130 -111 -141 -124
-140 -160 1 -19 8 -46 17 -59 l16 -25 -62 -31 c-86 -42 -146 -95 -153 -135 -5
-28 -18 -39 -83 -77 -307 -180 -414 -311 -421 -517 -1 -21 -6 -23 -56 -23
l-55 0 0 61 c0 46 5 67 20 86 36 46 21 97 -32 116 -16 6 -18 25 -18 213 l0
207 47 56 c26 31 60 68 75 83 16 14 28 33 28 40 0 21 -34 58 -54 58 -12 0 -16
10 -16 45 0 39 5 49 38 79 31 29 35 38 26 53 -6 10 -23 19 -38 21 -24 3 -26 7
-26 55 0 68 -31 123 -91 162 -42 27 -46 33 -41 62 4 28 1 33 -22 39 l-26 6 20
25 c27 35 25 65 -6 94 l-26 24 -24 -28 c-28 -32 -30 -55 -9 -83 20 -27 19 -33
-10 -44 -27 -10 -35 -50 -10 -50 8 0 15 -4 15 -10 0 -5 -6 -10 -13 -10 -26 0
-100 -65 -117 -103 -11 -23 -16 -56 -14 -83 2 -42 1 -46 -26 -55 -44 -16 -45
-38 -5 -79 29 -29 35 -43 35 -78 0 -34 -3 -42 -18 -42 -18 0 -62 -38 -62 -54
0 -4 29 -42 65 -84 l65 -77 0 -753 0 -753 -52 3 -53 3 -1 90 c0 140 -41 208
-189 320 -72 54 -73 55 -68 93 5 34 1 41 -39 77 -24 22 -53 45 -64 51 -18 11
-17 13 19 53 44 48 45 64 12 113 -21 31 -23 41 -14 61 9 21 7 30 -12 56 -12
17 -28 31 -34 31 -6 0 -22 -14 -34 -31 -20 -27 -21 -35 -12 -56 10 -21 9 -29
-4 -44 -9 -9 -19 -35 -22 -57 -5 -34 -1 -44 28 -77 l34 -38 -25 -16 c-14 -8
-42 -32 -64 -53 -37 -37 -40 -46 -21 -90 5 -12 -10 -27 -65 -62 -85 -55 -161
-128 -188 -182 -25 -50 -44 -143 -40 -197 l3 -42 -66 -3 -66 -3 -6 68 c-4 37
-7 112 -7 165 l0 97 55 62 c64 71 68 96 24 133 -25 21 -41 26 -85 26 l-54 0
-1 43 c0 23 -2 69 -4 102 -2 33 -6 103 -9 155 -9 153 -16 255 -27 415 -14 207
-23 499 -15 528 3 13 35 57 71 97 49 54 65 80 65 102 0 36 -40 78 -75 78 -23
0 -25 4 -25 43 0 40 5 49 57 100 53 52 56 58 47 84 -8 24 -16 28 -52 31 l-43
3 4 55 c2 30 7 57 10 61 4 3 7 35 7 70 0 112 -65 205 -195 280 -68 39 -70 42
-49 96 6 17 -26 42 -66 51 -14 3 -40 -1 -57 -9z m-29 -606 c25 -29 26 -36 26
-145 l0 -114 -64 0 -64 0 0 103 c1 111 7 136 38 167 27 27 34 26 64 -11z m220
0 c26 -30 27 -35 24 -148 l-3 -116 -55 0 -55 1 -3 118 c-3 118 -2 120 25 148
15 15 30 28 34 28 4 0 19 -14 33 -31z m5139 3 c27 -28 28 -30 25 -148 l-3
-119 -56 -3 -56 -3 -7 47 c-16 116 -4 188 36 232 27 28 29 28 61 -6z m225 -5
c19 -30 22 -46 22 -144 l0 -111 -56 -4 c-31 -1 -58 -1 -60 1 -2 2 -4 56 -4
120 0 111 1 116 27 143 34 36 43 35 71 -5z m-3994 -469 c10 -14 16 -44 16 -80
l0 -58 -35 0 -35 0 0 68 c0 87 22 116 54 70z m126 3 c5 -11 10 -47 10 -81 l0
-61 -32 3 c-33 3 -33 4 -36 62 -2 44 1 63 14 77 22 24 31 24 44 0z m2122 2
c14 -12 18 -31 18 -80 l0 -63 -35 0 -35 0 0 61 c0 56 12 99 27 99 4 0 15 -7
25 -17z m130 0 c14 -12 18 -31 18 -80 l0 -63 -35 0 -35 0 0 61 c0 56 12 99 27
99 4 0 15 -7 25 -17z m-3842 -395 l0 -58 -55 0 -55 0 0 54 c0 44 4 58 26 79
l26 26 29 -21 c26 -20 29 -27 29 -80z m5342 75 c24 -23 28 -35 28 -80 l0 -53
-60 0 -60 0 0 50 c0 40 5 55 28 80 15 16 29 30 31 30 3 0 18 -12 33 -27z
m-5360 -640 c23 -22 28 -35 28 -72 l0 -46 -57 2 c-32 1 -61 2 -65 2 -5 1 -8
20 -8 44 0 35 5 46 32 69 18 15 35 28 37 28 3 0 18 -12 33 -27z m5390 -28 c4
-5 8 -27 8 -47 l0 -38 -65 0 -65 0 0 44 c0 38 5 48 32 70 l33 25 25 -22 c14
-12 28 -26 32 -32z m-3334 29 c17 -12 22 -25 22 -60 l0 -44 -50 0 -50 0 0 44
c0 35 5 48 22 60 12 9 25 16 28 16 3 0 16 -7 28 -16z m241 -5 c17 -16 21 -30
19 -57 l-3 -37 -50 0 c-49 0 -50 1 -53 32 -2 24 3 39 22 58 30 30 36 31 65 4z
m239 2 c16 -14 22 -30 22 -60 l0 -41 -50 0 -50 0 0 44 c0 34 5 47 23 59 28 20
28 20 55 -2z m241 -5 c16 -17 22 -33 19 -57 -3 -34 -4 -34 -53 -34 l-50 0 -3
36 c-3 30 2 41 24 58 33 26 36 26 63 -3z m240 0 c16 -17 22 -33 19 -57 -3 -34
-4 -34 -53 -34 l-50 0 -3 42 c-2 33 1 44 20 57 30 21 41 20 67 -8z m246 8 c20
-13 25 -25 25 -60 l0 -44 -50 0 -50 0 0 40 c0 27 7 47 20 60 24 24 24 24 55 4z
m-1464 -309 l39 -25 0 -110 0 -110 -92 0 -93 0 3 115 3 115 29 15 c16 8 35 25
41 37 10 19 12 20 21 4 5 -9 27 -28 49 -41z m299 -139 l0 -106 -80 0 -80 0 0
110 0 109 30 23 c16 12 32 29 35 39 5 15 13 10 50 -26 l45 -43 0 -106z m454
135 c25 -23 26 -29 26 -133 l0 -108 -70 0 -70 0 0 106 0 106 38 43 c30 35 38
40 43 27 4 -10 19 -28 33 -41z m494 8 l42 -50 0 -99 0 -100 -90 0 -90 0 0 104
0 104 43 44 c23 25 44 46 47 46 3 0 24 -22 48 -49z m245 36 c4 -8 24 -26 47
-40 l40 -25 0 -110 0 -110 -100 0 -100 0 0 33 c0 17 3 70 7 115 5 75 9 85 29
92 12 5 30 20 41 34 21 29 29 32 36 11z m-953 -177 l0 -108 -75 0 -75 0 0 107
0 107 37 38 37 38 38 -37 38 -37 0 -108z m443 143 l37 -38 0 -107 0 -106 -70
0 -70 0 0 111 c0 107 1 113 28 144 15 19 29 34 32 34 3 1 22 -16 43 -38z m825
1 l42 -39 0 -106 0 -107 -85 0 -85 0 0 100 0 100 41 45 c23 25 42 45 44 45 1
0 20 -17 43 -38z m-3698 -440 l0 -142 -81 0 c-79 0 -81 1 -75 23 3 12 6 74 6
138 l0 115 35 41 34 40 41 -37 40 -37 0 -141z m229 176 l40 -43 1 -143 0 -143
-82 3 -83 3 0 145 0 145 40 37 c22 21 41 38 42 38 1 0 20 -19 42 -42z m5104 2
l37 -40 0 -140 0 -140 -80 0 -80 0 0 142 0 142 37 38 c20 21 40 38 43 38 3 0
22 -18 43 -40z m297 -189 l0 -143 -72 4 -73 3 -3 142 -3 142 36 40 36 39 39
-42 40 -43 0 -142z m-1880 -1101 l0 -1130 -70 0 -70 0 0 1060 0 1060 -865 0
-865 0 0 -1060 0 -1060 -70 0 -70 0 0 1130 0 1130 1005 0 1005 0 0 -1130z
m-2847 1032 c9 -8 17 -28 17 -44 0 -27 -2 -28 -50 -28 -48 0 -50 1 -50 27 0
30 37 76 54 66 6 -3 19 -13 29 -21z m3740 0 c9 -8 17 -28 17 -44 0 -27 -2 -28
-50 -28 -49 0 -50 1 -50 30 0 32 36 73 54 63 6 -3 19 -13 29 -21z m-3569 2 c9
-8 16 -29 16 -45 0 -28 -2 -29 -45 -29 -41 0 -45 2 -45 25 0 24 31 65 49 65 5
0 17 -7 25 -16z m178 -1 c10 -9 18 -29 18 -45 0 -27 -2 -28 -45 -28 -43 0 -45
1 -45 29 0 30 22 61 42 61 6 0 20 -7 30 -17z m3032 1 c9 -8 16 -29 16 -45 0
-28 -2 -29 -45 -29 -42 0 -45 2 -45 27 0 28 25 63 46 63 7 0 20 -7 28 -16z
m177 6 c13 -8 19 -21 19 -45 0 -35 0 -35 -45 -35 -45 0 -45 0 -45 35 0 46 31
66 71 45z m-3746 -237 c20 -23 24 -39 25 -90 l0 -63 -50 0 -50 0 0 60 c0 47 5
68 22 90 12 17 23 30 25 30 2 0 15 -12 28 -27z m2745 -953 l0 -980 -70 0 -69
0 -3 343 -3 342 -27 58 c-52 111 -108 160 -293 257 -129 67 -178 100 -210 139
-11 14 -26 32 -33 40 -11 14 -13 14 -23 -2 -32 -53 -80 -90 -205 -157 -217
-116 -283 -175 -336 -301 -22 -52 -23 -67 -26 -386 l-3 -333 -70 0 -69 0 0
980 0 980 720 0 720 0 0 -980z m-2923 948 c19 -18 23 -32 23 -85 l0 -64 -47 3
-48 3 -3 53 c-2 41 2 59 18 82 25 36 27 36 57 8z m360 0 c19 -18 23 -32 23
-85 l0 -63 -50 0 -50 0 0 62 c0 50 4 66 22 85 26 28 26 28 55 1z m180 0 c19
-18 23 -32 23 -85 l0 -64 -47 3 -48 3 -3 52 c-3 41 1 59 18 83 26 36 27 36 57
8z m184 0 c13 -17 18 -39 19 -85 l0 -63 -45 0 -45 0 0 67 c0 48 5 72 17 85 21
24 31 23 54 -4z m175 -4 c20 -20 24 -36 24 -85 l0 -59 -50 0 -50 0 0 62 c0 50
4 66 22 85 27 28 26 29 54 -3z m2663 -3 c15 -21 21 -45 21 -85 l0 -56 -50 0
-50 0 0 62 c0 50 4 66 22 85 28 30 32 29 57 -6z m181 2 c17 -21 20 -38 18 -82
-3 -50 -5 -56 -27 -59 -12 -2 -34 -1 -47 2 -22 6 -24 12 -24 63 0 44 5 62 22
80 27 29 32 29 58 -4z m180 0 c17 -21 20 -38 18 -82 l-3 -56 -45 0 -45 0 -3
59 c-3 49 0 62 19 82 28 30 33 30 59 -3z m180 -5 c15 -24 20 -47 18 -83 l-3
-50 -47 -3 -48 -3 0 61 c0 63 20 110 46 110 8 0 23 -15 34 -32z m174 3 c24
-25 27 -35 24 -82 l-3 -54 -50 0 -50 0 -3 53 c-2 41 2 59 18 82 12 17 25 30
29 30 4 0 20 -13 35 -29z m196 -78 l0 -64 -46 3 -47 3 0 58 c0 47 5 63 24 83
l23 24 23 -22 c19 -18 23 -31 23 -85z m-3540 -288 l0 -65 -505 0 -505 0 0 65
0 65 505 0 505 0 0 -65z m3560 31 c0 -18 -3 -48 -6 -65 l-6 -31 -504 0 -504 0
0 65 0 65 510 0 510 0 0 -34z m395 15 c3 -11 28 -37 55 -57 28 -21 53 -46 56
-57 3 -10 2 -88 -2 -173 l-7 -154 -123 0 -124 0 0 163 c0 177 2 183 63 221 16
10 36 31 45 47 20 34 28 36 37 10z m-5330 -19 c13 -16 42 -41 64 -57 l41 -28
0 -168 0 -169 -125 0 -125 0 0 170 c0 164 1 171 22 188 12 9 38 33 58 53 19
20 36 37 38 38 2 0 14 -12 27 -27z m732 -290 c15 -15 39 -34 52 -42 22 -15 23
-22 25 -115 l1 -100 -102 -3 -103 -3 0 98 0 97 48 46 c26 26 48 47 49 48 1 1
14 -10 30 -26z m473 -165 l0 -97 -100 0 -100 0 0 100 0 99 36 25 c20 13 42 33
49 44 14 18 16 17 65 -28 l50 -46 0 -97z m2998 166 c16 -16 41 -38 56 -50 25
-20 26 -26 26 -117 l0 -96 -105 0 -105 0 0 96 0 97 48 47 c26 26 48 47 49 48
1 1 15 -10 31 -25z m445 -38 l37 -27 0 -99 0 -99 -100 0 -100 0 0 97 0 97 48
47 c43 42 48 45 62 29 8 -9 32 -29 53 -45z m-1821 -397 c145 -77 233 -179 238
-278 1 -19 2 -158 1 -307 l-1 -273 -110 0 -110 0 0 174 c0 96 -4 186 -9 199
-5 13 -38 44 -73 67 -35 24 -65 46 -68 49 -3 3 -15 15 -28 25 -22 19 -22 19
-52 -9 -17 -16 -61 -50 -98 -75 l-67 -45 -3 -193 -2 -192 -110 0 -110 0 0 295
c0 277 1 298 22 352 30 80 101 147 230 217 57 30 118 66 136 79 l33 25 49 -33
c27 -18 87 -53 132 -77z m-1452 -53 l0 -65 -505 0 -505 0 0 65 0 65 505 0 505
0 0 -65z m3550 0 l0 -65 -505 0 -505 0 0 65 0 65 505 0 505 0 0 -65z m-4847
-72 c27 -21 28 -25 25 -105 l-3 -83 -120 0 -120 0 -3 86 -3 86 56 47 c30 26
55 54 55 62 0 8 19 -4 43 -28 24 -24 55 -53 70 -65z m5300 43 l68 -64 -3 -84
-3 -83 -125 0 -125 0 -3 83 c-3 76 -1 84 20 102 83 69 98 84 98 96 0 8 1 14 3
14 1 0 33 -29 70 -64z m-4694 -337 c57 -40 60 -45 66 -93 3 -28 5 -116 3 -196
l-3 -145 -163 -3 -163 -3 3 197 3 197 39 31 c22 17 58 49 80 71 l41 41 17 -27
c9 -15 44 -47 77 -70z m462 72 c9 -16 42 -47 72 -70 52 -38 56 -43 62 -93 3
-29 5 -118 3 -198 l-3 -145 -152 -3 -153 -3 0 199 0 198 63 50 c34 27 66 59
72 72 13 29 17 28 36 -7z m3034 7 c6 -13 38 -45 73 -72 l62 -50 0 -198 0 -198
-150 0 -150 0 0 195 c0 221 -10 192 94 278 25 21 46 45 46 53 0 21 14 17 25
-8z m540 3 c3 -11 34 -42 69 -70 76 -59 76 -59 76 -288 l0 -163 -160 0 -160 0
0 193 c0 105 4 197 8 203 4 6 33 30 65 53 32 23 63 53 69 67 14 29 25 31 33 5z
m1105 -766 l0 -75 -1792 -1 c-986 -1 -2417 -2 -3180 -3 l-1388 -1 0 78 0 77
3180 0 3180 0 0 -75z"/>
<path d="M4620 4575 c0 -236 8 -285 30 -182 24 114 97 174 305 252 111 42 137
56 178 97 26 26 47 52 47 58 0 7 -92 10 -280 10 l-280 0 0 -235z"/>
<path d="M5230 4798 c0 -6 22 -32 48 -58 37 -36 72 -56 157 -90 151 -59 204
-87 243 -124 39 -36 69 -90 80 -141 4 -20 12 -36 17 -35 6 0 11 85 13 230 l2
230 -280 0 c-209 0 -280 -3 -280 -12z"/>
<path d="M5164 4460 c-44 -28 -62 -74 -43 -108 37 -66 95 -77 145 -27 41 42
24 109 -37 141 -34 17 -28 18 -65 -6z"/>
<path d="M2585 2203 c-48 -12 -73 -61 -55 -109 22 -56 -53 -53 1271 -54 1154
0 1228 1 1247 18 12 9 24 33 27 53 6 29 2 41 -18 65 l-25 29 -1214 1 c-667 1
-1222 0 -1233 -3z"/>
<path d="M5363 2200 c-47 -19 -59 -101 -20 -138 l23 -22 1232 0 c1213 0 1232
0 1252 20 43 43 34 110 -20 137 -20 10 -286 13 -1235 12 -672 0 -1220 -4
-1232 -9z"/>
</g>
</svg>
