<?xml version="1.0" standalone="no"?>
<!DOCTYPE svg PUBLIC "-//W3C//DTD SVG 20010904//EN"
 "http://www.w3.org/TR/2001/REC-SVG-20010904/DTD/svg10.dtd">
<svg version="1.0" xmlns="http://www.w3.org/2000/svg"
 width="1024.000000pt" height="1024.000000pt" viewBox="0 0 1024.000000 1024.000000"
 preserveAspectRatio="xMidYMid meet">

<g transform="translate(0.000000,1024.000000) scale(0.100000,-0.100000)"
fill="#000000" stroke="none">
<path d="M4033 8066 c-27 -23 -28 -29 -32 -128 l-3 -103 -67 -70 c-66 -70
-101 -137 -101 -195 0 -19 -17 -38 -65 -78 -85 -68 -87 -91 -15 -155 l51 -44
-1 -366 c0 -202 -3 -374 -6 -382 -17 -44 -29 -45 -684 -45 -680 0 -651 3 -704
-60 -37 -45 -51 -102 -32 -139 9 -16 22 -31 31 -35 9 -3 307 -6 663 -6 493 0
653 -3 672 -13 63 -32 42 -123 -40 -164 l-44 -23 -612 0 c-337 0 -620 -3 -629
-6 -38 -15 -45 -55 -45 -264 0 -240 0 -240 -102 -241 -84 0 -127 -17 -155 -58
-41 -61 -34 -81 75 -194 53 -56 116 -123 140 -149 l42 -48 0 -1040 c0 -1198
12 -1076 -105 -1079 -115 -3 -160 -40 -160 -131 0 -66 23 -100 84 -126 51 -21
5765 -21 5816 0 64 27 92 111 59 181 -26 54 -65 75 -146 75 -60 0 -69 3 -87
26 -21 27 -21 30 -21 1053 l0 1027 25 34 c13 18 55 65 92 104 179 187 184 196
143 263 -27 45 -53 56 -145 59 -118 4 -115 -2 -115 251 l0 205 -29 29 -29 29
-594 0 c-326 1 -613 5 -638 9 -87 17 -142 119 -90 166 18 16 66 18 685 23 659
5 666 5 680 26 8 11 15 40 15 63 0 35 -6 50 -37 83 -20 23 -46 46 -57 53 -15
9 -189 13 -657 17 -608 5 -638 6 -658 24 -21 19 -21 26 -21 391 l0 371 50 48
c31 30 50 56 50 71 0 15 -22 44 -65 86 -59 57 -65 67 -65 103 0 50 -20 84
-105 182 l-65 74 0 94 c0 93 0 95 -31 120 -41 35 -87 35 -120 0 -22 -23 -24
-36 -27 -127 l-4 -102 -57 -60 c-68 -70 -91 -110 -106 -182 -9 -47 -17 -58
-70 -101 -48 -38 -61 -54 -63 -80 -3 -27 4 -38 47 -78 l51 -47 0 -188 c0 -183
-1 -188 -22 -203 -20 -14 -101 -16 -683 -16 -582 0 -663 2 -683 16 -21 15 -22
20 -22 203 l0 189 44 43 c24 24 47 54 51 67 7 23 -7 40 -98 120 -29 26 -37 40
-37 68 0 48 -28 99 -105 191 l-65 78 0 93 c0 88 -1 94 -26 117 -35 33 -84 33
-121 1z m140 -2237 c43 -19 49 -45 45 -193 -3 -131 -4 -139 -27 -157 -34 -28
-96 -25 -126 6 -24 23 -25 29 -25 154 0 74 5 141 11 155 19 41 74 57 122 35z
m554 -13 l28 -24 3 -154 c5 -192 -4 -233 -55 -254 -21 -9 -47 -13 -64 -9 -54
12 -59 31 -59 236 l0 188 26 20 c36 28 86 27 121 -3z m435 -6 c16 -19 18 -45
18 -202 l0 -180 -29 -29 c-37 -36 -79 -38 -118 -5 l-28 24 0 187 0 187 29 25
c25 21 37 24 70 20 25 -4 48 -14 58 -27z m420 0 c16 -19 18 -45 18 -204 0
-177 -1 -183 -23 -204 -29 -27 -78 -38 -106 -23 -43 23 -51 60 -51 224 0 165
8 208 43 226 33 16 99 6 119 -19z m543 5 c24 -23 25 -29 25 -164 0 -133 -1
-141 -24 -168 -34 -39 -95 -39 -133 0 -24 24 -28 36 -31 102 -6 120 6 204 33
231 34 34 97 33 130 -1z m-2554 -34 c37 -38 39 -88 5 -128 l-24 -28 -230 0
c-216 0 -231 1 -252 20 -33 30 -42 62 -29 102 19 58 38 62 282 63 l219 0 29
-29z m3550 0 c31 -32 36 -64 17 -106 -22 -50 -49 -55 -268 -55 -213 0 -247 6
-270 49 -14 27 -13 84 3 103 27 34 52 37 270 38 l219 0 29 -29z m-4361 -436
c27 -29 39 -81 40 -167 0 -60 -3 -69 -26 -87 -35 -27 -76 -27 -109 2 -44 37
-74 229 -41 256 20 17 66 28 93 23 12 -2 31 -14 43 -27z m430 8 c29 -27 30
-31 31 -123 3 -109 -6 -134 -54 -149 -38 -13 -62 -7 -94 22 -21 19 -23 29 -23
122 0 93 2 103 23 122 44 41 77 42 117 6z m448 -10 c19 -21 22 -35 22 -114 0
-104 -8 -125 -57 -145 -39 -17 -68 -11 -100 19 -21 18 -23 30 -23 108 0 107
10 136 52 154 41 17 77 10 106 -22z m3007 23 c47 -20 55 -42 55 -145 0 -80 -3
-93 -24 -118 -19 -22 -32 -28 -66 -28 -34 0 -47 6 -66 28 -21 25 -24 38 -24
115 0 97 20 147 62 155 13 2 24 5 26 6 1 0 18 -5 37 -13z m463 -23 c20 -22 22
-34 22 -123 0 -97 0 -98 -31 -124 -35 -30 -58 -32 -98 -11 -42 21 -55 63 -48
153 7 96 12 111 51 127 39 17 75 10 104 -22z m416 27 c14 -5 32 -20 41 -34 15
-23 15 -32 0 -115 -21 -115 -40 -141 -100 -141 -51 0 -85 28 -85 69 1 57 21
167 36 189 24 37 64 49 108 32z m-3342 -411 c47 -25 48 -43 47 -616 -1 -639
-4 -707 -38 -734 -34 -28 -96 -25 -126 6 -14 13 -25 32 -25 42 -1 37 -1 540
-1 896 l1 368 25 24 c26 27 80 34 117 14z m1943 -14 l25 -24 0 -639 0 -639
-25 -27 c-47 -51 -144 -28 -161 39 -2 11 -3 300 -2 642 l3 621 24 26 c34 36
101 37 136 1z m-977 -71 c201 -129 349 -286 423 -450 58 -128 59 -133 59 -801
l0 -612 -22 -15 c-20 -14 -86 -16 -520 -16 -438 0 -498 2 -512 16 -14 14 -16
85 -16 633 0 578 1 623 19 693 41 160 139 302 306 444 51 43 193 144 203 144
2 0 29 -16 60 -36z m-1810 -105 c89 -58 212 -178 233 -224 17 -37 19 -86 19
-780 0 -654 -2 -743 -16 -763 -15 -21 -21 -22 -179 -22 l-164 0 -20 26 c-20
26 -21 37 -21 423 l0 396 31 53 c35 62 90 93 159 90 34 -1 47 3 62 21 40 51 7
135 -68 171 -120 59 -291 -15 -360 -156 -16 -33 -31 -51 -36 -46 -5 5 -8 134
-6 294 l3 285 30 49 c17 26 62 75 100 108 68 57 152 116 166 116 4 0 34 -18
67 -41z m3648 0 c96 -68 173 -139 201 -186 23 -41 26 -57 31 -181 2 -76 1
-214 -3 -307 l-7 -169 -28 61 c-52 114 -162 193 -270 193 -107 0 -198 -74
-186 -150 7 -44 29 -60 82 -60 54 0 91 -14 127 -48 58 -55 57 -46 57 -492 0
-397 -1 -411 -20 -430 -18 -18 -33 -20 -180 -20 -147 0 -162 2 -180 20 -20 20
-20 33 -20 751 0 540 3 742 12 772 14 47 87 129 170 193 55 43 136 94 149 94
3 0 32 -19 65 -41z"/>
<path d="M2150 2452 c-49 -48 -59 -96 -34 -149 11 -20 34 -46 51 -56 32 -18
118 -19 2934 -18 2524 1 2903 3 2921 15 79 55 76 177 -5 226 -32 20 -73 20
-2931 20 l-2898 0 -38 -38z"/>
</g>
</svg>
