<?xml version="1.0" standalone="no"?>
<!DOCTYPE svg PUBLIC "-//W3C//DTD SVG 20010904//EN"
 "http://www.w3.org/TR/2001/REC-SVG-20010904/DTD/svg10.dtd">
<svg version="1.0" xmlns="http://www.w3.org/2000/svg"
 width="1024.000000pt" height="1024.000000pt" viewBox="0 0 1024.000000 1024.000000"
 preserveAspectRatio="xMidYMid meet">

<g transform="translate(0.000000,1024.000000) scale(0.100000,-0.100000)"
fill="#000000" stroke="none">
<path d="M5106 7740 c6 -280 4 -360 -5 -360 -28 0 -125 -57 -170 -100 -102
-98 -121 -167 -121 -452 l0 -218 -80 0 -80 0 0 125 0 126 -126 -3 -126 -3 -1
-120 -2 -120 -87 -3 -88 -3 0 126 0 125 -125 0 -125 0 0 -125 0 -125 -80 0
-80 0 0 149 0 149 33 27 c17 15 58 52 90 83 l58 55 -2 158 -3 159 -148 0 -148
0 0 43 c-1 151 -81 279 -214 338 -37 16 -46 24 -40 37 4 9 9 31 12 49 8 63
-74 113 -143 87 -39 -15 -58 -103 -29 -135 15 -17 13 -18 -23 -28 -131 -36
-223 -160 -229 -311 l-3 -75 -161 -3 -160 -2 0 -164 0 -163 80 -76 79 -75 7
-114 c4 -62 3 -202 -1 -310 l-7 -198 -159 0 -159 0 2 -167 3 -168 78 -3 77 -3
1 -72 0 -72 78 -70 77 -70 7 -110 c4 -60 7 -570 7 -1132 l0 -1022 -87 -3 -88
-3 -1 -135 -1 -135 -316 -3 -317 -2 0 -125 0 -125 1333 2 1332 3 77 115 c43
63 78 118 78 123 0 4 -74 7 -165 7 l-165 0 0 603 c0 480 3 616 14 669 36 168
121 268 335 393 137 81 240 164 268 219 l16 31 15 -25 c37 -59 145 -149 273
-225 215 -129 312 -245 338 -405 7 -40 11 -292 11 -662 l0 -598 -165 0 c-91 0
-165 -3 -165 -6 0 -5 70 -116 133 -211 l22 -33 1328 0 1327 0 0 125 0 125
-315 0 -315 0 0 140 0 140 -85 0 -85 0 0 1128 0 1129 85 77 85 78 0 69 0 69
75 0 75 0 0 170 0 170 -160 0 -160 0 0 307 0 308 85 80 85 80 0 163 0 162
-159 0 -158 0 -5 78 c-8 140 -72 236 -196 295 -50 23 -62 33 -56 46 20 45 16
79 -13 111 -40 45 -95 45 -135 1 -30 -34 -38 -87 -16 -109 15 -15 4 -26 -45
-42 -47 -15 -142 -101 -169 -154 -15 -29 -23 -68 -27 -131 l-6 -90 -154 -3
-154 -3 5 -163 4 -164 86 -81 86 -81 1 -145 2 -145 -86 0 -85 0 0 125 0 125
-125 0 -125 0 0 -125 0 -125 -85 0 -85 0 0 125 0 125 -125 0 -125 0 0 -124 0
-123 -61 -7 c-110 -11 -99 -32 -99 187 0 231 -9 301 -49 381 -37 76 -86 124
-176 173 l-70 38 -3 138 -3 137 176 0 175 0 0 165 0 165 -167 2 -168 3 -3 53
-3 52 -85 0 -85 0 7 -360z m146 -820 c64 -36 68 -48 68 -197 l0 -133 -135 0
-135 0 0 131 c0 72 5 139 10 149 6 10 28 29 51 42 23 12 48 36 56 52 l15 29
16 -25 c9 -15 33 -36 54 -48z m-1787 -68 c48 -33 56 -67 49 -194 l-7 -108 -94
0 -93 0 0 126 0 126 45 44 c25 24 45 49 46 56 0 7 5 4 10 -7 6 -11 25 -31 44
-43z m3522 5 c7 -5 22 -18 33 -29 18 -19 20 -36 20 -150 l0 -128 -95 0 -95 0
0 126 0 126 45 44 c25 24 45 49 45 56 0 7 8 1 17 -12 9 -14 23 -29 30 -33z
m-3839 -86 c8 -10 12 -50 12 -118 l0 -104 -62 3 -63 3 -3 103 c-3 101 -2 104
25 136 l28 33 25 -21 c14 -11 31 -27 38 -35z m4182 -113 l0 -108 -60 0 -60 0
0 111 c0 108 1 112 28 138 l27 27 33 -30 32 -30 0 -108z m-970 -448 l0 -100
-1175 0 -1175 0 0 100 0 100 1175 0 1175 0 0 -100z m-2898 -5 c4 -5 8 -58 8
-117 l0 -108 -70 0 -70 0 0 112 0 112 33 31 32 31 30 -26 c16 -14 33 -29 37
-35z m326 -114 l5 -111 -77 0 -76 0 0 107 0 107 36 37 36 36 36 -32 35 -33 5
-111z m3230 127 c20 -16 22 -27 22 -128 l0 -110 -76 0 -76 0 4 110 3 109 35
33 c31 30 37 31 51 18 9 -8 26 -23 37 -32z m-3902 14 c31 -26 32 -30 39 -139
l7 -113 -71 0 -71 0 0 112 c0 108 1 113 27 140 15 15 29 28 32 28 3 -1 20 -13
37 -28z m3614 -143 l0 -109 -70 0 -70 0 0 113 0 112 32 27 32 26 38 -30 38
-30 0 -109z m576 139 l35 -32 -3 -105 -3 -106 -62 -3 -63 -3 0 112 c0 109 1
114 27 141 15 15 28 28 30 28 2 0 19 -14 39 -32z m-946 -1813 l0 -1295 -110 0
-110 0 -2 1183 -3 1182 -950 0 -950 0 -3 -1182 -2 -1183 -110 0 -110 0 0 1295
0 1295 1175 0 1175 0 0 -1295z m-2936 1153 c6 -12 27 -30 46 -40 55 -30 88
-71 95 -120 3 -24 5 -117 3 -208 l-3 -165 -153 -3 c-116 -2 -154 0 -157 10 -3
7 -1 105 3 216 l7 204 37 31 c20 18 51 42 67 55 17 13 31 31 31 39 0 19 8 12
24 -19z m3551 0 c6 -13 30 -34 53 -47 78 -42 82 -57 82 -289 l0 -203 -152 3
-153 3 -3 190 c-3 222 2 240 83 293 28 17 54 41 59 52 12 26 19 25 31 -2z
m-3550 -938 c3 -11 28 -31 54 -45 81 -45 86 -59 89 -297 l3 -208 -160 0 -161
0 0 198 c0 185 1 201 23 242 14 29 35 50 60 63 21 11 46 30 55 43 21 29 29 30
37 4z m3550 1 c3 -10 27 -30 54 -45 84 -45 86 -50 89 -293 l3 -213 -154 0
-154 0 -7 92 c-3 50 -6 138 -6 196 0 129 18 176 80 211 22 12 48 33 58 46 21
29 29 31 37 6z"/>
<path d="M2066 2603 c-3 -4 -6 -69 -6 -145 l0 -138 1159 0 1158 0 87 135 c47
75 86 140 86 146 0 10 -2473 12 -2484 2z"/>
<path d="M5064 2601 c-2 -2 -4 -60 -4 -128 l0 -123 120 0 120 0 0 124 0 125
-116 3 c-64 2 -118 1 -120 -1z"/>
<path d="M5832 2601 c-11 -6 7 -40 75 -142 l88 -134 1153 -3 1153 -2 -3 142
-3 143 -1225 2 c-674 2 -1231 -1 -1238 -6z"/>
</g>
</svg>
