<?xml version="1.0" standalone="no"?>
<!DOCTYPE svg PUBLIC "-//W3C//DTD SVG 20010904//EN"
 "http://www.w3.org/TR/2001/REC-SVG-20010904/DTD/svg10.dtd">
<svg version="1.0" xmlns="http://www.w3.org/2000/svg"
 width="1024.000000pt" height="1024.000000pt" viewBox="0 0 1024.000000 1024.000000"
 preserveAspectRatio="xMidYMid meet">

<g transform="translate(0.000000,1024.000000) scale(0.100000,-0.100000)"
fill="#000000" stroke="none">
<path d="M5077 7512 c-14 -15 -17 -41 -17 -144 0 -89 4 -129 13 -136 14 -12
407 -20 425 -8 21 13 13 35 -28 80 -22 24 -40 51 -40 60 0 9 18 34 40 56 25
25 38 45 34 54 -7 18 -3 18 -157 16 -103 -1 -122 1 -153 19 -44 26 -95 27
-117 3z"/>
<path d="M5071 7054 c-18 -23 -21 -41 -21 -119 l0 -91 -70 -48 c-130 -89 -171
-156 -178 -288 -3 -59 -8 -88 -16 -88 -7 0 -32 -17 -56 -37 -70 -60 -103 -160
-61 -183 11 -5 47 -10 81 -10 l60 0 -2 -192 -3 -193 -52 -3 -53 -3 0 74 c0 86
-6 94 -72 103 -74 10 -87 -3 -90 -94 l-3 -77 -55 0 -55 0 -3 193 -2 192 62 0
c77 0 92 9 92 53 0 54 -50 127 -107 157 l-47 25 0 71 c0 39 -5 86 -11 105 -22
64 -85 135 -169 190 -69 44 -80 56 -75 73 18 59 17 66 -16 104 -19 21 -38 46
-44 55 -8 14 -17 8 -58 -44 -47 -60 -48 -61 -32 -91 8 -17 15 -35 15 -39 0 -4
-26 -24 -58 -43 -70 -42 -147 -122 -169 -174 -9 -20 -18 -76 -21 -124 -3 -58
-9 -88 -17 -88 -21 0 -97 -73 -111 -107 -17 -40 -18 -95 -2 -111 7 -7 39 -12
75 -12 l63 0 0 -475 0 -475 -59 0 c-70 0 -71 2 -71 127 0 76 -2 84 -24 98 -18
12 -38 14 -90 9 -36 -4 -70 -12 -76 -18 -5 -7 -11 -57 -12 -112 l-3 -99 -65 0
-65 0 -3 100 c-4 125 -11 135 -97 135 -95 0 -104 -11 -107 -135 l-3 -100 -70
0 -70 0 -5 300 -5 300 -28 53 c-37 71 -95 132 -168 179 -55 36 -73 63 -49 78
20 12 9 47 -31 100 l-41 55 -44 -48 c-45 -48 -48 -60 -29 -118 6 -18 -2 -28
-48 -58 -75 -50 -143 -125 -175 -194 l-27 -57 -3 -362 c-3 -353 -2 -363 18
-383 16 -16 33 -20 80 -20 l60 0 2 -703 c3 -579 5 -707 17 -720 12 -16 208
-17 2620 -17 2070 0 2611 3 2624 13 16 11 17 68 19 717 l3 705 63 3 c98 5 93
-15 90 413 l-3 364 -28 53 c-37 70 -88 125 -168 182 -64 45 -66 47 -53 71 21
38 17 53 -28 107 l-42 50 -43 -47 c-44 -47 -50 -74 -29 -122 6 -13 -10 -29
-67 -68 -77 -53 -122 -107 -160 -188 -21 -46 -22 -64 -25 -345 l-3 -298 -70 0
-69 0 0 96 c0 132 -2 134 -104 134 -107 0 -110 -4 -113 -124 -2 -50 -3 -94 -3
-98 0 -5 -29 -8 -65 -8 l-65 0 0 104 c0 126 -8 136 -105 136 -93 0 -99 -8
-103 -134 l-4 -106 -59 0 -59 0 0 475 0 475 64 0 c77 0 91 12 83 72 -7 56 -53
118 -105 143 l-42 20 -1 75 c0 41 -6 89 -12 107 -23 61 -75 121 -158 180 -46
33 -83 64 -82 69 1 5 7 23 14 39 11 28 9 33 -17 60 -16 17 -37 41 -47 55 -14
19 -19 22 -24 11 -3 -8 -23 -34 -45 -57 -39 -42 -39 -43 -24 -73 9 -16 16 -34
16 -40 0 -5 -26 -24 -57 -42 -73 -42 -142 -111 -171 -169 -14 -30 -24 -75 -28
-133 -5 -62 -11 -87 -20 -87 -37 0 -111 -94 -128 -163 -12 -51 7 -67 79 -67
l65 0 0 -196 0 -195 -52 3 -53 3 -3 70 c-4 89 -17 105 -87 105 -31 0 -57 -5
-63 -13 -6 -7 -12 -46 -14 -87 l-3 -75 -49 -3 c-27 -2 -52 1 -55 6 -3 6 -5 94
-3 196 l3 186 62 0 c36 0 68 5 75 12 14 14 16 57 2 92 -13 36 -76 102 -110
116 -29 12 -30 14 -30 84 0 134 -38 199 -171 293 l-79 55 0 99 c0 86 -3 102
-20 119 -28 28 -64 25 -89 -6z m-910 -973 l29 -29 0 -129 c-1 -157 -4 -163
-87 -163 -91 0 -95 8 -91 170 3 130 3 132 31 156 39 33 81 31 118 -5z m1006 5
c28 -24 28 -25 31 -158 1 -73 -2 -139 -7 -147 -6 -10 -33 -16 -74 -19 -93 -6
-100 6 -95 173 3 125 3 127 31 151 36 31 78 31 114 0z m1022 -2 l31 -26 0
-133 c0 -160 -3 -165 -89 -165 -31 0 -62 5 -69 12 -8 8 -12 56 -12 150 0 134
1 140 25 163 32 33 75 32 114 -1z m-3469 -452 c17 -21 20 -40 20 -131 0 -70
-4 -111 -12 -119 -18 -18 -133 -16 -148 2 -17 21 -16 216 1 244 28 45 106 47
139 4z m4935 8 c17 -17 21 -37 23 -124 5 -139 1 -146 -88 -146 -86 0 -90 6
-90 125 0 97 17 150 52 165 31 13 79 4 103 -20z m-2475 -268 c19 -23 20 -41
20 -368 l0 -343 -26 -20 c-37 -29 -89 -27 -120 4 l-25 25 3 344 c3 319 4 345
22 364 33 37 95 34 126 -6z m-1023 6 l23 -21 0 -349 c0 -335 -1 -349 -20 -368
-29 -29 -94 -27 -125 5 l-25 24 0 331 c0 394 1 397 89 399 23 1 43 -7 58 -21z
m502 5 c21 -18 21 -22 21 -542 1 -492 0 -526 -17 -542 -17 -16 -44 -23 -85
-20 -10 1 -27 10 -38 21 -19 19 -20 33 -20 535 l0 516 25 24 c29 30 83 33 114
8z m1028 -5 l23 -21 0 -519 c0 -502 -1 -519 -20 -538 -43 -43 -111 -33 -136
20 -9 18 -10 162 -6 528 5 477 6 504 24 527 26 33 82 34 115 3z m510 0 l23
-21 0 -348 0 -348 -26 -20 c-33 -26 -84 -27 -115 -2 l-24 19 -3 319 c-2 175 0
333 3 351 3 18 15 42 26 53 27 27 86 25 116 -3z"/>
<path d="M2366 3448 c-19 -26 -22 -158 -6 -189 11 -19 52 -19 2753 -19 2120 0
2746 3 2755 12 8 8 12 46 12 103 0 57 -4 95 -12 103 -9 9 -634 12 -2749 12
l-2738 0 -15 -22z"/>
<path d="M2198 3071 c-29 -8 -38 -37 -38 -122 0 -79 2 -89 22 -103 20 -14 316
-16 2945 -16 2643 0 2923 2 2937 16 23 22 23 196 1 214 -13 11 -587 13 -2935
14 -1606 1 -2926 -1 -2932 -3z"/>
</g>
</svg>
