<?xml version="1.0" encoding="UTF-8" standalone="no"?>
<!-- Created with Inkscape (http://www.inkscape.org/) -->

<svg
   version="1.1"
   id="svg2622"
   xml:space="preserve"
   width="682.66669"
   height="682.66669"
   viewBox="0 0 682.66669 682.66669"
   xmlns="http://www.w3.org/2000/svg"
   xmlns:svg="http://www.w3.org/2000/svg"><defs
     id="defs2626"><clipPath
       clipPathUnits="userSpaceOnUse"
       id="clipPath2636"><path
         d="M 0,512 H 512 V 0 H 0 Z"
         id="path2634" /></clipPath></defs><g
     id="g2628"
     transform="matrix(1.3333333,0,0,-1.3333333,0,682.66667)"><g
       id="g2630"><g
         id="g2632"
         clip-path="url(#clipPath2636)"><g
           id="g2638"
           transform="translate(497,392.5664)"><path
             d="m 0,0 c 0,8.523 -3.382,16.693 -9.415,22.719 -6.025,6.033 -14.195,9.415 -22.719,9.415 h -417.732 c -8.524,0 -16.694,-3.382 -22.719,-9.415 C -478.618,16.693 -482,8.523 -482,0 v -273.133 c 0,-8.523 3.382,-16.693 9.415,-22.719 6.025,-6.033 14.195,-9.415 22.719,-9.415 h 417.732 c 8.524,0 16.694,3.382 22.719,9.415 6.033,6.026 9.415,14.196 9.415,22.719 z"
             style="fill:none;stroke:#f44336;stroke-width:30;stroke-linecap:round;stroke-linejoin:round;stroke-miterlimit:10;stroke-dasharray:none;stroke-opacity:1"
             id="path2640" /></g><g
           id="g2642"
           transform="translate(159.5996,296.167)"><path
             d="m 0,0 c 22.173,0 40.167,-17.995 40.167,-40.167 0,-22.172 -17.994,-40.167 -40.167,-40.167 -22.172,0 -40.166,17.995 -40.166,40.167 C -40.166,-17.995 -22.172,0 0,0 Z"
             style="fill:none;stroke:#f44336;stroke-width:30;stroke-linecap:round;stroke-linejoin:round;stroke-miterlimit:10;stroke-dasharray:none;stroke-opacity:1"
             id="path2644" /></g><g
           id="g2646"
           transform="translate(159.5996,215.833)"><path
             d="M 0,0 C 35.468,0 64.267,-28.799 64.267,-64.267 H -64.267 C -64.267,-28.799 -35.467,0 0,0 Z"
             style="fill:none;stroke:#f44336;stroke-width:30;stroke-linecap:round;stroke-linejoin:round;stroke-miterlimit:10;stroke-dasharray:none;stroke-opacity:1"
             id="path2648" /></g><g
           id="g2650"
           transform="translate(304.2002,280.0996)"><path
             d="M 0,0 H 112.467"
             style="fill:none;stroke:#f44336;stroke-width:30;stroke-linecap:round;stroke-linejoin:round;stroke-miterlimit:10;stroke-dasharray:none;stroke-opacity:1"
             id="path2652" /></g><g
           id="g2654"
           transform="translate(95.333,360.4336)"><path
             d="M 0,0 H 321.334"
             style="fill:none;stroke:#f44336;stroke-width:30;stroke-linecap:round;stroke-linejoin:round;stroke-miterlimit:10;stroke-dasharray:none;stroke-opacity:1"
             id="path2656" /></g><g
           id="g2658"
           transform="translate(304.2002,215.833)"><path
             d="M 0,0 H 112.467"
             style="fill:none;stroke:#f44336;stroke-width:30;stroke-linecap:round;stroke-linejoin:round;stroke-miterlimit:10;stroke-dasharray:none;stroke-opacity:1"
             id="path2660" /></g><g
           id="g2662"
           transform="translate(304.2002,151.5664)"><path
             d="M 0,0 H 80.333"
             style="fill:none;stroke:#f44336;stroke-width:30;stroke-linecap:round;stroke-linejoin:round;stroke-miterlimit:10;stroke-dasharray:none;stroke-opacity:1;"
             id="path2664" /></g></g></g></g></svg>
