<?xml version="1.0" encoding="UTF-8" standalone="no"?>
<!-- Created with Inkscape (http://www.inkscape.org/) -->

<svg
   version="1.1"
   id="svg4047"
   xml:space="preserve"
   width="682.66669"
   height="682.66669"
   viewBox="0 0 682.66669 682.66669"
   xmlns="http://www.w3.org/2000/svg"
   xmlns:svg="http://www.w3.org/2000/svg"><defs
     id="defs4051"><clipPath
       clipPathUnits="userSpaceOnUse"
       id="clipPath4077"><path
         d="M 0,512 H 512 V 0 H 0 Z"
         id="path4075" /></clipPath><clipPath
       clipPathUnits="userSpaceOnUse"
       id="clipPath4109"><path
         d="M 0,512 H 512 V 0 H 0 Z"
         id="path4107" /></clipPath></defs><g
     id="g4053"
     transform="matrix(1.3333333,0,0,-1.3333333,0,682.66667)"><g
       id="g4055"
       transform="translate(128.4687,412.8799)"><path
         d="M 0,0 41.87,-46.976"
         style="fill:none;stroke:#000000;stroke-width:15;stroke-linecap:round;stroke-linejoin:round;stroke-miterlimit:10;stroke-dasharray:none;stroke-opacity:1"
         id="path4057" /></g><g
       id="g4059"
       transform="translate(197.2139,432.0996)"><path
         d="M 0,0 41.87,-46.976"
         style="fill:none;stroke:#000000;stroke-width:15;stroke-linecap:round;stroke-linejoin:round;stroke-miterlimit:10;stroke-dasharray:none;stroke-opacity:1"
         id="path4061" /></g><g
       id="g4063"
       transform="translate(265.959,451.3193)"><path
         d="M 0,0 41.87,-46.976"
         style="fill:none;stroke:#000000;stroke-width:15;stroke-linecap:round;stroke-linejoin:round;stroke-miterlimit:10;stroke-dasharray:none;stroke-opacity:1"
         id="path4065" /></g><g
       id="g4067"
       transform="translate(334.7041,470.5391)"><path
         d="M 0,0 41.87,-46.976"
         style="fill:none;stroke:#000000;stroke-width:15;stroke-linecap:round;stroke-linejoin:round;stroke-miterlimit:10;stroke-dasharray:none;stroke-opacity:1"
         id="path4069" /></g><g
       id="g4071"><g
         id="g4073"
         clip-path="url(#clipPath4077)"><g
           id="g4079"
           transform="translate(403.4492,489.7588)"><path
             d="M 0,0 41.871,-46.976"
             style="fill:none;stroke:#000000;stroke-width:15;stroke-linecap:round;stroke-linejoin:round;stroke-miterlimit:10;stroke-dasharray:none;stroke-opacity:1"
             id="path4081" /></g></g></g><g
       id="g4083"
       transform="translate(141.3193,355.3398)"><path
         d="M 0,0 27.676,-56.515"
         style="fill:none;stroke:#000000;stroke-width:15;stroke-linecap:round;stroke-linejoin:round;stroke-miterlimit:10;stroke-dasharray:none;stroke-opacity:1"
         id="path4085" /></g><g
       id="g4087"
       transform="translate(212.7012,355.3398)"><path
         d="M 0,0 27.676,-56.515"
         style="fill:none;stroke:#000000;stroke-width:15;stroke-linecap:round;stroke-linejoin:round;stroke-miterlimit:10;stroke-dasharray:none;stroke-opacity:1"
         id="path4089" /></g><g
       id="g4091"
       transform="translate(284.082,355.3398)"><path
         d="M 0,0 27.676,-56.515"
         style="fill:none;stroke:#000000;stroke-width:15;stroke-linecap:round;stroke-linejoin:round;stroke-miterlimit:10;stroke-dasharray:none;stroke-opacity:1"
         id="path4093" /></g><g
       id="g4095"
       transform="translate(355.4639,355.3398)"><path
         d="M 0,0 27.676,-56.515"
         style="fill:none;stroke:#000000;stroke-width:15;stroke-linecap:round;stroke-linejoin:round;stroke-miterlimit:10;stroke-dasharray:none;stroke-opacity:1"
         id="path4097" /></g><g
       id="g4099"
       transform="translate(426.8447,355.3398)"><path
         d="M 0,0 27.677,-56.515"
         style="fill:none;stroke:#000000;stroke-width:15;stroke-linecap:round;stroke-linejoin:round;stroke-miterlimit:10;stroke-dasharray:none;stroke-opacity:1"
         id="path4101" /></g><g
       id="g4103"><g
         id="g4105"
         clip-path="url(#clipPath4109)"><g
           id="g4111"
           transform="translate(66.251,363.0781)"><path
             d="M 0,0 V 0 C -4.143,0 -7.5,3.357 -7.5,7.5 -7.5,11.642 -4.143,15 0,15 4.142,15 7.5,11.642 7.5,7.5 7.5,3.357 4.142,0 0,0"
             style="fill:#000000;fill-opacity:1;fill-rule:nonzero;stroke:none"
             id="path4113" /></g><g
           id="g4115"
           transform="translate(38.749,226.9092)"><path
             d="M 0,0 H 434.502"
             style="fill:none;stroke:#000000;stroke-width:15;stroke-linecap:round;stroke-linejoin:round;stroke-miterlimit:10;stroke-dasharray:none;stroke-opacity:1"
             id="path4117" /></g><g
           id="g4119"
           transform="translate(91.5879,403.3594)"><path
             d="m 0,0 360.384,100.756 c 5.509,1.54 11.222,-1.678 12.763,-7.187 l 9.844,-35.211 c 1.54,-5.508 -1.677,-11.223 -7.185,-12.763 L 44.893,-46.921"
             style="fill:none;stroke:#000000;stroke-width:15;stroke-linecap:round;stroke-linejoin:round;stroke-miterlimit:10;stroke-dasharray:none;stroke-opacity:1"
             id="path4121" /></g><g
           id="g4123"
           transform="translate(462.8945,7.5)"><path
             d="m 0,0 h -413.789 c -5.72,0 -10.357,4.637 -10.357,10.356 V 291.325 H 10.356 V 10.356 C 10.356,4.637 5.72,0 0,0 Z"
             style="fill:none;stroke:#000000;stroke-width:15;stroke-linecap:round;stroke-linejoin:round;stroke-miterlimit:10;stroke-dasharray:none;stroke-opacity:1"
             id="path4125" /></g><g
           id="g4127"
           transform="translate(352.958,79.416)"><path
             d="M 0,0 H -314.209"
             style="fill:none;stroke:#000000;stroke-width:15;stroke-linecap:round;stroke-linejoin:round;stroke-miterlimit:10;stroke-dasharray:none;stroke-opacity:1"
             id="path4129" /></g><g
           id="g4131"
           transform="translate(473.251,79.416)"><path
             d="M 0,0 H -87.606"
             style="fill:none;stroke:#000000;stroke-width:15;stroke-linecap:round;stroke-linejoin:round;stroke-miterlimit:10;stroke-dasharray:none;stroke-opacity:1"
             id="path4133" /></g><g
           id="g4135"
           transform="translate(410.0566,356.1006)"><path
             d="m 0,0 h 67.385 c 5.719,0 10.356,-4.637 10.356,-10.356 v -36.563 c 0,-5.72 -4.637,-10.356 -10.356,-10.356 h -4.191"
             style="fill:none;stroke:#000000;stroke-width:15;stroke-linecap:round;stroke-linejoin:round;stroke-miterlimit:10;stroke-dasharray:none;stroke-opacity:1"
             id="path4137" /></g><g
           id="g4139"
           transform="translate(108.2998,356.1006)"><path
             d="M 0,0 H 269.07"
             style="fill:none;stroke:#000000;stroke-width:15;stroke-linecap:round;stroke-linejoin:round;stroke-miterlimit:10;stroke-dasharray:none;stroke-opacity:1"
             id="path4141" /></g><g
           id="g4143"
           transform="translate(24.2021,323.0264)"><path
             d="m 0,0 v -13.845 c 0,-5.719 4.637,-10.356 10.356,-10.356 h 4.191"
             style="fill:none;stroke:#000000;stroke-width:15;stroke-linecap:round;stroke-linejoin:round;stroke-miterlimit:10;stroke-dasharray:none;stroke-opacity:1"
             id="path4145" /></g><g
           id="g4147"
           transform="translate(108.2998,298.8252)"><path
             d="m 0,0 v 70.979 c 0,23.223 -18.826,42.049 -42.049,42.049 -23.222,0 -42.049,-18.826 -42.049,-42.049 V 57.613"
             style="fill:none;stroke:#000000;stroke-width:15;stroke-linecap:round;stroke-linejoin:round;stroke-miterlimit:10;stroke-dasharray:none;stroke-opacity:1"
             id="path4149" /></g><g
           id="g4151"
           transform="translate(302,153.1621)"><path
             d="m 0,0 c 0,-25.957 -21.043,-47 -47,-47 -25.957,0 -47,21.043 -47,47 0,25.958 21.043,47 47,47 C -21.043,47 0,25.958 0,0 Z"
             style="fill:none;stroke:#000000;stroke-width:15;stroke-linecap:round;stroke-linejoin:round;stroke-miterlimit:10;stroke-dasharray:none;stroke-opacity:1"
             id="path4153" /></g><g
           id="g4155"
           transform="translate(255,200.1621)"><path
             d="M 0,0 V -94"
             style="fill:none;stroke:#000000;stroke-width:15;stroke-linecap:round;stroke-linejoin:round;stroke-miterlimit:10;stroke-dasharray:none;stroke-opacity:1"
             id="path4157" /></g><g
           id="g4159"
           transform="translate(295.4111,177.1621)"><path
             d="M 0,0 -80.821,-47.999"
             style="fill:none;stroke:#000000;stroke-width:15;stroke-linecap:round;stroke-linejoin:round;stroke-miterlimit:10;stroke-dasharray:none;stroke-opacity:1"
             id="path4161" /></g><g
           id="g4163"
           transform="translate(214.5898,177.1621)"><path
             d="M 0,0 80.821,-47.999"
             style="fill:none;stroke:#000000;stroke-width:15;stroke-linecap:round;stroke-linejoin:round;stroke-miterlimit:10;stroke-dasharray:none;stroke-opacity:1"
             id="path4165" /></g></g></g></g></svg>
