<svg id="Layer_1" enable-background="new 0 0 66 66" height="512" viewBox="0 0 66 66" width="512" xmlns="http://www.w3.org/2000/svg"><g><path d="m63.35 1.69c-.25-.18-.57-.24-.86-.14l-17.15 5.33c-.41.13-.68.5-.68.93v14.18c-.84-.65-1.88-1.05-3.02-1.05-2.73 0-4.95 2.22-4.95 4.95s2.22 4.95 4.95 4.95 4.95-2.22 4.95-4.95v-11l15.21-4.73v6.49c-.84-.65-1.88-1.05-3.02-1.05-2.73 0-4.95 2.22-4.95 4.95s2.22 4.95 4.95 4.95 4.95-2.22 4.95-4.95v-18.08c.01-.31-.14-.6-.38-.78z"/><path d="m41.64 32.77c-3.8 0-6.89-3.09-6.89-6.89 0-3.79 3.08-6.88 6.87-6.89-4.06-2.85-9-4.52-14.34-4.52-13.82 0-25.02 11.2-25.02 25.02s11.2 25.02 25.02 25.02 25.02-11.2 25.02-25.02c0-4.85-1.39-9.38-3.78-13.21-.21 3.61-3.21 6.49-6.88 6.49zm-.06 5.74c.54 0 .97.43.97.97 0 8.42-6.85 15.27-15.27 15.27-.54 0-.97-.43-.97-.97s.43-.97.97-.97c7.35 0 13.34-5.98 13.34-13.33-.01-.53.42-.97.96-.97zm-32.16.97c0 .54-.43.97-.97.97s-.97-.43-.97-.97c0-10.92 8.88-19.8 19.8-19.8.54 0 .97.43.97.97s-.43.97-.97.97c-9.85.01-17.86 8.02-17.86 17.86zm3.55.97c-.54 0-.97-.43-.97-.97 0-8.42 6.85-15.27 15.27-15.27.54 0 .97.43.97.97s-.43.97-.97.97c-7.35 0-13.34 5.98-13.34 13.34.01.53-.42.96-.96.96zm3.55-.97c0-5.93 4.82-10.75 10.75-10.75s10.75 4.82 10.75 10.75-4.82 10.76-10.74 10.76c-5.93 0-10.76-4.83-10.76-10.76zm10.76 19.8c-.54 0-.97-.43-.97-.97s.43-.97.97-.97c9.85 0 17.86-8.01 17.86-17.86 0-.54.43-.97.97-.97s.97.43.97.97c-.01 10.92-8.89 19.8-19.8 19.8z"/><path d="m36.09 39.48c0-4.86-3.95-8.81-8.81-8.81s-8.81 3.95-8.81 8.81 3.95 8.81 8.81 8.81c4.86.01 8.81-3.95 8.81-8.81zm-13.08 0c0-2.35 1.91-4.26 4.26-4.26s4.26 1.91 4.26 4.26-1.91 4.26-4.26 4.26-4.26-1.9-4.26-4.26z"/></g></svg>